{
.appVersion = "1172";
DisplayStrings = (
"Á/Abreve ÂÀ/Amacron/Aogonek ÅÃ/Cacute/Ccaron Ç/Cdotaccent/Dcaron/Ddotbelow É/Ecaron Ê/Edotaccent/Eogonek/Etilde/Gdotaccent Í/Ibreve ÎÏÌ/Kcommaaccent/Lacute/Lcaron/Ncaron/Ncommaaccent/Ndotaccent ÑÓÔÖÒ/Ohungarumlaut/Omacron/Oogonek Õ/Racute/Rcaron/Rcommaaccent/Rdotbelow/Sacute/Scaron/Sdotbelow/Tcaron ÚÙ/Uhungarumlaut/Uogonek/Utilde/Wacute/Wcircumflex/Wdieresis/Wgrave Ý/Ycircumflex/Ydieresis/Ygrave/Ytilde/Zacute/Zcaron á/abreve â/amacron/aogonek å/aringacute/cacute/ccaron ç/ccircumflex/cdotaccent/ddotbelow é/ebreve/ecaron ê/edotaccent/edotbelow è/emacron/eogonek/etilde/fiveeighths/gbreve/gcircumflex/gdotaccent/hcircumflex íì/lcommaaccent/nacute/napostrophe/ncaron/ndotaccent ñóô/oe ò/ohungarumlaut/omacron/oneeighth ½¼/onethird õ/racute/rcaron/sacute/scaron/scircumflex/seveneighths/threeeighths ¾/twothirds ú/ubreve ûüù/uhungarumlaut/umacron/uni015E/uni0162/uni0163/uni01C4/uni01C5/uni01C6/uni0219/uogonek/utilde/wacute/wcircumflex/wdieresis/wgrave ý/ygrave/zacute/zcaron/zdotaccent",
"argument \012A x en\012\012nnonn\012nnenn",
"g/Eogonek/oogonek/aogonek/uogonek g\012\012t",
SO,
g,
H
);
classes = (
{
code = "Euro bar cent colon comma degree divide dollar eight equal five four greater less minus multiply nine numbersign one paragraph percent period periodcentered plus plusminus quotedbl quotesingle section semicolon seven six slash sterling three two underscore yen zero";
name = tnum1;
},
{
code = "Euro.tnum bar.tnum cent.tnum colon.tnum comma.tnum degree.tnum divide.tnum dollar.tnum eight.tnum equal.tnum five.tnum four.tnum greater.tnum less.tnum minus.tnum multiply.tnum nine.tnum numbersign.tnum one.tnum paragraph.tnum percent.tnum period.tnum periodcentered.tnum plus.tnum plusminus.tnum quotedbl.tnum quotesingle.tnum section.tnum semicolon.tnum seven.tnum six.tnum slash.tnum sterling.tnum three.tnum two.tnum underscore.tnum yen.tnum zero.tnum";
name = tnum2;
}
);

glyphs = (
{
glyphname = .notdef;
lastChange = "2018-10-23 21:24:40 +0000";
layers = (
{
layerId = master01;
paths = (
{
closed = 1;
nodes = (
"495 -224 LINE",
"495 834 LINE",
"43 834 LINE",
"43 -224 LINE"
);
},
{
closed = 1;
nodes = (
"417 670 LINE",
"417 -153 LINE",
"150 -153 LINE"
);
},
{
closed = 1;
nodes = (
"387 763 LINE",
"120 -60 LINE",
"120 763 LINE"
);
}
);
width = 538;
},
{
layerId = "FA6D65B5-4623-4FAC-A199-3F662257AC29";
paths = (
{
closed = 1;
nodes = (
"495 -224 LINE",
"495 834 LINE",
"43 834 LINE",
"43 -224 LINE"
);
},
{
closed = 1;
nodes = (
"417 670 LINE",
"417 -153 LINE",
"150 -153 LINE"
);
},
{
closed = 1;
nodes = (
"387 763 LINE",
"120 -60 LINE",
"120 763 LINE"
);
}
);
width = 538;
}
);
},
{
glyphname = A;
lastChange = "2018-10-23 21:24:40 +0000";
layers = (
{
anchors = (
{
name = bottom;
position = "{514, 0}";
},
{
name = topcap;
position = "{314, 714}";
}
);
layerId = master01;
paths = (
{
closed = 1;
nodes = (
"453 86 LINE SMOOTH",
"461 65 OFFCURVE",
"463 56 OFFCURVE",
"463 48 CURVE SMOOTH",
"463 30 OFFCURVE",
"453 23 OFFCURVE",
"374 20 CURVE",
"374 0 LINE",
"648 0 LINE",
"648 20 LINE",
"587 24 OFFCURVE",
"574 33 OFFCURVE",
"560 72 CURVE SMOOTH",
"333 679 LINE",
"249 633 LINE",
"271 582 LINE",
"104 115 LINE SMOOTH",
"83 55 OFFCURVE",
"71 34 OFFCURVE",
"-21 20 CURVE",
"-21 0 LINE",
"221 0 LINE",
"221 20 LINE",
"163 28 OFFCURVE",
"132 42 OFFCURVE",
"132 73 CURVE SMOOTH",
"132 83 OFFCURVE",
"136 96 OFFCURVE",
"142 114 CURVE SMOOTH",
"290 528 LINE",
"293 528 LINE"
);
},
{
closed = 1;
nodes = (
"409 243 LINE",
"409 278 LINE",
"177 278 LINE",
"177 243 LINE"
);
}
);
width = 640;
},
{
layerId = "FA6D65B5-4623-4FAC-A199-3F662257AC29";
paths = (
{
closed = 1;
nodes = (
"415 98 LINE SMOOTH",
"420 84 OFFCURVE",
"422 72 OFFCURVE",
"422 64 CURVE SMOOTH",
"422 40 OFFCURVE",
"401 34 OFFCURVE",
"338 32 CURVE",
"338 0 LINE",
"692 0 LINE",
"692 32 LINE",
"630 36 OFFCURVE",
"616 45 OFFCURVE",
"599 84 CURVE SMOOTH",
"353 679 LINE",
"225 630 LINE",
"265 542 LINE",
"102 127 LINE SMOOTH",
"75 58 OFFCURVE",
"64 46 OFFCURVE",
"-17 32 CURVE",
"-17 0 LINE",
"249 0 LINE",
"249 32 LINE",
"178 42 OFFCURVE",
"152 56 OFFCURVE",
"152 85 CURVE SMOOTH",
"152 96 OFFCURVE",
"156 109 OFFCURVE",
"162 126 CURVE SMOOTH",
"284 444 LINE",
"287 444 LINE"
);
},
{
closed = 1;
nodes = (
"435 191 LINE",
"435 240 LINE",
"158 240 LINE",
"158 191 LINE"
);
}
);
width = 672;
}
);
leftKerningGroup = A;
rightKerningGroup = A;
unicode = 0041;
},
{
glyphname = AE;
lastChange = "2018-10-23 21:24:40 +0000";
layers = (
{
layerId = master01;
paths = (
{
closed = 1;
nodes = (
"222 0 LINE",
"222 20 LINE",
"169 28 OFFCURVE",
"145 38 OFFCURVE",
"145 62 CURVE SMOOTH",
"145 75 OFFCURVE",
"151 91 OFFCURVE",
"163 114 CURVE SMOOTH",
"235 251 LINE",
"405 251 LINE",
"405 36 LINE",
"332 20 LINE",
"332 0 LINE",
"807 0 LINE",
"839 201 LINE",
"810 201 LINE",
"791 145 OFFCURVE",
"772 90 OFFCURVE",
"738 34 CURVE",
"495 34 LINE",
"495 316 LINE",
"649 316 LINE",
"666 281 OFFCURVE",
"676 247 OFFCURVE",
"681 212 CURVE",
"702 212 LINE",
"702 453 LINE",
"681 453 LINE",
"675 419 OFFCURVE",
"666 384 OFFCURVE",
"649 350 CURVE",
"495 350 LINE",
"495 628 LINE",
"742 628 LINE",
"771 579 OFFCURVE",
"790 522 OFFCURVE",
"804 473 CURVE",
"825 473 LINE",
"810 662 LINE",
"323 662 LINE",
"323 642 LINE",
"396 628 LINE",
"126 115 LINE SMOOTH",
"94 53 OFFCURVE",
"74 34 OFFCURVE",
"-19 20 CURVE",
"-19 0 LINE"
);
},
{
closed = 1;
nodes = (
"401 574 LINE",
"404 574 LINE",
"404 286 LINE",
"253 286 LINE"
);
}
);
width = 885;
},
{
layerId = "FA6D65B5-4623-4FAC-A199-3F662257AC29";
paths = (
{
closed = 1;
nodes = (
"234 0 LINE",
"234 32 LINE",
"187 39 OFFCURVE",
"168 52 OFFCURVE",
"168 76 CURVE SMOOTH",
"168 89 OFFCURVE",
"175 105 OFFCURVE",
"185 126 CURVE SMOOTH",
"248 248 LINE",
"421 248 LINE",
"421 48 LINE",
"347 32 LINE",
"347 0 LINE",
"869 0 LINE",
"906 201 LINE",
"861 201 LINE",
"841 145 OFFCURVE",
"820 100 OFFCURVE",
"783 49 CURVE",
"568 49 LINE",
"568 327 LINE",
"677 327 LINE",
"696 295 OFFCURVE",
"708 264 OFFCURVE",
"714 230 CURVE",
"750 230 LINE",
"750 470 LINE",
"714 470 LINE",
"708 436 OFFCURVE",
"696 405 OFFCURVE",
"677 373 CURVE",
"568 373 LINE",
"568 613 LINE",
"788 613 LINE",
"817 568 OFFCURVE",
"840 519 OFFCURVE",
"854 473 CURVE",
"890 473 LINE",
"874 662 LINE",
"330 662 LINE",
"330 639 LINE",
"384 624 LINE",
"122 127 LINE SMOOTH",
"88 62 OFFCURVE",
"65 45 OFFCURVE",
"-23 32 CURVE",
"-23 0 LINE"
);
},
{
closed = 1;
nodes = (
"417 574 LINE",
"421 574 LINE",
"421 294 LINE",
"272 294 LINE"
);
}
);
width = 940;
}
);
leftKerningGroup = AE;
rightKerningGroup = E;
unicode = 00C6;
},
{
glyphname = Aringacute;
lastChange = "2018-10-23 21:24:40 +0000";
layers = (
{
components = (
{
name = A;
}
);
layerId = master01;
paths = (
{
closed = 1;
nodes = (
"260 724 LINE",
"269 717 OFFCURVE",
"282 714 OFFCURVE",
"296 714 CURVE SMOOTH",
"325 714 OFFCURVE",
"347 732 OFFCURVE",
"354 759 CURVE",
"393 770 OFFCURVE",
"401 786 OFFCURVE",
"401 803 CURVE SMOOTH",
"401 824 OFFCURVE",
"380 833 OFFCURVE",
"363 833 CURVE SMOOTH",
"351 833 OFFCURVE",
"341 830 OFFCURVE",
"331 824 CURVE",
"321 831 OFFCURVE",
"309 834 OFFCURVE",
"296 834 CURVE SMOOTH",
"261 834 OFFCURVE",
"236 808 OFFCURVE",
"236 774 CURVE SMOOTH",
"236 767 OFFCURVE",
"237 761 OFFCURVE",
"238 755 CURVE",
"201 728 LINE",
"211 710 LINE"
);
},
{
closed = 1;
nodes = (
"278 744 OFFCURVE",
"266 756 OFFCURVE",
"266 774 CURVE SMOOTH",
"266 792 OFFCURVE",
"278 804 OFFCURVE",
"296 804 CURVE SMOOTH",
"314 804 OFFCURVE",
"326 792 OFFCURVE",
"326 774 CURVE SMOOTH",
"326 756 OFFCURVE",
"314 744 OFFCURVE",
"296 744 CURVE SMOOTH"
);
}
);
width = 640;
},
{
components = (
{
name = A;
}
);
layerId = "FA6D65B5-4623-4FAC-A199-3F662257AC29";
paths = (
{
closed = 1;
nodes = (
"255 724 LINE",
"264 717 OFFCURVE",
"277 714 OFFCURVE",
"291 714 CURVE SMOOTH",
"320 714 OFFCURVE",
"342 732 OFFCURVE",
"349 759 CURVE",
"388 770 OFFCURVE",
"396 786 OFFCURVE",
"396 803 CURVE SMOOTH",
"396 824 OFFCURVE",
"375 833 OFFCURVE",
"358 833 CURVE SMOOTH",
"346 833 OFFCURVE",
"336 830 OFFCURVE",
"326 824 CURVE",
"316 831 OFFCURVE",
"304 834 OFFCURVE",
"291 834 CURVE SMOOTH",
"256 834 OFFCURVE",
"230 808 OFFCURVE",
"230 774 CURVE SMOOTH",
"230 767 OFFCURVE",
"231 761 OFFCURVE",
"233 755 CURVE",
"196 728 LINE",
"206 710 LINE"
);
},
{
closed = 1;
nodes = (
"280 757 OFFCURVE",
"273 764 OFFCURVE",
"273 774 CURVE SMOOTH",
"273 784 OFFCURVE",
"280 791 OFFCURVE",
"291 791 CURVE SMOOTH",
"301 791 OFFCURVE",
"308 784 OFFCURVE",
"308 774 CURVE SMOOTH",
"308 764 OFFCURVE",
"301 757 OFFCURVE",
"291 757 CURVE SMOOTH"
);
}
);
width = 672;
}
);
leftKerningGroup = A;
rightKerningGroup = A;
unicode = 01FA;
},
{
glyphname = B;
lastChange = "2018-10-23 21:24:40 +0000";
layers = (
{
layerId = master01;
paths = (
{
closed = 1;
nodes = (
"42 642 LINE",
"115 626 LINE",
"115 36 LINE",
"42 20 LINE",
"42 0 LINE",
"311 0 LINE SMOOTH",
"405 0 OFFCURVE",
"458 13 OFFCURVE",
"497 45 CURVE SMOOTH",
"533 75 OFFCURVE",
"555 123 OFFCURVE",
"555 175 CURVE SMOOTH",
"555 269 OFFCURVE",
"487 340 OFFCURVE",
"384 351 CURVE",
"384 354 LINE",
"475 373 OFFCURVE",
"525 427 OFFCURVE",
"525 501 CURVE SMOOTH",
"525 552 OFFCURVE",
"501 599 OFFCURVE",
"461 627 CURVE SMOOTH",
"426 651 OFFCURVE",
"376 662 OFFCURVE",
"297 662 CURVE SMOOTH",
"42 662 LINE"
);
},
{
closed = 1;
nodes = (
"280 628 LINE SMOOTH",
"342 628 OFFCURVE",
"372 619 OFFCURVE",
"397 593 CURVE SMOOTH",
"420 570 OFFCURVE",
"429 544 OFFCURVE",
"429 504 CURVE SMOOTH",
"429 426 OFFCURVE",
"394 378 OFFCURVE",
"331 372 CURVE SMOOTH",
"312 370 OFFCURVE",
"292 369 OFFCURVE",
"259 369 CURVE SMOOTH",
"206 369 LINE",
"206 628 LINE"
);
},
{
closed = 1;
nodes = (
"399 335 OFFCURVE",
"455 286 OFFCURVE",
"455 183 CURVE SMOOTH",
"455 80 OFFCURVE",
"400 33 OFFCURVE",
"281 33 CURVE SMOOTH",
"223 33 OFFCURVE",
"206 44 OFFCURVE",
"206 84 CURVE SMOOTH",
"206 335 LINE",
"279 335 LINE"
);
}
);
width = 601;
},
{
layerId = "FA6D65B5-4623-4FAC-A199-3F662257AC29";
paths = (
{
closed = 1;
nodes = (
"36 630 LINE",
"109 612 LINE",
"109 51 LINE",
"36 32 LINE",
"36 0 LINE",
"341 0 LINE SMOOTH",
"445 0 OFFCURVE",
"502 13 OFFCURVE",
"546 45 CURVE SMOOTH",
"586 75 OFFCURVE",
"610 123 OFFCURVE",
"610 175 CURVE SMOOTH",
"610 276 OFFCURVE",
"533 348 OFFCURVE",
"417 359 CURVE",
"417 363 LINE",
"519 381 OFFCURVE",
"577 432 OFFCURVE",
"577 501 CURVE SMOOTH",
"577 552 OFFCURVE",
"551 599 OFFCURVE",
"507 627 CURVE SMOOTH",
"468 651 OFFCURVE",
"413 662 OFFCURVE",
"326 662 CURVE SMOOTH",
"36 662 LINE"
);
},
{
closed = 1;
nodes = (
"273 616 LINE SMOOTH",
"322 616 OFFCURVE",
"359 606 OFFCURVE",
"384 587 CURVE SMOOTH",
"407 568 OFFCURVE",
"420 538 OFFCURVE",
"420 498 CURVE SMOOTH",
"420 427 OFFCURVE",
"381 385 OFFCURVE",
"312 378 CURVE SMOOTH",
"301 377 OFFCURVE",
"287 376 OFFCURVE",
"267 376 CURVE SMOOTH",
"257 376 LINE",
"257 616 LINE"
);
},
{
closed = 1;
nodes = (
"397 329 OFFCURVE",
"448 284 OFFCURVE",
"448 183 CURVE SMOOTH",
"448 89 OFFCURVE",
"409 46 OFFCURVE",
"323 46 CURVE SMOOTH",
"273 46 OFFCURVE",
"257 57 OFFCURVE",
"257 97 CURVE SMOOTH",
"257 329 LINE",
"289 329 LINE"
);
}
);
width = 646;
}
);
leftKerningGroup = I;
unicode = 0042;
},
{
glyphname = C;
lastChange = "2018-10-23 21:24:40 +0000";
layers = (
{
anchors = (
{
name = bottom;
position = "{372, 0}";
},
{
name = topcap;
position = "{372, 714}";
}
);
layerId = master01;
paths = (
{
closed = 1;
nodes = (
"48 128 OFFCURVE",
"175 -9 OFFCURVE",
"359 -9 CURVE SMOOTH",
"430 -9 OFFCURVE",
"488 11 OFFCURVE",
"549 57 CURVE",
"588 0 LINE",
"609 0 LINE",
"609 225 LINE",
"586 225 LINE",
"577 180 OFFCURVE",
"562 141 OFFCURVE",
"540 111 CURVE SMOOTH",
"503 58 OFFCURVE",
"447 30 OFFCURVE",
"378 30 CURVE SMOOTH",
"237 30 OFFCURVE",
"157 141 OFFCURVE",
"157 333 CURVE SMOOTH",
"157 525 OFFCURVE",
"236 633 OFFCURVE",
"378 633 CURVE SMOOTH",
"454 633 OFFCURVE",
"507 607 OFFCURVE",
"548 542 CURVE SMOOTH",
"561 520 OFFCURVE",
"573 495 OFFCURVE",
"583 464 CURVE",
"609 464 LINE",
"609 662 LINE",
"593 662 LINE",
"551 618 LINE",
"548 618 LINE",
"496 652 OFFCURVE",
"430 671 OFFCURVE",
"363 671 CURVE SMOOTH",
"179 671 OFFCURVE",
"48 528 OFFCURVE",
"48 327 CURVE SMOOTH"
);
}
);
width = 666;
},
{
layerId = "FA6D65B5-4623-4FAC-A199-3F662257AC29";
paths = (
{
closed = 1;
nodes = (
"39 127 OFFCURVE",
"175 -9 OFFCURVE",
"375 -9 CURVE SMOOTH",
"451 -9 OFFCURVE",
"513 11 OFFCURVE",
"581 57 CURVE",
"616 0 LINE",
"648 0 LINE",
"648 238 LINE",
"609 238 LINE",
"601 196 OFFCURVE",
"586 160 OFFCURVE",
"566 131 CURVE SMOOTH",
"527 75 OFFCURVE",
"469 43 OFFCURVE",
"398 43 CURVE SMOOTH",
"270 43 OFFCURVE",
"201 145 OFFCURVE",
"201 335 CURVE SMOOTH",
"201 524 OFFCURVE",
"269 620 OFFCURVE",
"402 620 CURVE SMOOTH",
"474 620 OFFCURVE",
"528 592 OFFCURVE",
"568 530 CURVE SMOOTH",
"583 508 OFFCURVE",
"595 482 OFFCURVE",
"606 452 CURVE",
"648 452 LINE",
"648 662 LINE",
"622 662 LINE",
"584 618 LINE",
"581 618 LINE",
"524 652 OFFCURVE",
"450 671 OFFCURVE",
"378 671 CURVE SMOOTH",
"179 671 OFFCURVE",
"39 528 OFFCURVE",
"39 327 CURVE SMOOTH"
);
}
);
width = 699;
}
);
leftKerningGroup = C;
rightKerningGroup = C;
unicode = 0043;
},
{
glyphname = D;
lastChange = "2018-10-23 21:24:40 +0000";
layers = (
{
anchors = (
{
name = bottom;
position = "{353, 0}";
},
{
name = topcap;
position = "{353, 714}";
}
);
layerId = master01;
paths = (
{
closed = 1;
nodes = (
"416 0 OFFCURVE",
"470 15 OFFCURVE",
"520 51 CURVE SMOOTH",
"600 109 OFFCURVE",
"648 212 OFFCURVE",
"648 329 CURVE SMOOTH",
"648 442 OFFCURVE",
"604 540 OFFCURVE",
"526 599 CURVE SMOOTH",
"466 645 OFFCURVE",
"393 662 OFFCURVE",
"256 662 CURVE SMOOTH",
"42 662 LINE",
"42 642 LINE",
"115 626 LINE",
"115 36 LINE",
"42 20 LINE",
"42 0 LINE",
"330 0 LINE"
);
},
{
closed = 1;
nodes = (
"227 33 OFFCURVE",
"206 45 OFFCURVE",
"206 84 CURVE SMOOTH",
"206 628 LINE",
"273 628 LINE SMOOTH",
"370 628 OFFCURVE",
"423 611 OFFCURVE",
"467 565 CURVE SMOOTH",
"515 514 OFFCURVE",
"540 437 OFFCURVE",
"540 340 CURVE SMOOTH",
"540 243 OFFCURVE",
"515 159 OFFCURVE",
"470 102 CURVE SMOOTH",
"428 52 OFFCURVE",
"379 33 OFFCURVE",
"295 33 CURVE SMOOTH"
);
}
);
width = 697;
},
{
layerId = "FA6D65B5-4623-4FAC-A199-3F662257AC29";
paths = (
{
closed = 1;
nodes = (
"452 0 OFFCURVE",
"514 15 OFFCURVE",
"571 51 CURVE SMOOTH",
"659 107 OFFCURVE",
"716 212 OFFCURVE",
"716 332 CURVE SMOOTH",
"716 449 OFFCURVE",
"662 544 OFFCURVE",
"578 599 CURVE SMOOTH",
"508 646 OFFCURVE",
"420 662 OFFCURVE",
"270 662 CURVE SMOOTH",
"35 662 LINE",
"35 630 LINE",
"109 614 LINE",
"109 49 LINE",
"35 33 LINE",
"35 0 LINE",
"354 0 LINE"
);
},
{
closed = 1;
nodes = (
"282 46 OFFCURVE",
"257 62 OFFCURVE",
"257 98 CURVE SMOOTH",
"257 614 LINE",
"335 614 LINE SMOOTH",
"408 614 OFFCURVE",
"460 594 OFFCURVE",
"495 552 CURVE SMOOTH",
"533 506 OFFCURVE",
"550 437 OFFCURVE",
"550 332 CURVE SMOOTH",
"550 225 OFFCURVE",
"533 150 OFFCURVE",
"495 104 CURVE SMOOTH",
"461 65 OFFCURVE",
"412 46 OFFCURVE",
"345 46 CURVE SMOOTH"
);
}
);
width = 755;
}
);
leftKerningGroup = I;
rightKerningGroup = D;
unicode = 0044;
},
{
glyphname = Dcroat;
lastChange = "2018-10-23 21:24:40 +0000";
layers = (
{
layerId = master01;
paths = (
{
closed = 1;
nodes = (
"417 0 OFFCURVE",
"471 15 OFFCURVE",
"521 51 CURVE SMOOTH",
"601 109 OFFCURVE",
"648 212 OFFCURVE",
"648 329 CURVE SMOOTH",
"648 442 OFFCURVE",
"605 540 OFFCURVE",
"527 599 CURVE SMOOTH",
"467 645 OFFCURVE",
"394 662 OFFCURVE",
"257 662 CURVE SMOOTH",
"43 662 LINE",
"43 642 LINE",
"116 626 LINE",
"116 369 LINE",
"48 369 LINE",
"48 313 LINE",
"116 313 LINE",
"116 36 LINE",
"43 20 LINE",
"43 0 LINE",
"331 0 LINE SMOOTH"
);
},
{
closed = 1;
nodes = (
"228 33 OFFCURVE",
"206 45 OFFCURVE",
"206 84 CURVE SMOOTH",
"206 313 LINE",
"312 313 LINE",
"312 369 LINE",
"206 369 LINE",
"206 628 LINE",
"274 628 LINE SMOOTH",
"371 628 OFFCURVE",
"424 611 OFFCURVE",
"468 565 CURVE SMOOTH",
"516 514 OFFCURVE",
"541 437 OFFCURVE",
"541 340 CURVE SMOOTH",
"541 243 OFFCURVE",
"516 159 OFFCURVE",
"470 102 CURVE SMOOTH",
"429 52 OFFCURVE",
"380 33 OFFCURVE",
"296 33 CURVE SMOOTH"
);
}
);
width = 697;
},
{
layerId = "FA6D65B5-4623-4FAC-A199-3F662257AC29";
paths = (
{
closed = 1;
nodes = (
"452 0 OFFCURVE",
"514 15 OFFCURVE",
"571 51 CURVE SMOOTH",
"659 107 OFFCURVE",
"716 212 OFFCURVE",
"716 332 CURVE SMOOTH",
"716 449 OFFCURVE",
"662 544 OFFCURVE",
"578 599 CURVE SMOOTH",
"508 646 OFFCURVE",
"420 662 OFFCURVE",
"270 662 CURVE SMOOTH",
"35 662 LINE",
"35 630 LINE",
"109 614 LINE",
"109 378 LINE",
"45 378 LINE",
"45 304 LINE",
"109 304 LINE",
"109 49 LINE",
"35 33 LINE",
"35 0 LINE",
"354 0 LINE SMOOTH"
);
},
{
closed = 1;
nodes = (
"282 46 OFFCURVE",
"257 62 OFFCURVE",
"257 98 CURVE SMOOTH",
"257 304 LINE",
"378 304 LINE",
"378 378 LINE",
"257 378 LINE",
"257 614 LINE",
"335 614 LINE SMOOTH",
"408 614 OFFCURVE",
"460 594 OFFCURVE",
"495 552 CURVE SMOOTH",
"533 506 OFFCURVE",
"550 437 OFFCURVE",
"550 332 CURVE SMOOTH",
"550 225 OFFCURVE",
"533 150 OFFCURVE",
"495 104 CURVE SMOOTH",
"461 65 OFFCURVE",
"412 46 OFFCURVE",
"345 46 CURVE SMOOTH"
);
}
);
width = 755;
}
);
leftKerningGroup = I;
rightKerningGroup = D;
unicode = 0110;
},
{
glyphname = E;
lastChange = "2018-10-23 21:24:40 +0000";
layers = (
{
anchors = (
{
name = bottom;
position = "{308, 0}";
},
{
name = topcap;
position = "{306, 714}";
}
);
layerId = master01;
paths = (
{
closed = 1;
nodes = (
"359 332 LINE",
"376 298 OFFCURVE",
"386 263 OFFCURVE",
"391 229 CURVE",
"412 229 LINE",
"412 470 LINE",
"391 470 LINE",
"385 435 OFFCURVE",
"376 401 OFFCURVE",
"359 366 CURVE",
"194 366 LINE",
"194 332 LINE"
);
},
{
closed = 1;
nodes = (
"481 579 OFFCURVE",
"501 522 OFFCURVE",
"514 473 CURVE",
"535 473 LINE",
"520 662 LINE",
"42 662 LINE",
"42 642 LINE",
"115 626 LINE",
"115 36 LINE",
"42 20 LINE",
"42 0 LINE",
"517 0 LINE",
"549 201 LINE",
"520 201 LINE",
"501 145 OFFCURVE",
"482 90 OFFCURVE",
"448 34 CURVE",
"206 34 LINE",
"206 628 LINE",
"452 628 LINE"
);
}
);
width = 595;
},
{
layerId = "FA6D65B5-4623-4FAC-A199-3F662257AC29";
paths = (
{
closed = 1;
nodes = (
"366 327 LINE",
"384 295 OFFCURVE",
"396 261 OFFCURVE",
"402 230 CURVE",
"439 230 LINE",
"439 470 LINE",
"402 470 LINE",
"396 439 OFFCURVE",
"384 405 OFFCURVE",
"366 373 CURVE",
"243 373 LINE",
"243 327 LINE"
);
},
{
closed = 1;
nodes = (
"506 568 OFFCURVE",
"527 518 OFFCURVE",
"543 473 CURVE",
"579 473 LINE",
"562 662 LINE",
"36 662 LINE",
"36 630 LINE",
"109 614 LINE",
"109 48 LINE",
"36 32 LINE",
"36 0 LINE",
"558 0 LINE",
"594 201 LINE",
"550 201 LINE",
"529 151 OFFCURVE",
"508 100 OFFCURVE",
"471 49 CURVE",
"257 49 LINE",
"257 613 LINE",
"476 613 LINE"
);
}
);
width = 629;
}
);
leftKerningGroup = I;
rightKerningGroup = E;
unicode = 0045;
},
{
glyphname = Eng;
lastChange = "2018-10-23 21:24:40 +0000";
layers = (
{
layerId = master01;
paths = (
{
closed = 1;
nodes = (
"511 -41 LINE SMOOTH",
"511 -134 OFFCURVE",
"480 -179 OFFCURVE",
"440 -179 CURVE SMOOTH",
"418 -179 OFFCURVE",
"400 -165 OFFCURVE",
"388 -132 CURVE SMOOTH",
"378 -107 OFFCURVE",
"365 -93 OFFCURVE",
"341 -93 CURVE SMOOTH",
"310 -93 OFFCURVE",
"290 -114 OFFCURVE",
"290 -149 CURVE SMOOTH",
"290 -195 OFFCURVE",
"329 -224 OFFCURVE",
"393 -224 CURVE SMOOTH",
"464 -224 OFFCURVE",
"531 -185 OFFCURVE",
"572 -113 CURVE SMOOTH",
"597 -67 OFFCURVE",
"601 -35 OFFCURVE",
"601 133 CURVE",
"511 133 LINE"
);
},
{
closed = 1;
nodes = (
"39 20 LINE",
"39 0 LINE",
"227 0 LINE",
"227 20 LINE",
"151 36 LINE",
"151 662 LINE",
"39 662 LINE",
"39 642 LINE",
"116 626 LINE",
"116 36 LINE"
);
},
{
closed = 1;
nodes = (
"679 642 LINE",
"679 662 LINE",
"490 662 LINE",
"490 642 LINE",
"567 626 LINE",
"567 103 LINE",
"601 103 LINE",
"601 626 LINE"
);
},
{
closed = 1;
nodes = (
"585 151 LINE",
"212 662 LINE",
"131 662 LINE",
"126 607 LINE",
"574 -17 LINE"
);
}
);
width = 711;
},
{
layerId = "FA6D65B5-4623-4FAC-A199-3F662257AC29";
paths = (
{
closed = 1;
nodes = (
"504 -37 LINE SMOOTH",
"504 -130 OFFCURVE",
"476 -175 OFFCURVE",
"442 -175 CURVE SMOOTH",
"421 -175 OFFCURVE",
"407 -158 OFFCURVE",
"394 -120 CURVE SMOOTH",
"383 -89 OFFCURVE",
"366 -66 OFFCURVE",
"331 -66 CURVE SMOOTH",
"297 -66 OFFCURVE",
"269 -89 OFFCURVE",
"269 -132 CURVE SMOOTH",
"269 -187 OFFCURVE",
"322 -224 OFFCURVE",
"415 -224 CURVE SMOOTH",
"495 -224 OFFCURVE",
"577 -185 OFFCURVE",
"623 -113 CURVE",
"648 -67 OFFCURVE",
"652 -35 OFFCURVE",
"652 133 CURVE",
"504 133 LINE"
);
},
{
closed = 1;
nodes = (
"34 32 LINE",
"34 0 LINE",
"245 0 LINE",
"245 32 LINE",
"169 48 LINE",
"169 662 LINE",
"34 662 LINE",
"34 630 LINE",
"110 614 LINE",
"110 48 LINE"
);
},
{
closed = 1;
nodes = (
"728 630 LINE",
"728 662 LINE",
"517 662 LINE",
"517 630 LINE",
"593 614 LINE",
"593 120 LINE",
"652 120 LINE",
"652 614 LINE"
);
},
{
closed = 1;
nodes = (
"617 224 LINE",
"267 662 LINE",
"126 662 LINE",
"121 586 LINE",
"593 -9 LINE"
);
}
);
width = 754;
}
);
leftKerningGroup = N;
rightKerningGroup = N;
unicode = 014A;
},
{
glyphname = Eth;
lastChange = "2018-10-23 21:24:40 +0000";
layers = (
{
layerId = master01;
paths = (
{
closed = 1;
nodes = (
"417 0 OFFCURVE",
"471 15 OFFCURVE",
"521 51 CURVE SMOOTH",
"601 109 OFFCURVE",
"648 212 OFFCURVE",
"648 329 CURVE SMOOTH",
"648 442 OFFCURVE",
"605 540 OFFCURVE",
"527 599 CURVE SMOOTH",
"467 645 OFFCURVE",
"394 662 OFFCURVE",
"257 662 CURVE SMOOTH",
"43 662 LINE",
"43 642 LINE",
"116 626 LINE",
"116 369 LINE",
"48 369 LINE",
"48 313 LINE",
"116 313 LINE",
"116 36 LINE",
"43 20 LINE",
"43 0 LINE",
"331 0 LINE SMOOTH"
);
},
{
closed = 1;
nodes = (
"228 33 OFFCURVE",
"206 45 OFFCURVE",
"206 84 CURVE SMOOTH",
"206 313 LINE",
"312 313 LINE",
"312 369 LINE",
"206 369 LINE",
"206 628 LINE",
"274 628 LINE SMOOTH",
"371 628 OFFCURVE",
"424 611 OFFCURVE",
"468 565 CURVE SMOOTH",
"516 514 OFFCURVE",
"541 437 OFFCURVE",
"541 340 CURVE SMOOTH",
"541 243 OFFCURVE",
"516 159 OFFCURVE",
"470 102 CURVE SMOOTH",
"429 52 OFFCURVE",
"380 33 OFFCURVE",
"296 33 CURVE SMOOTH"
);
}
);
width = 697;
},
{
layerId = "FA6D65B5-4623-4FAC-A199-3F662257AC29";
paths = (
{
closed = 1;
nodes = (
"452 0 OFFCURVE",
"514 15 OFFCURVE",
"571 51 CURVE SMOOTH",
"659 107 OFFCURVE",
"716 212 OFFCURVE",
"716 332 CURVE SMOOTH",
"716 449 OFFCURVE",
"662 544 OFFCURVE",
"578 599 CURVE SMOOTH",
"508 646 OFFCURVE",
"420 662 OFFCURVE",
"270 662 CURVE SMOOTH",
"35 662 LINE",
"35 630 LINE",
"109 614 LINE",
"109 378 LINE",
"45 378 LINE",
"45 304 LINE",
"109 304 LINE",
"109 49 LINE",
"35 33 LINE",
"35 0 LINE",
"354 0 LINE SMOOTH"
);
},
{
closed = 1;
nodes = (
"282 46 OFFCURVE",
"257 62 OFFCURVE",
"257 98 CURVE SMOOTH",
"257 304 LINE",
"378 304 LINE",
"378 378 LINE",
"257 378 LINE",
"257 614 LINE",
"335 614 LINE SMOOTH",
"408 614 OFFCURVE",
"460 594 OFFCURVE",
"495 552 CURVE SMOOTH",
"533 506 OFFCURVE",
"550 437 OFFCURVE",
"550 332 CURVE SMOOTH",
"550 225 OFFCURVE",
"533 150 OFFCURVE",
"495 104 CURVE SMOOTH",
"461 65 OFFCURVE",
"412 46 OFFCURVE",
"345 46 CURVE SMOOTH"
);
}
);
width = 755;
}
);
leftKerningGroup = I;
rightKerningGroup = D;
unicode = 00D0;
},
{
glyphname = Euro;
lastChange = "2018-10-23 21:24:40 +0000";
layers = (
{
layerId = master01;
paths = (
{
closed = 1;
nodes = (
"430 -9 OFFCURVE",
"498 43 OFFCURVE",
"498 109 CURVE SMOOTH",
"498 144 OFFCURVE",
"481 163 OFFCURVE",
"451 163 CURVE SMOOTH",
"421 163 OFFCURVE",
"403 143 OFFCURVE",
"395 104 CURVE SMOOTH",
"384 54 OFFCURVE",
"363 27 OFFCURVE",
"327 27 CURVE SMOOTH",
"249 27 OFFCURVE",
"212 126 OFFCURVE",
"212 329 CURVE SMOOTH",
"212 534 OFFCURVE",
"250 636 OFFCURVE",
"331 636 CURVE SMOOTH",
"369 636 OFFCURVE",
"390 616 OFFCURVE",
"399 567 CURVE SMOOTH",
"406 529 OFFCURVE",
"424 508 OFFCURVE",
"452 508 CURVE SMOOTH",
"480 508 OFFCURVE",
"498 528 OFFCURVE",
"498 560 CURVE SMOOTH",
"498 621 OFFCURVE",
"431 671 OFFCURVE",
"347 671 CURVE SMOOTH",
"207 671 OFFCURVE",
"107 526 OFFCURVE",
"107 329 CURVE SMOOTH",
"107 132 OFFCURVE",
"205 -9 OFFCURVE",
"342 -9 CURVE SMOOTH {name = hr00;}"
);
},
{
closed = 1;
nodes = (
"427 400 LINE",
"56 400 LINE",
"47 362 LINE",
"418 362 LINE"
);
},
{
closed = 1;
nodes = (
"409 296 LINE",
"39 296 LINE",
"30 258 LINE",
"401 258 LINE"
);
}
);
width = 550;
},
{
layerId = "FA6D65B5-4623-4FAC-A199-3F662257AC29";
paths = (
{
closed = 1;
nodes = (
"429 -9 OFFCURVE",
"506 50 OFFCURVE",
"506 125 CURVE SMOOTH",
"506 160 OFFCURVE",
"488 178 OFFCURVE",
"458 178 CURVE SMOOTH",
"414 178 OFFCURVE",
"403 139 OFFCURVE",
"398 120 CURVE SMOOTH",
"389 83 OFFCURVE",
"375 42 OFFCURVE",
"332 42 CURVE SMOOTH",
"279 42 OFFCURVE",
"254 107 OFFCURVE",
"254 322 CURVE SMOOTH",
"254 558 OFFCURVE",
"284 619 OFFCURVE",
"341 619 CURVE SMOOTH",
"378 619 OFFCURVE",
"392 594 OFFCURVE",
"402 550 CURVE SMOOTH",
"409 524 OFFCURVE",
"421 492 OFFCURVE",
"459 492 CURVE SMOOTH",
"488 492 OFFCURVE",
"506 511 OFFCURVE",
"506 544 CURVE SMOOTH",
"506 614 OFFCURVE",
"430 671 OFFCURVE",
"340 671 CURVE SMOOTH",
"195 671 OFFCURVE",
"96 526 OFFCURVE",
"96 328 CURVE SMOOTH",
"96 132 OFFCURVE",
"193 -9 OFFCURVE",
"336 -9 CURVE SMOOTH {name = hr00;}"
);
},
{
closed = 1;
nodes = (
"426 409 LINE",
"55 409 LINE",
"46 353 LINE",
"417 353 LINE"
);
},
{
closed = 1;
nodes = (
"409 304 LINE",
"38 304 LINE",
"29 249 LINE",
"400 249 LINE"
);
}
);
width = 553;
}
);
unicode = 20AC;
},
{
glyphname = Euro.tnum;
lastChange = "2018-10-23 21:24:40 +0000";
layers = (
{
layerId = master01;
paths = (
{
closed = 1;
nodes = (
"400 -9 OFFCURVE",
"468 43 OFFCURVE",
"468 109 CURVE SMOOTH",
"468 144 OFFCURVE",
"451 163 OFFCURVE",
"421 163 CURVE SMOOTH",
"391 163 OFFCURVE",
"373 143 OFFCURVE",
"365 104 CURVE SMOOTH",
"354 54 OFFCURVE",
"333 27 OFFCURVE",
"297 27 CURVE SMOOTH",
"219 27 OFFCURVE",
"181 126 OFFCURVE",
"181 329 CURVE SMOOTH",
"181 534 OFFCURVE",
"220 636 OFFCURVE",
"301 636 CURVE SMOOTH",
"339 636 OFFCURVE",
"359 616 OFFCURVE",
"369 567 CURVE SMOOTH",
"376 529 OFFCURVE",
"394 508 OFFCURVE",
"421 508 CURVE SMOOTH",
"450 508 OFFCURVE",
"468 528 OFFCURVE",
"468 560 CURVE SMOOTH",
"468 621 OFFCURVE",
"401 671 OFFCURVE",
"316 671 CURVE SMOOTH",
"177 671 OFFCURVE",
"77 526 OFFCURVE",
"77 329 CURVE SMOOTH",
"77 132 OFFCURVE",
"175 -9 OFFCURVE",
"312 -9 CURVE SMOOTH {name = hr00;}"
);
},
{
closed = 1;
nodes = (
"396 400 LINE",
"26 400 LINE",
"17 362 LINE",
"388 362 LINE"
);
},
{
closed = 1;
nodes = (
"379 296 LINE",
"9 296 LINE",
"0 258 LINE",
"371 258 LINE"
);
}
);
width = 516;
},
{
layerId = "FA6D65B5-4623-4FAC-A199-3F662257AC29";
paths = (
{
closed = 1;
nodes = (
"400 -9 OFFCURVE",
"476 50 OFFCURVE",
"476 125 CURVE SMOOTH",
"476 160 OFFCURVE",
"459 178 OFFCURVE",
"429 178 CURVE SMOOTH",
"384 178 OFFCURVE",
"374 139 OFFCURVE",
"369 120 CURVE SMOOTH",
"359 83 OFFCURVE",
"346 42 OFFCURVE",
"303 42 CURVE SMOOTH",
"249 42 OFFCURVE",
"224 107 OFFCURVE",
"224 322 CURVE SMOOTH",
"224 558 OFFCURVE",
"255 619 OFFCURVE",
"312 619 CURVE SMOOTH",
"349 619 OFFCURVE",
"363 594 OFFCURVE",
"373 550 CURVE SMOOTH",
"379 524 OFFCURVE",
"392 492 OFFCURVE",
"430 492 CURVE SMOOTH",
"458 492 OFFCURVE",
"476 511 OFFCURVE",
"476 544 CURVE SMOOTH",
"476 614 OFFCURVE",
"401 671 OFFCURVE",
"310 671 CURVE SMOOTH",
"166 671 OFFCURVE",
"67 526 OFFCURVE",
"67 328 CURVE SMOOTH",
"67 132 OFFCURVE",
"163 -9 OFFCURVE",
"307 -9 CURVE SMOOTH {name = hr00;}"
);
},
{
closed = 1;
nodes = (
"396 409 LINE",
"26 409 LINE",
"17 353 LINE",
"388 353 LINE"
);
},
{
closed = 1;
nodes = (
"379 304 LINE",
"9 304 LINE",
"0 249 LINE",
"371 249 LINE"
);
}
);
width = 516;
}
);
userData = {
com.typemytype.robofont.mark = (
1,
0.6,
0.6,
1
);
};
},
{
glyphname = F;
lastChange = "2018-10-23 21:24:40 +0000";
layers = (
{
layerId = master01;
paths = (
{
closed = 1;
nodes = (
"481 579 OFFCURVE",
"501 522 OFFCURVE",
"514 473 CURVE",
"535 473 LINE",
"520 662 LINE",
"42 662 LINE",
"42 642 LINE",
"115 626 LINE",
"115 36 LINE",
"42 20 LINE",
"42 0 LINE",
"304 0 LINE",
"304 20 LINE",
"206 36 LINE",
"206 628 LINE",
"452 628 LINE"
);
},
{
closed = 1;
nodes = (
"359 332 LINE",
"376 298 OFFCURVE",
"386 263 OFFCURVE",
"391 229 CURVE",
"412 229 LINE",
"412 470 LINE",
"391 470 LINE",
"385 435 OFFCURVE",
"376 401 OFFCURVE",
"359 366 CURVE",
"194 366 LINE",
"194 332 LINE"
);
}
);
width = 559;
},
{
layerId = "FA6D65B5-4623-4FAC-A199-3F662257AC29";
paths = (
{
closed = 1;
nodes = (
"510 568 OFFCURVE",
"530 518 OFFCURVE",
"544 473 CURVE",
"577 473 LINE",
"562 662 LINE",
"36 662 LINE",
"36 630 LINE",
"109 614 LINE",
"109 48 LINE",
"36 32 LINE",
"36 0 LINE",
"354 0 LINE",
"354 32 LINE",
"256 48 LINE",
"256 613 LINE",
"482 613 LINE"
);
},
{
closed = 1;
nodes = (
"372 328 LINE",
"388 295 OFFCURVE",
"398 262 OFFCURVE",
"404 230 CURVE",
"438 230 LINE",
"438 470 LINE",
"404 470 LINE",
"398 438 OFFCURVE",
"389 406 OFFCURVE",
"372 373 CURVE",
"245 373 LINE",
"245 328 LINE"
);
}
);
width = 588;
}
);
leftKerningGroup = I;
unicode = 0046;
},
{
glyphname = G;
lastChange = "2018-10-23 21:24:40 +0000";
layers = (
{
anchors = (
{
name = bottom;
position = "{367, 0}";
},
{
name = topcap;
position = "{376, 714}";
}
);
layerId = master01;
paths = (
{
closed = 1;
nodes = (
"671 312 LINE",
"671 332 LINE",
"427 332 LINE",
"427 312 LINE",
"504 296 LINE",
"504 128 LINE SMOOTH",
"504 99 OFFCURVE",
"502 92 OFFCURVE",
"497 83 CURVE SMOOTH",
"476 48 OFFCURVE",
"430 31 OFFCURVE",
"374 31 CURVE SMOOTH",
"229 31 OFFCURVE",
"157 128 OFFCURVE",
"157 323 CURVE SMOOTH",
"157 526 OFFCURVE",
"234 632 OFFCURVE",
"382 632 CURVE SMOOTH",
"477 632 OFFCURVE",
"529 589 OFFCURVE",
"584 464 CURVE",
"604 464 LINE",
"604 662 LINE",
"585 662 LINE",
"538 618 LINE",
"535 618 LINE",
"497 652 OFFCURVE",
"437 671 OFFCURVE",
"370 671 CURVE SMOOTH",
"184 671 OFFCURVE",
"47 523 OFFCURVE",
"47 323 CURVE SMOOTH",
"47 129 OFFCURVE",
"176 -9 OFFCURVE",
"359 -9 CURVE SMOOTH",
"448 -9 OFFCURVE",
"547 24 OFFCURVE",
"594 70 CURVE",
"594 296 LINE"
);
}
);
width = 695;
},
{
layerId = "FA6D65B5-4623-4FAC-A199-3F662257AC29";
paths = (
{
closed = 1;
nodes = (
"721 300 LINE",
"721 332 LINE",
"419 332 LINE",
"419 300 LINE",
"496 284 LINE",
"496 138 LINE SMOOTH",
"496 111 OFFCURVE",
"495 101 OFFCURVE",
"487 90 CURVE SMOOTH",
"466 60 OFFCURVE",
"423 41 OFFCURVE",
"373 41 CURVE SMOOTH",
"257 41 OFFCURVE",
"204 126 OFFCURVE",
"204 324 CURVE SMOOTH",
"204 522 OFFCURVE",
"268 619 OFFCURVE",
"399 619 CURVE SMOOTH",
"490 619 OFFCURVE",
"544 574 OFFCURVE",
"604 452 CURVE",
"642 452 LINE",
"642 662 LINE",
"615 662 LINE",
"577 618 LINE",
"574 618 LINE",
"531 651 OFFCURVE",
"460 671 OFFCURVE",
"384 671 CURVE SMOOTH",
"181 671 OFFCURVE",
"39 526 OFFCURVE",
"39 321 CURVE SMOOTH",
"39 123 OFFCURVE",
"172 -9 OFFCURVE",
"373 -9 CURVE SMOOTH",
"473 -9 OFFCURVE",
"590 25 OFFCURVE",
"644 70 CURVE",
"644 284 LINE"
);
}
);
width = 735;
}
);
leftKerningGroup = G;
rightKerningGroup = G;
unicode = 0047;
},
{
glyphname = H;
lastChange = "2018-10-23 21:24:40 +0000";
layers = (
{
anchors = (
{
name = bottom;
position = "{372, 0}";
},
{
name = topcap;
position = "{372, 714}";
}
);
layerId = master01;
paths = (
{
closed = 1;
nodes = (
"39 20 LINE",
"39 0 LINE",
"283 0 LINE",
"283 20 LINE",
"206 36 LINE",
"206 626 LINE",
"283 642 LINE",
"283 662 LINE",
"39 662 LINE",
"39 642 LINE",
"116 626 LINE",
"116 36 LINE"
);
},
{
closed = 1;
nodes = (
"454 20 LINE",
"454 0 LINE",
"698 0 LINE",
"698 18 LINE",
"622 36 LINE",
"622 626 LINE",
"698 641 LINE",
"698 662 LINE",
"454 662 LINE",
"454 642 LINE",
"531 626 LINE",
"531 36 LINE"
);
},
{
closed = 1;
nodes = (
"568 331 LINE",
"568 366 LINE",
"172 366 LINE",
"172 331 LINE"
);
}
);
width = 737;
},
{
layerId = "FA6D65B5-4623-4FAC-A199-3F662257AC29";
paths = (
{
closed = 1;
nodes = (
"36 32 LINE",
"36 0 LINE",
"329 0 LINE",
"329 32 LINE",
"257 50 LINE",
"257 613 LINE",
"329 630 LINE",
"329 662 LINE",
"36 662 LINE",
"36 630 LINE",
"109 613 LINE",
"109 50 LINE"
);
},
{
closed = 1;
nodes = (
"464 32 LINE",
"464 0 LINE",
"758 0 LINE",
"758 32 LINE",
"685 50 LINE",
"685 613 LINE",
"758 630 LINE",
"758 662 LINE",
"464 662 LINE",
"464 630 LINE",
"538 613 LINE",
"538 50 LINE"
);
},
{
closed = 1;
nodes = (
"624 325 LINE",
"624 374 LINE",
"173 374 LINE",
"173 325 LINE"
);
}
);
width = 794;
}
);
leftKerningGroup = I;
rightKerningGroup = I;
unicode = 0048;
},
{
glyphname = Hbar;
lastChange = "2018-10-23 21:24:40 +0000";
layers = (
{
layerId = master01;
paths = (
{
closed = 1;
nodes = (
"39 20 LINE",
"39 0 LINE",
"283 0 LINE",
"283 20 LINE",
"206 36 LINE",
"206 331 LINE",
"531 331 LINE",
"531 36 LINE",
"454 20 LINE",
"454 0 LINE",
"698 0 LINE",
"698 18 LINE",
"622 36 LINE",
"622 470 LINE",
"699 470 LINE",
"699 526 LINE",
"622 526 LINE",
"622 626 LINE",
"698 641 LINE",
"698 662 LINE",
"454 662 LINE",
"454 642 LINE",
"531 626 LINE",
"531 526 LINE",
"206 526 LINE",
"206 626 LINE",
"283 642 LINE",
"283 662 LINE",
"39 662 LINE",
"39 642 LINE",
"116 626 LINE",
"116 526 LINE",
"47 526 LINE",
"47 470 LINE",
"116 470 LINE",
"116 36 LINE"
);
},
{
closed = 1;
nodes = (
"531 470 LINE",
"531 366 LINE",
"206 366 LINE",
"206 470 LINE"
);
}
);
width = 738;
},
{
layerId = "FA6D65B5-4623-4FAC-A199-3F662257AC29";
paths = (
{
closed = 1;
nodes = (
"37 32 LINE",
"37 0 LINE",
"330 0 LINE",
"330 32 LINE",
"258 50 LINE",
"258 325 LINE",
"538 325 LINE",
"538 50 LINE",
"465 32 LINE",
"465 0 LINE",
"759 0 LINE",
"759 32 LINE",
"686 50 LINE",
"686 462 LINE",
"753 462 LINE",
"753 526 LINE",
"686 526 LINE",
"686 613 LINE",
"759 630 LINE",
"759 662 LINE",
"465 662 LINE",
"465 630 LINE",
"538 613 LINE",
"538 526 LINE",
"258 526 LINE",
"258 613 LINE",
"330 630 LINE",
"330 662 LINE",
"37 662 LINE",
"37 630 LINE",
"110 613 LINE",
"110 526 LINE",
"46 526 LINE",
"46 462 LINE",
"110 462 LINE",
"110 50 LINE"
);
},
{
closed = 1;
nodes = (
"538 462 LINE",
"538 374 LINE",
"258 374 LINE",
"258 462 LINE"
);
}
);
width = 796;
}
);
leftKerningGroup = I;
rightKerningGroup = I;
unicode = 0126;
},
{
glyphname = I;
lastChange = "2018-10-23 21:24:40 +0000";
layers = (
{
anchors = (
{
name = bottom;
position = "{162, 0}";
},
{
name = topcap;
position = "{162, 714}";
}
);
layerId = master01;
paths = (
{
closed = 1;
nodes = (
"39 20 LINE",
"39 0 LINE",
"283 0 LINE",
"283 20 LINE",
"206 36 LINE",
"206 626 LINE",
"283 642 LINE",
"283 662 LINE",
"39 662 LINE",
"39 642 LINE",
"116 626 LINE",
"116 36 LINE"
);
}
);
width = 322;
},
{
layerId = "FA6D65B5-4623-4FAC-A199-3F662257AC29";
paths = (
{
closed = 1;
nodes = (
"36 32 LINE",
"36 0 LINE",
"329 0 LINE",
"329 32 LINE",
"257 50 LINE",
"257 613 LINE",
"329 630 LINE",
"329 662 LINE",
"36 662 LINE",
"36 630 LINE",
"109 613 LINE",
"109 50 LINE"
);
}
);
width = 366;
}
);
leftKerningGroup = I;
rightKerningGroup = I;
unicode = 0049;
},
{
glyphname = J;
lastChange = "2018-10-23 21:24:40 +0000";
layers = (
{
anchors = (
{
name = topcap;
position = "{156, 714}";
}
);
layerId = master01;
paths = (
{
closed = 1;
nodes = (
"277 642 LINE",
"277 662 LINE",
"33 662 LINE",
"33 642 LINE",
"110 626 LINE",
"110 -41 LINE SMOOTH",
"110 -134 OFFCURVE",
"79 -179 OFFCURVE",
"40 -179 CURVE SMOOTH",
"17 -179 OFFCURVE",
"-1 -165 OFFCURVE",
"-13 -132 CURVE SMOOTH",
"-22 -107 OFFCURVE",
"-36 -93 OFFCURVE",
"-60 -93 CURVE SMOOTH",
"-91 -93 OFFCURVE",
"-111 -114 OFFCURVE",
"-111 -149 CURVE SMOOTH",
"-111 -195 OFFCURVE",
"-71 -224 OFFCURVE",
"-8 -224 CURVE SMOOTH",
"63 -224 OFFCURVE",
"131 -185 OFFCURVE",
"171 -113 CURVE SMOOTH",
"196 -67 OFFCURVE",
"200 -35 OFFCURVE",
"200 133 CURVE SMOOTH",
"200 626 LINE"
);
}
);
width = 311;
},
{
layerId = "FA6D65B5-4623-4FAC-A199-3F662257AC29";
paths = (
{
closed = 1;
nodes = (
"323 630 LINE",
"323 662 LINE",
"29 662 LINE",
"29 630 LINE",
"102 613 LINE",
"102 -37 LINE SMOOTH",
"102 -130 OFFCURVE",
"75 -175 OFFCURVE",
"40 -175 CURVE SMOOTH",
"20 -175 OFFCURVE",
"5 -158 OFFCURVE",
"-8 -120 CURVE SMOOTH",
"-19 -89 OFFCURVE",
"-35 -66 OFFCURVE",
"-71 -66 CURVE SMOOTH",
"-105 -66 OFFCURVE",
"-132 -89 OFFCURVE",
"-132 -132 CURVE SMOOTH",
"-132 -187 OFFCURVE",
"-80 -224 OFFCURVE",
"13 -224 CURVE SMOOTH",
"94 -224 OFFCURVE",
"175 -185 OFFCURVE",
"221 -113 CURVE",
"246 -67 OFFCURVE",
"250 -35 OFFCURVE",
"250 133 CURVE SMOOTH",
"250 613 LINE"
);
}
);
width = 352;
}
);
leftKerningGroup = J;
rightKerningGroup = J;
unicode = 004A;
},
{
glyphname = K;
lastChange = "2018-10-23 21:24:40 +0000";
layers = (
{
anchors = (
{
name = bottom;
position = "{341, 0}";
}
);
layerId = master01;
paths = (
{
closed = 1;
nodes = (
"283 0 LINE",
"283 20 LINE",
"206 36 LINE",
"206 262 LINE",
"262 326 LINE",
"507 0 LINE",
"694 0 LINE",
"694 20 LINE",
"599 36 LINE",
"323 395 LINE",
"493 589 LINE SMOOTH",
"520 621 OFFCURVE",
"539 629 OFFCURVE",
"618 642 CURVE",
"618 662 LINE",
"391 662 LINE",
"391 642 LINE",
"442 639 OFFCURVE",
"464 631 OFFCURVE",
"464 617 CURVE SMOOTH",
"464 610 OFFCURVE",
"459 601 OFFCURVE",
"450 591 CURVE SMOOTH",
"206 318 LINE",
"206 626 LINE",
"283 642 LINE",
"283 662 LINE",
"39 662 LINE",
"39 642 LINE",
"116 626 LINE",
"116 36 LINE",
"39 20 LINE",
"39 0 LINE"
);
}
);
width = 673;
},
{
layerId = "FA6D65B5-4623-4FAC-A199-3F662257AC29";
paths = (
{
closed = 1;
nodes = (
"329 0 LINE",
"329 32 LINE",
"257 50 LINE",
"257 282 LINE",
"276 302 LINE",
"488 0 LINE",
"717 0 LINE",
"717 32 LINE",
"639 48 LINE",
"378 412 LINE",
"529 577 LINE SMOOTH",
"557 608 OFFCURVE",
"575 617 OFFCURVE",
"656 630 CURVE",
"656 662 LINE",
"409 662 LINE",
"409 631 LINE",
"453 630 OFFCURVE",
"476 623 OFFCURVE",
"476 606 CURVE SMOOTH",
"476 599 OFFCURVE",
"473 589 OFFCURVE",
"464 580 CURVE SMOOTH",
"257 358 LINE",
"257 613 LINE",
"329 630 LINE",
"329 662 LINE",
"36 662 LINE",
"36 630 LINE",
"109 613 LINE",
"109 50 LINE",
"36 32 LINE",
"36 0 LINE"
);
}
);
width = 694;
}
);
leftKerningGroup = I;
rightKerningGroup = K;
unicode = 004B;
},
{
glyphname = L;
lastChange = "2018-10-23 21:24:40 +0000";
layers = (
{
anchors = (
{
name = bottom;
position = "{297, 0}";
},
{
name = topcap;
position = "{159, 714}";
}
);
layerId = master01;
paths = (
{
closed = 1;
nodes = (
"287 662 LINE",
"42 662 LINE",
"42 642 LINE",
"115 626 LINE",
"115 36 LINE",
"42 20 LINE",
"42 0 LINE",
"517 0 LINE",
"549 206 LINE",
"526 206 LINE",
"507 149 OFFCURVE",
"488 91 OFFCURVE",
"454 34 CURVE",
"206 34 LINE",
"206 626 LINE",
"287 642 LINE"
);
}
);
width = 564;
},
{
layerId = "FA6D65B5-4623-4FAC-A199-3F662257AC29";
paths = (
{
closed = 1;
nodes = (
"338 662 LINE",
"36 662 LINE",
"36 630 LINE",
"109 614 LINE",
"109 48 LINE",
"36 32 LINE",
"36 0 LINE",
"558 0 LINE",
"594 201 LINE",
"550 201 LINE",
"529 151 OFFCURVE",
"508 100 OFFCURVE",
"471 49 CURVE",
"257 49 LINE",
"257 613 LINE",
"338 630 LINE"
);
}
);
width = 601;
}
);
leftKerningGroup = I;
rightKerningGroup = L;
unicode = 004C;
},
{
glyphname = Lslash;
lastChange = "2018-10-23 21:24:40 +0000";
layers = (
{
components = (
{
name = L;
transform = "{1, 0, 0, 1, 1, 0}";
}
);
layerId = master01;
paths = (
{
closed = 1;
nodes = (
"288 446 LINE",
"51 319 LINE",
"51 263 LINE",
"288 390 LINE"
);
}
);
width = 565;
},
{
components = (
{
name = L;
transform = "{1, 0, 0, 1, 1, 0}";
}
);
layerId = "FA6D65B5-4623-4FAC-A199-3F662257AC29";
paths = (
{
closed = 1;
nodes = (
"321 462 LINE",
"52 319 LINE",
"52 237 LINE",
"321 380 LINE"
);
}
);
width = 602;
}
);
leftKerningGroup = I;
rightKerningGroup = L;
unicode = 0141;
},
{
glyphname = M;
lastChange = "2018-10-23 21:24:40 +0000";
layers = (
{
layerId = master01;
paths = (
{
closed = 1;
nodes = (
"39 20 LINE",
"39 0 LINE",
"227 0 LINE",
"227 20 LINE",
"151 36 LINE",
"151 568 LINE",
"154 568 LINE",
"394 -9 LINE",
"417 -9 LINE",
"661 564 LINE",
"665 564 LINE",
"665 36 LINE",
"587 20 LINE",
"587 0 LINE",
"832 0 LINE",
"832 20 LINE",
"755 36 LINE",
"755 626 LINE",
"832 642 LINE",
"832 662 LINE",
"652 662 LINE",
"438 152 LINE",
"433 152 LINE",
"219 662 LINE",
"39 662 LINE",
"39 642 LINE",
"116 626 LINE",
"116 36 LINE"
);
}
);
width = 870;
},
{
layerId = "FA6D65B5-4623-4FAC-A199-3F662257AC29";
paths = (
{
closed = 1;
nodes = (
"34 32 LINE",
"34 0 LINE",
"245 0 LINE",
"245 32 LINE",
"169 48 LINE",
"169 534 LINE",
"173 534 LINE",
"406 -9 LINE",
"447 -9 LINE",
"663 511 LINE",
"667 511 LINE",
"667 50 LINE",
"593 32 LINE",
"593 0 LINE",
"887 0 LINE",
"887 32 LINE",
"814 50 LINE",
"814 613 LINE",
"887 630 LINE",
"887 662 LINE",
"666 662 LINE",
"479 218 LINE",
"474 218 LINE",
"295 662 LINE",
"34 662 LINE",
"34 630 LINE",
"110 614 LINE",
"110 48 LINE"
);
}
);
width = 923;
}
);
leftKerningGroup = N;
rightKerningGroup = I;
unicode = 004D;
},
{
glyphname = N;
lastChange = "2018-10-23 21:24:40 +0000";
layers = (
{
anchors = (
{
name = bottom;
position = "{348, 0}";
},
{
name = topcap;
position = "{390, 714}";
}
);
layerId = master01;
paths = (
{
closed = 1;
nodes = (
"679 642 LINE",
"679 662 LINE",
"490 662 LINE",
"490 642 LINE",
"567 626 LINE",
"567 175 LINE",
"212 662 LINE",
"39 662 LINE",
"39 642 LINE",
"116 626 LINE",
"116 36 LINE",
"39 20 LINE",
"39 0 LINE",
"227 0 LINE",
"227 20 LINE",
"151 36 LINE",
"151 574 LINE",
"574 -17 LINE",
"601 -17 LINE",
"601 626 LINE"
);
}
);
width = 712;
},
{
layerId = "FA6D65B5-4623-4FAC-A199-3F662257AC29";
paths = (
{
closed = 1;
nodes = (
"728 630 LINE",
"728 662 LINE",
"517 662 LINE",
"517 630 LINE",
"593 614 LINE",
"593 254 LINE",
"267 662 LINE",
"34 662 LINE",
"34 630 LINE",
"110 614 LINE",
"110 48 LINE",
"34 32 LINE",
"34 0 LINE",
"245 0 LINE",
"245 32 LINE",
"169 48 LINE",
"169 525 LINE",
"593 -9 LINE",
"652 -9 LINE",
"652 614 LINE"
);
}
);
width = 755;
}
);
leftKerningGroup = N;
rightKerningGroup = N;
unicode = 004E;
},
{
glyphname = O;
lastChange = "2018-10-23 21:24:40 +0000";
layers = (
{
anchors = (
{
name = bottom;
position = "{360, 0}";
},
{
name = topcap;
position = "{360, 714}";
}
);
layerId = master01;
paths = (
{
closed = 1;
nodes = (
"181 671 OFFCURVE",
"47 525 OFFCURVE",
"47 331 CURVE SMOOTH",
"47 138 OFFCURVE",
"181 -9 OFFCURVE",
"359 -9 CURVE SMOOTH",
"538 -9 OFFCURVE",
"672 138 OFFCURVE",
"672 331 CURVE SMOOTH",
"672 525 OFFCURVE",
"538 671 OFFCURVE",
"359 671 CURVE SMOOTH"
);
},
{
closed = 1;
nodes = (
"156 520 OFFCURVE",
"232 632 OFFCURVE",
"360 632 CURVE SMOOTH",
"488 632 OFFCURVE",
"563 521 OFFCURVE",
"563 334 CURVE SMOOTH",
"563 144 OFFCURVE",
"487 30 OFFCURVE",
"359 30 CURVE SMOOTH",
"232 30 OFFCURVE",
"156 144 OFFCURVE",
"156 332 CURVE SMOOTH"
);
}
);
width = 719;
},
{
layerId = "FA6D65B5-4623-4FAC-A199-3F662257AC29";
paths = (
{
closed = 1;
nodes = (
"158 671 OFFCURVE",
"39 518 OFFCURVE",
"39 331 CURVE SMOOTH",
"39 144 OFFCURVE",
"158 -9 OFFCURVE",
"373 -9 CURVE SMOOTH",
"589 -9 OFFCURVE",
"709 144 OFFCURVE",
"709 331 CURVE SMOOTH",
"709 518 OFFCURVE",
"589 671 OFFCURVE",
"373 671 CURVE SMOOTH"
);
},
{
closed = 1;
nodes = (
"208 450 OFFCURVE",
"235 619 OFFCURVE",
"373 619 CURVE SMOOTH",
"514 619 OFFCURVE",
"539 450 OFFCURVE",
"539 331 CURVE SMOOTH",
"539 212 OFFCURVE",
"513 41 OFFCURVE",
"373 41 CURVE SMOOTH",
"235 41 OFFCURVE",
"208 212 OFFCURVE",
"208 331 CURVE SMOOTH"
);
}
);
width = 747;
}
);
leftKerningGroup = O;
rightKerningGroup = O;
unicode = 004F;
},
{
glyphname = OE;
lastChange = "2018-10-23 21:24:40 +0000";
layers = (
{
components = (
{
name = E;
transform = "{1, 0, 0, 1, 390, 0}";
}
);
layerId = master01;
paths = (
{
closed = 1;
nodes = (
"477 52 OFFCURVE",
"422 30 OFFCURVE",
"364 30 CURVE SMOOTH",
"232 30 OFFCURVE",
"156 140 OFFCURVE",
"156 332 CURVE SMOOTH",
"156 523 OFFCURVE",
"231 632 OFFCURVE",
"365 632 CURVE SMOOTH",
"434 632 OFFCURVE",
"494 602 OFFCURVE",
"526 550 CURVE",
"550 630 LINE",
"501 654 OFFCURVE",
"430 671 OFFCURVE",
"367 671 CURVE SMOOTH",
"181 671 OFFCURVE",
"47 529 OFFCURVE",
"47 331 CURVE SMOOTH",
"47 133 OFFCURVE",
"181 -9 OFFCURVE",
"367 -9 CURVE SMOOTH",
"428 -9 OFFCURVE",
"497 5 OFFCURVE",
"544 28 CURVE",
"511 88 LINE"
);
}
);
width = 986;
},
{
components = (
{
name = E;
transform = "{1, 0, 0, 1, 379, 0}";
}
);
layerId = "FA6D65B5-4623-4FAC-A199-3F662257AC29";
paths = (
{
closed = 1;
nodes = (
"473 66 OFFCURVE",
"433 41 OFFCURVE",
"373 41 CURVE SMOOTH",
"235 41 OFFCURVE",
"208 212 OFFCURVE",
"208 331 CURVE SMOOTH",
"208 450 OFFCURVE",
"235 619 OFFCURVE",
"373 619 CURVE SMOOTH",
"439 619 OFFCURVE",
"480 589 OFFCURVE",
"504 548 CURVE",
"576 611 LINE",
"523 649 OFFCURVE",
"455 671 OFFCURVE",
"373 671 CURVE SMOOTH",
"158 671 OFFCURVE",
"39 518 OFFCURVE",
"39 331 CURVE SMOOTH",
"39 144 OFFCURVE",
"158 -9 OFFCURVE",
"373 -9 CURVE SMOOTH",
"452 -9 OFFCURVE",
"518 12 OFFCURVE",
"570 47 CURVE",
"498 101 LINE"
);
}
);
width = 1008;
}
);
leftKerningGroup = O;
rightKerningGroup = E;
unicode = 0152;
},
{
glyphname = Oslash;
lastChange = "2018-10-23 21:24:40 +0000";
layers = (
{
layerId = master01;
paths = (
{
closed = 1;
nodes = (
"538 -9 OFFCURVE",
"673 138 OFFCURVE",
"673 331 CURVE SMOOTH",
"673 426 OFFCURVE",
"640 509 OFFCURVE",
"586 569 CURVE",
"666 662 LINE",
"617 662 LINE",
"560 595 LINE",
"507 642 OFFCURVE",
"438 671 OFFCURVE",
"360 671 CURVE SMOOTH",
"182 671 OFFCURVE",
"48 525 OFFCURVE",
"48 331 CURVE SMOOTH",
"48 238 OFFCURVE",
"79 156 OFFCURVE",
"131 95 CURVE",
"49 0 LINE",
"96 0 LINE",
"157 70 LINE",
"210 21 OFFCURVE",
"280 -9 OFFCURVE",
"360 -9 CURVE SMOOTH"
);
},
{
closed = 1;
nodes = (
"166 206 OFFCURVE",
"157 264 OFFCURVE",
"157 332 CURVE SMOOTH",
"157 520 OFFCURVE",
"233 632 OFFCURVE",
"361 632 CURVE SMOOTH",
"428 632 OFFCURVE",
"481 601 OFFCURVE",
"516 544 CURVE",
"185 159 LINE"
);
},
{
closed = 1;
nodes = (
"292 30 OFFCURVE",
"237 64 OFFCURVE",
"202 124 CURVE",
"534 509 LINE",
"554 462 OFFCURVE",
"564 403 OFFCURVE",
"564 334 CURVE SMOOTH",
"564 144 OFFCURVE",
"488 30 OFFCURVE",
"360 30 CURVE SMOOTH"
);
}
);
width = 720;
},
{
layerId = "FA6D65B5-4623-4FAC-A199-3F662257AC29";
paths = (
{
closed = 1;
nodes = (
"588 -9 OFFCURVE",
"708 144 OFFCURVE",
"708 331 CURVE SMOOTH",
"708 427 OFFCURVE",
"676 513 OFFCURVE",
"617 574 CURVE",
"692 662 LINE",
"625 662 LINE",
"579 608 LINE",
"525 647 OFFCURVE",
"456 671 OFFCURVE",
"372 671 CURVE SMOOTH",
"157 671 OFFCURVE",
"38 518 OFFCURVE",
"38 331 CURVE SMOOTH",
"38 235 OFFCURVE",
"70 147 OFFCURVE",
"130 85 CURVE",
"57 0 LINE",
"123 0 LINE",
"168 52 LINE",
"221 14 OFFCURVE",
"290 -9 OFFCURVE",
"372 -9 CURVE SMOOTH"
);
},
{
closed = 1;
nodes = (
"211 238 OFFCURVE",
"207 288 OFFCURVE",
"207 331 CURVE SMOOTH",
"207 450 OFFCURVE",
"234 619 OFFCURVE",
"372 619 CURVE SMOOTH",
"441 619 OFFCURVE",
"482 579 OFFCURVE",
"507 524 CURVE",
"222 192 LINE"
);
},
{
closed = 1;
nodes = (
"305 41 OFFCURVE",
"264 81 OFFCURVE",
"240 136 CURVE",
"525 467 LINE",
"535 422 OFFCURVE",
"538 373 OFFCURVE",
"538 331 CURVE SMOOTH",
"538 212 OFFCURVE",
"512 41 OFFCURVE",
"372 41 CURVE SMOOTH"
);
}
);
width = 746;
}
);
leftKerningGroup = O;
rightKerningGroup = O;
unicode = 00D8;
},
{
glyphname = Oslashacute;
lastChange = "2018-10-23 21:24:40 +0000";
layers = (
{
components = (
{
name = acute.cap;
transform = "{1, 0, 0, 1, 264, 0}";
}
);
layerId = master01;
paths = (
{
closed = 1;
nodes = (
"538 -9 OFFCURVE",
"673 138 OFFCURVE",
"673 331 CURVE SMOOTH",
"673 426 OFFCURVE",
"640 509 OFFCURVE",
"586 569 CURVE",
"666 662 LINE",
"617 662 LINE",
"560 595 LINE",
"507 642 OFFCURVE",
"438 671 OFFCURVE",
"360 671 CURVE SMOOTH",
"182 671 OFFCURVE",
"48 525 OFFCURVE",
"48 331 CURVE SMOOTH",
"48 238 OFFCURVE",
"79 156 OFFCURVE",
"131 95 CURVE",
"49 0 LINE",
"96 0 LINE",
"157 70 LINE",
"210 21 OFFCURVE",
"280 -9 OFFCURVE",
"360 -9 CURVE SMOOTH"
);
},
{
closed = 1;
nodes = (
"166 206 OFFCURVE",
"157 264 OFFCURVE",
"157 332 CURVE SMOOTH",
"157 520 OFFCURVE",
"233 632 OFFCURVE",
"361 632 CURVE SMOOTH",
"428 632 OFFCURVE",
"481 601 OFFCURVE",
"516 544 CURVE",
"185 159 LINE"
);
},
{
closed = 1;
nodes = (
"292 30 OFFCURVE",
"237 64 OFFCURVE",
"202 124 CURVE",
"534 509 LINE",
"554 462 OFFCURVE",
"564 403 OFFCURVE",
"564 334 CURVE SMOOTH",
"564 144 OFFCURVE",
"488 30 OFFCURVE",
"360 30 CURVE SMOOTH"
);
}
);
width = 720;
},
{
components = (
{
name = acute.cap;
transform = "{1, 0, 0, 1, 272, 0}";
}
);
layerId = "FA6D65B5-4623-4FAC-A199-3F662257AC29";
paths = (
{
closed = 1;
nodes = (
"588 -9 OFFCURVE",
"708 144 OFFCURVE",
"708 331 CURVE SMOOTH",
"708 427 OFFCURVE",
"676 513 OFFCURVE",
"617 574 CURVE",
"692 662 LINE",
"625 662 LINE",
"579 608 LINE",
"525 647 OFFCURVE",
"456 671 OFFCURVE",
"372 671 CURVE SMOOTH",
"157 671 OFFCURVE",
"38 518 OFFCURVE",
"38 331 CURVE SMOOTH",
"38 235 OFFCURVE",
"70 147 OFFCURVE",
"130 85 CURVE",
"57 0 LINE",
"123 0 LINE",
"168 52 LINE",
"221 14 OFFCURVE",
"290 -9 OFFCURVE",
"372 -9 CURVE SMOOTH"
);
},
{
closed = 1;
nodes = (
"211 238 OFFCURVE",
"207 288 OFFCURVE",
"207 331 CURVE SMOOTH",
"207 450 OFFCURVE",
"234 619 OFFCURVE",
"372 619 CURVE SMOOTH",
"441 619 OFFCURVE",
"482 579 OFFCURVE",
"507 524 CURVE",
"222 192 LINE"
);
},
{
closed = 1;
nodes = (
"305 41 OFFCURVE",
"264 81 OFFCURVE",
"240 136 CURVE",
"525 467 LINE",
"535 422 OFFCURVE",
"538 373 OFFCURVE",
"538 331 CURVE SMOOTH",
"538 212 OFFCURVE",
"512 41 OFFCURVE",
"372 41 CURVE SMOOTH"
);
}
);
width = 746;
}
);
leftKerningGroup = O;
rightKerningGroup = O;
unicode = 01FE;
},
{
glyphname = P;
lastChange = "2018-10-23 21:24:40 +0000";
layers = (
{
layerId = master01;
paths = (
{
closed = 1;
nodes = (
"115 626 LINE",
"115 36 LINE",
"42 20 LINE",
"42 0 LINE",
"304 0 LINE",
"304 20 LINE",
"206 36 LINE",
"206 284 LINE",
"297 284 LINE SMOOTH",
"446 284 OFFCURVE",
"539 347 OFFCURVE",
"539 465 CURVE SMOOTH",
"539 593 OFFCURVE",
"445 662 OFFCURVE",
"310 662 CURVE SMOOTH",
"42 662 LINE",
"42 642 LINE"
);
},
{
closed = 1;
nodes = (
"285 628 LINE SMOOTH",
"320 628 OFFCURVE",
"342 625 OFFCURVE",
"361 617 CURVE SMOOTH",
"411 598 OFFCURVE",
"440 548 OFFCURVE",
"440 474 CURVE SMOOTH",
"440 433 OFFCURVE",
"432 394 OFFCURVE",
"406 364 CURVE SMOOTH",
"381 335 OFFCURVE",
"342 317 OFFCURVE",
"270 317 CURVE SMOOTH",
"206 317 LINE",
"206 628 LINE"
);
}
);
width = 570;
},
{
layerId = "FA6D65B5-4623-4FAC-A199-3F662257AC29";
paths = (
{
closed = 1;
nodes = (
"109 612 LINE",
"109 51 LINE",
"36 32 LINE",
"36 0 LINE",
"365 0 LINE",
"365 32 LINE",
"257 51 LINE",
"257 275 LINE",
"309 275 LINE SMOOTH",
"478 275 OFFCURVE",
"575 345 OFFCURVE",
"575 466 CURVE SMOOTH",
"575 587 OFFCURVE",
"477 662 OFFCURVE",
"323 662 CURVE SMOOTH",
"36 662 LINE",
"36 630 LINE"
);
},
{
closed = 1;
nodes = (
"279 616 LINE SMOOTH",
"331 616 OFFCURVE",
"364 606 OFFCURVE",
"385 585 CURVE SMOOTH",
"407 563 OFFCURVE",
"418 526 OFFCURVE",
"418 474 CURVE SMOOTH",
"418 418 OFFCURVE",
"406 382 OFFCURVE",
"379 357 CURVE SMOOTH",
"353 333 OFFCURVE",
"316 322 OFFCURVE",
"263 322 CURVE SMOOTH",
"257 322 LINE",
"257 616 LINE"
);
}
);
width = 597;
}
);
leftKerningGroup = I;
unicode = 0050;
},
{
glyphname = Q;
lastChange = "2018-10-23 21:24:40 +0000";
layers = (
{
layerId = master01;
paths = (
{
closed = 1;
nodes = (
"181 671 OFFCURVE",
"47 525 OFFCURVE",
"47 331 CURVE SMOOTH",
"47 175 OFFCURVE",
"138 44 OFFCURVE",
"272 15 CURVE",
"272 11 LINE",
"213 -11 OFFCURVE",
"177 -49 OFFCURVE",
"177 -90 CURVE SMOOTH",
"177 -119 OFFCURVE",
"194 -138 OFFCURVE",
"220 -138 CURVE SMOOTH",
"245 -138 OFFCURVE",
"264 -120 OFFCURVE",
"264 -95 CURVE SMOOTH",
"264 -73 OFFCURVE",
"249 -69 OFFCURVE",
"249 -49 CURVE SMOOTH",
"249 -28 OFFCURVE",
"266 -10 OFFCURVE",
"303 -10 CURVE SMOOTH",
"404 -10 OFFCURVE",
"434 -141 OFFCURVE",
"542 -141 CURVE SMOOTH",
"601 -141 OFFCURVE",
"660 -101 OFFCURVE",
"695 -21 CURVE",
"672 -12 LINE",
"648 -43 OFFCURVE",
"626 -58 OFFCURVE",
"587 -58 CURVE SMOOTH",
"516 -58 OFFCURVE",
"462 -11 OFFCURVE",
"403 3 CURVE",
"403 6 LINE",
"563 19 OFFCURVE",
"672 160 OFFCURVE",
"672 331 CURVE SMOOTH",
"672 525 OFFCURVE",
"538 671 OFFCURVE",
"359 671 CURVE SMOOTH"
);
},
{
closed = 1;
nodes = (
"156 520 OFFCURVE",
"232 632 OFFCURVE",
"360 632 CURVE SMOOTH",
"488 632 OFFCURVE",
"563 521 OFFCURVE",
"563 333 CURVE SMOOTH",
"563 144 OFFCURVE",
"487 30 OFFCURVE",
"359 30 CURVE SMOOTH",
"232 30 OFFCURVE",
"156 144 OFFCURVE",
"156 332 CURVE SMOOTH"
);
}
);
width = 719;
},
{
layerId = "FA6D65B5-4623-4FAC-A199-3F662257AC29";
paths = (
{
closed = 1;
nodes = (
"158 671 OFFCURVE",
"39 518 OFFCURVE",
"39 331 CURVE SMOOTH",
"39 182 OFFCURVE",
"119 55 OFFCURVE",
"258 9 CURVE",
"258 6 LINE",
"198 -18 OFFCURVE",
"161 -55 OFFCURVE",
"161 -101 CURVE SMOOTH",
"161 -139 OFFCURVE",
"185 -168 OFFCURVE",
"221 -168 CURVE SMOOTH",
"256 -168 OFFCURVE",
"283 -142 OFFCURVE",
"283 -108 CURVE SMOOTH",
"283 -83 OFFCURVE",
"267 -75 OFFCURVE",
"267 -55 CURVE SMOOTH",
"267 -32 OFFCURVE",
"288 -19 OFFCURVE",
"317 -19 CURVE SMOOTH",
"427 -19 OFFCURVE",
"448 -167 OFFCURVE",
"561 -167 CURVE SMOOTH",
"624 -167 OFFCURVE",
"689 -120 OFFCURVE",
"727 -29 CURVE",
"701 -12 LINE",
"673 -40 OFFCURVE",
"646 -49 OFFCURVE",
"611 -49 CURVE SMOOTH",
"547 -49 OFFCURVE",
"497 -21 OFFCURVE",
"445 -4 CURVE",
"445 -1 LINE",
"613 30 OFFCURVE",
"709 167 OFFCURVE",
"709 331 CURVE SMOOTH",
"709 518 OFFCURVE",
"589 671 OFFCURVE",
"373 671 CURVE SMOOTH"
);
},
{
closed = 1;
nodes = (
"208 449 OFFCURVE",
"234 619 OFFCURVE",
"374 619 CURVE SMOOTH",
"514 619 OFFCURVE",
"539 449 OFFCURVE",
"539 331 CURVE SMOOTH",
"539 208 OFFCURVE",
"513 33 OFFCURVE",
"373 33 CURVE SMOOTH",
"235 33 OFFCURVE",
"208 208 OFFCURVE",
"208 329 CURVE SMOOTH"
);
}
);
width = 747;
}
);
leftKerningGroup = O;
rightKerningGroup = O;
unicode = 0051;
},
{
glyphname = R;
lastChange = "2018-10-23 21:24:40 +0000";
layers = (
{
anchors = (
{
name = bottom;
position = "{341, 0}";
},
{
name = topcap;
position = "{316, 714}";
}
);
layerId = master01;
paths = (
{
closed = 1;
nodes = (
"304 0 LINE",
"304 20 LINE",
"206 36 LINE",
"206 301 LINE",
"288 301 LINE",
"481 0 LINE",
"667 0 LINE",
"667 20 LINE",
"569 36 LINE",
"386 311 LINE",
"477 333 OFFCURVE",
"531 388 OFFCURVE",
"531 474 CURVE SMOOTH",
"531 596 OFFCURVE",
"436 662 OFFCURVE",
"301 662 CURVE SMOOTH",
"42 662 LINE",
"42 642 LINE",
"115 626 LINE",
"115 36 LINE",
"42 20 LINE",
"42 0 LINE"
);
},
{
closed = 1;
nodes = (
"206 628 LINE",
"276 628 LINE SMOOTH",
"311 628 OFFCURVE",
"333 625 OFFCURVE",
"353 617 CURVE SMOOTH",
"402 598 OFFCURVE",
"432 552 OFFCURVE",
"432 482 CURVE SMOOTH",
"432 445 OFFCURVE",
"422 409 OFFCURVE",
"397 381 CURVE SMOOTH",
"372 353 OFFCURVE",
"334 335 OFFCURVE",
"261 335 CURVE SMOOTH",
"206 335 LINE"
);
}
);
width = 630;
},
{
layerId = "FA6D65B5-4623-4FAC-A199-3F662257AC29";
paths = (
{
closed = 1;
nodes = (
"355 0 LINE",
"355 32 LINE",
"257 51 LINE",
"257 288 LINE",
"292 288 LINE",
"465 0 LINE",
"700 0 LINE",
"700 32 LINE",
"622 48 LINE",
"456 306 LINE",
"532 334 OFFCURVE",
"576 390 OFFCURVE",
"576 474 CURVE SMOOTH",
"576 596 OFFCURVE",
"482 662 OFFCURVE",
"347 662 CURVE SMOOTH",
"36 662 LINE",
"36 630 LINE",
"109 612 LINE",
"109 51 LINE",
"36 32 LINE",
"36 0 LINE"
);
},
{
closed = 1;
nodes = (
"257 616 LINE",
"275 616 LINE SMOOTH",
"310 616 OFFCURVE",
"331 612 OFFCURVE",
"351 605 CURVE SMOOTH",
"395 587 OFFCURVE",
"426 544 OFFCURVE",
"426 482 CURVE SMOOTH",
"426 445 OFFCURVE",
"416 409 OFFCURVE",
"391 381 CURVE SMOOTH",
"367 353 OFFCURVE",
"332 335 OFFCURVE",
"269 335 CURVE SMOOTH",
"257 335 LINE"
);
}
);
width = 669;
}
);
leftKerningGroup = I;
rightKerningGroup = R;
unicode = 0052;
},
{
glyphname = S;
lastChange = "2018-10-23 21:24:40 +0000";
layers = (
{
anchors = (
{
name = bottom;
position = "{261, 0}";
},
{
name = topcap;
position = "{265, 714}";
}
);
layerId = master01;
paths = (
{
closed = 1;
nodes = (
"151 671 OFFCURVE",
"68 593 OFFCURVE",
"68 489 CURVE SMOOTH",
"68 286 OFFCURVE",
"384 305 OFFCURVE",
"384 136 CURVE SMOOTH",
"384 70 OFFCURVE",
"335 29 OFFCURVE",
"256 29 CURVE SMOOTH",
"163 29 OFFCURVE",
"110 87 OFFCURVE",
"76 225 CURVE",
"54 220 LINE",
"70 0 LINE",
"87 0 LINE",
"121 35 LINE",
"170 5 OFFCURVE",
"212 -8 OFFCURVE",
"259 -8 CURVE SMOOTH",
"374 -8 OFFCURVE",
"464 77 OFFCURVE",
"464 187 CURVE SMOOTH",
"464 391 OFFCURVE",
"158 368 OFFCURVE",
"158 536 CURVE SMOOTH",
"158 597 OFFCURVE",
"199 634 OFFCURVE",
"264 634 CURVE SMOOTH",
"342 634 OFFCURVE",
"392 582 OFFCURVE",
"420 473 CURVE",
"442 473 LINE",
"434 662 LINE",
"417 662 LINE",
"390 617 LINE",
"352 654 OFFCURVE",
"311 671 OFFCURVE",
"260 671 CURVE SMOOTH"
);
}
);
width = 515;
},
{
layerId = "FA6D65B5-4623-4FAC-A199-3F662257AC29";
paths = (
{
closed = 1;
nodes = (
"155 671 OFFCURVE",
"60 594 OFFCURVE",
"60 489 CURVE SMOOTH",
"60 256 OFFCURVE",
"396 267 OFFCURVE",
"396 140 CURVE SMOOTH",
"396 79 OFFCURVE",
"350 42 OFFCURVE",
"277 42 CURVE SMOOTH",
"175 42 OFFCURVE",
"119 97 OFFCURVE",
"82 226 CURVE",
"46 220 LINE",
"63 0 LINE",
"89 0 LINE",
"120 35 LINE",
"177 5 OFFCURVE",
"225 -8 OFFCURVE",
"279 -8 CURVE SMOOTH",
"411 -8 OFFCURVE",
"513 77 OFFCURVE",
"513 187 CURVE SMOOTH",
"513 425 OFFCURVE",
"191 409 OFFCURVE",
"191 538 CURVE SMOOTH",
"191 589 OFFCURVE",
"226 620 OFFCURVE",
"286 620 CURVE SMOOTH",
"369 620 OFFCURVE",
"423 570 OFFCURVE",
"452 473 CURVE",
"489 473 LINE",
"481 663 LINE",
"452 663 LINE",
"432 617 LINE",
"389 654 OFFCURVE",
"340 671 OFFCURVE",
"280 671 CURVE SMOOTH"
);
}
);
width = 556;
}
);
leftKerningGroup = S;
rightKerningGroup = S;
unicode = 0053;
},
{
glyphname = Schwa;
lastChange = "2018-10-23 21:24:40 +0000";
layers = (
{
layerId = master01;
paths = (
{
closed = 1;
nodes = (
"44 88 OFFCURVE",
"132 -9 OFFCURVE",
"294 -9 CURVE SMOOTH",
"486 -9 OFFCURVE",
"616 133 OFFCURVE",
"616 341 CURVE SMOOTH",
"616 538 OFFCURVE",
"500 672 OFFCURVE",
"329 672 CURVE SMOOTH",
"207 672 OFFCURVE",
"101 607 OFFCURVE",
"61 510 CURVE SMOOTH",
"54 493 LINE",
"75 480 LINE",
"89 499 LINE SMOOTH",
"139 565 OFFCURVE",
"206 599 OFFCURVE",
"290 599 CURVE SMOOTH",
"431 599 OFFCURVE",
"507 496 OFFCURVE",
"507 310 CURVE SMOOTH",
"507 130 OFFCURVE",
"435 30 OFFCURVE",
"304 30 CURVE SMOOTH",
"205 30 OFFCURVE",
"153 82 OFFCURVE",
"153 180 CURVE SMOOTH",
"153 205 OFFCURVE",
"157 222 OFFCURVE",
"157 233 CURVE",
"517 245 LINE",
"517 279 LINE",
"49 279 LINE",
"40 271 LINE"
);
}
);
width = 664;
},
{
layerId = "FA6D65B5-4623-4FAC-A199-3F662257AC29";
paths = (
{
closed = 1;
nodes = (
"31 91 OFFCURVE",
"127 -9 OFFCURVE",
"300 -9 CURVE SMOOTH",
"505 -9 OFFCURVE",
"642 132 OFFCURVE",
"642 341 CURVE SMOOTH",
"642 538 OFFCURVE",
"519 672 OFFCURVE",
"340 672 CURVE SMOOTH",
"212 672 OFFCURVE",
"96 605 OFFCURVE",
"58 510 CURVE SMOOTH",
"52 493 LINE",
"77 476 LINE",
"93 495 LINE SMOOTH",
"136 547 OFFCURVE",
"213 581 OFFCURVE",
"290 581 CURVE SMOOTH",
"413 581 OFFCURVE",
"474 491 OFFCURVE",
"474 310 CURVE SMOOTH",
"474 135 OFFCURVE",
"417 43 OFFCURVE",
"309 43 CURVE SMOOTH",
"232 43 OFFCURVE",
"190 90 OFFCURVE",
"190 176 CURVE SMOOTH",
"190 191 OFFCURVE",
"192 209 OFFCURVE",
"194 223 CURVE",
"538 235 LINE",
"538 279 LINE",
"38 279 LINE",
"28 271 LINE"
);
}
);
width = 681;
}
);
rightKerningGroup = O;
unicode = 018F;
},
{
glyphname = T;
lastChange = "2018-10-23 21:24:40 +0000";
layers = (
{
anchors = (
{
name = bottom;
position = "{326, -2}";
},
{
name = topcap;
position = "{326, 714}";
}
);
layerId = master01;
paths = (
{
closed = 1;
nodes = (
"464 0 LINE",
"464 20 LINE",
"371 36 LINE",
"371 628 LINE",
"541 628 LINE",
"578 579 OFFCURVE",
"603 522 OFFCURVE",
"620 473 CURVE",
"641 473 LINE",
"609 662 LINE",
"40 662 LINE",
"8 473 LINE",
"28 473 LINE",
"46 522 OFFCURVE",
"71 579 OFFCURVE",
"108 628 CURVE",
"280 628 LINE",
"280 36 LINE",
"186 20 LINE",
"186 0 LINE"
);
}
);
width = 648;
},
{
layerId = "FA6D65B5-4623-4FAC-A199-3F662257AC29";
paths = (
{
closed = 1;
nodes = (
"512 0 LINE",
"512 32 LINE",
"409 51 LINE",
"409 615 LINE",
"550 615 LINE",
"587 568 OFFCURVE",
"609 512 OFFCURVE",
"626 464 CURVE",
"660 464 LINE",
"628 662 LINE",
"41 662 LINE",
"9 464 LINE",
"43 464 LINE",
"60 512 OFFCURVE",
"85 568 OFFCURVE",
"122 615 CURVE",
"262 615 LINE",
"262 51 LINE",
"159 32 LINE",
"159 0 LINE"
);
}
);
width = 669;
}
);
leftKerningGroup = T;
rightKerningGroup = T;
unicode = 0054;
},
{
glyphname = Tbar;
lastChange = "2018-10-23 21:24:40 +0000";
layers = (
{
components = (
{
name = T;
}
);
layerId = master01;
paths = (
{
closed = 1;
nodes = (
"508 380 LINE",
"143 380 LINE",
"143 324 LINE",
"508 324 LINE"
);
}
);
width = 648;
},
{
components = (
{
name = T;
transform = "{1, 0, 0, 1, 1, 0}";
}
);
layerId = "FA6D65B5-4623-4FAC-A199-3F662257AC29";
paths = (
{
closed = 1;
nodes = (
"548 389 LINE",
"126 389 LINE",
"126 316 LINE",
"548 316 LINE"
);
}
);
width = 671;
}
);
leftKerningGroup = T;
rightKerningGroup = T;
unicode = 0166;
},
{
glyphname = Thorn;
lastChange = "2018-10-23 21:24:40 +0000";
layers = (
{
layerId = master01;
paths = (
{
closed = 1;
nodes = (
"304 662 LINE",
"42 662 LINE",
"42 642 LINE",
"115 626 LINE",
"115 36 LINE",
"42 20 LINE",
"42 0 LINE",
"304 0 LINE",
"304 20 LINE",
"206 36 LINE",
"206 144 LINE",
"297 144 LINE SMOOTH",
"446 144 OFFCURVE",
"539 207 OFFCURVE",
"539 325 CURVE SMOOTH",
"539 452 OFFCURVE",
"445 522 OFFCURVE",
"310 522 CURVE SMOOTH",
"206 522 LINE",
"206 626 LINE",
"304 642 LINE"
);
},
{
closed = 1;
nodes = (
"285 488 LINE SMOOTH",
"320 488 OFFCURVE",
"342 485 OFFCURVE",
"361 477 CURVE SMOOTH",
"411 458 OFFCURVE",
"440 408 OFFCURVE",
"440 334 CURVE SMOOTH",
"440 293 OFFCURVE",
"432 254 OFFCURVE",
"406 224 CURVE SMOOTH",
"381 194 OFFCURVE",
"342 177 OFFCURVE",
"270 177 CURVE SMOOTH",
"206 177 LINE",
"206 488 LINE"
);
}
);
width = 572;
},
{
layerId = "FA6D65B5-4623-4FAC-A199-3F662257AC29";
paths = (
{
closed = 1;
nodes = (
"365 662 LINE",
"36 662 LINE",
"36 630 LINE",
"109 611 LINE",
"109 51 LINE",
"36 32 LINE",
"36 0 LINE",
"365 0 LINE",
"365 32 LINE",
"257 51 LINE",
"257 140 LINE",
"309 140 LINE SMOOTH",
"478 140 OFFCURVE",
"575 210 OFFCURVE",
"575 331 CURVE SMOOTH",
"575 452 OFFCURVE",
"477 527 OFFCURVE",
"323 527 CURVE SMOOTH",
"257 527 LINE",
"257 611 LINE",
"365 630 LINE"
);
},
{
closed = 1;
nodes = (
"279 481 LINE SMOOTH",
"331 481 OFFCURVE",
"364 471 OFFCURVE",
"385 450 CURVE SMOOTH",
"407 428 OFFCURVE",
"418 391 OFFCURVE",
"418 339 CURVE SMOOTH",
"418 283 OFFCURVE",
"406 247 OFFCURVE",
"379 222 CURVE SMOOTH",
"353 198 OFFCURVE",
"316 187 OFFCURVE",
"263 187 CURVE SMOOTH",
"257 187 LINE",
"257 481 LINE"
);
}
);
width = 599;
}
);
leftKerningGroup = I;
unicode = 00DE;
},
{
glyphname = U;
lastChange = "2018-10-23 21:24:40 +0000";
layers = (
{
anchors = (
{
name = bottom;
position = "{345, 0}";
},
{
name = topcap;
position = "{366, 714}";
}
);
layerId = master01;
paths = (
{
closed = 1;
nodes = (
"273 642 LINE",
"273 662 LINE",
"28 662 LINE",
"28 642 LINE",
"106 626 LINE",
"106 208 LINE SMOOTH",
"106 137 OFFCURVE",
"117 101 OFFCURVE",
"139 71 CURVE SMOOTH",
"177 21 OFFCURVE",
"249 -9 OFFCURVE",
"338 -9 CURVE SMOOTH",
"425 -9 OFFCURVE",
"493 20 OFFCURVE",
"526 69 CURVE SMOOTH",
"549 102 OFFCURVE",
"559 150 OFFCURVE",
"559 222 CURVE SMOOTH",
"559 626 LINE",
"636 642 LINE",
"636 662 LINE",
"448 662 LINE",
"448 642 LINE",
"525 626 LINE",
"525 258 LINE SMOOTH",
"525 167 OFFCURVE",
"515 114 OFFCURVE",
"492 83 CURVE SMOOTH",
"466 48 OFFCURVE",
"418 30 OFFCURVE",
"356 30 CURVE SMOOTH",
"259 30 OFFCURVE",
"196 86 OFFCURVE",
"196 195 CURVE SMOOTH",
"196 626 LINE"
);
}
);
width = 666;
},
{
layerId = "FA6D65B5-4623-4FAC-A199-3F662257AC29";
paths = (
{
closed = 1;
nodes = (
"321 630 LINE",
"321 662 LINE",
"22 662 LINE",
"22 630 LINE",
"95 614 LINE",
"95 230 LINE SMOOTH",
"95 158 OFFCURVE",
"106 117 OFFCURVE",
"132 83 CURVE SMOOTH",
"178 24 OFFCURVE",
"260 -9 OFFCURVE",
"364 -9 CURVE SMOOTH",
"464 -9 OFFCURVE",
"531 22 OFFCURVE",
"571 83 CURVE SMOOTH",
"597 123 OFFCURVE",
"611 178 OFFCURVE",
"611 243 CURVE SMOOTH",
"611 614 LINE",
"687 630 LINE",
"687 662 LINE",
"476 662 LINE",
"476 630 LINE",
"551 614 LINE",
"551 292 LINE SMOOTH",
"551 193 OFFCURVE",
"540 136 OFFCURVE",
"513 99 CURVE SMOOTH",
"488 64 OFFCURVE",
"447 45 OFFCURVE",
"395 45 CURVE SMOOTH",
"299 45 OFFCURVE",
"245 113 OFFCURVE",
"245 230 CURVE SMOOTH",
"245 614 LINE"
);
}
);
width = 706;
}
);
leftKerningGroup = U;
rightKerningGroup = U;
unicode = 0055;
},
{
glyphname = V;
lastChange = "2018-10-23 21:24:40 +0000";
layers = (
{
layerId = master01;
paths = (
{
closed = 1;
nodes = (
"517 547 LINE SMOOTH",
"538 608 OFFCURVE",
"550 629 OFFCURVE",
"642 642 CURVE",
"642 662 LINE",
"400 662 LINE",
"400 642 LINE",
"465 634 OFFCURVE",
"488 618 OFFCURVE",
"488 589 CURVE SMOOTH",
"488 578 OFFCURVE",
"484 564 OFFCURVE",
"479 549 CURVE SMOOTH",
"343 157 LINE",
"339 157 LINE",
"194 576 LINE SMOOTH",
"188 592 OFFCURVE",
"182 607 OFFCURVE",
"182 616 CURVE SMOOTH",
"182 635 OFFCURVE",
"195 638 OFFCURVE",
"273 642 CURVE",
"273 662 LINE",
"-7 662 LINE",
"-7 642 LINE",
"53 638 OFFCURVE",
"66 630 OFFCURVE",
"81 590 CURVE SMOOTH",
"305 -9 LINE",
"320 -9 LINE"
);
}
);
width = 620;
},
{
layerId = "FA6D65B5-4623-4FAC-A199-3F662257AC29";
paths = (
{
closed = 1;
nodes = (
"572 535 LINE SMOOTH",
"599 605 OFFCURVE",
"615 618 OFFCURVE",
"692 630 CURVE",
"692 662 LINE",
"427 662 LINE",
"427 630 LINE",
"497 621 OFFCURVE",
"522 606 OFFCURVE",
"522 575 CURVE SMOOTH",
"522 565 OFFCURVE",
"519 552 OFFCURVE",
"513 537 CURVE SMOOTH",
"391 218 LINE",
"386 218 LINE",
"258 573 LINE SMOOTH",
"255 582 OFFCURVE",
"253 590 OFFCURVE",
"253 597 CURVE SMOOTH",
"253 618 OFFCURVE",
"273 626 OFFCURVE",
"337 630 CURVE",
"337 662 LINE",
"-17 662 LINE",
"-17 630 LINE",
"44 626 OFFCURVE",
"59 617 OFFCURVE",
"76 578 CURVE SMOOTH",
"318 -9 LINE",
"359 -9 LINE"
);
}
);
width = 672;
}
);
unicode = 0056;
},
{
glyphname = W;
lastChange = "2018-10-23 21:24:40 +0000";
layers = (
{
anchors = (
{
name = topcap;
position = "{467, 714}";
}
);
layerId = master01;
paths = (
{
closed = 1;
nodes = (
"464 441 LINE",
"633 -9 LINE",
"653 -9 LINE",
"830 547 LINE SMOOTH",
"850 609 OFFCURVE",
"863 629 OFFCURVE",
"955 642 CURVE",
"955 662 LINE",
"713 662 LINE",
"713 642 LINE",
"779 633 OFFCURVE",
"800 619 OFFCURVE",
"800 590 CURVE SMOOTH",
"800 577 OFFCURVE",
"797 565 OFFCURVE",
"792 549 CURVE SMOOTH",
"671 157 LINE",
"667 157 LINE",
"521 576 LINE SMOOTH",
"515 593 OFFCURVE",
"512 605 OFFCURVE",
"512 614 CURVE SMOOTH",
"512 631 OFFCURVE",
"518 637 OFFCURVE",
"600 642 CURVE",
"600 662 LINE",
"321 662 LINE",
"321 642 LINE",
"381 638 OFFCURVE",
"394 630 OFFCURVE",
"409 590 CURVE SMOOTH",
"444 495 LINE",
"339 157 LINE",
"335 157 LINE",
"189 576 LINE SMOOTH",
"181 600 OFFCURVE",
"178 608 OFFCURVE",
"178 617 CURVE SMOOTH",
"178 632 OFFCURVE",
"187 636 OFFCURVE",
"268 642 CURVE",
"268 662 LINE",
"-11 662 LINE",
"-11 642 LINE",
"49 638 OFFCURVE",
"62 630 OFFCURVE",
"77 590 CURVE SMOOTH",
"301 -9 LINE",
"321 -9 LINE"
);
}
);
width = 937;
},
{
layerId = "FA6D65B5-4623-4FAC-A199-3F662257AC29";
paths = (
{
closed = 1;
nodes = (
"520 427 LINE",
"691 -9 LINE",
"733 -9 LINE",
"945 535 LINE SMOOTH",
"972 605 OFFCURVE",
"991 619 OFFCURVE",
"1066 630 CURVE",
"1066 662 LINE",
"800 662 LINE",
"800 630 LINE",
"871 622 OFFCURVE",
"896 606 OFFCURVE",
"896 577 CURVE SMOOTH",
"896 566 OFFCURVE",
"892 550 OFFCURVE",
"887 537 CURVE SMOOTH",
"765 218 LINE",
"759 218 LINE",
"644 573 LINE SMOOTH",
"641 582 OFFCURVE",
"639 591 OFFCURVE",
"639 598 CURVE SMOOTH",
"639 620 OFFCURVE",
"660 627 OFFCURVE",
"723 630 CURVE",
"723 662 LINE",
"369 662 LINE",
"369 630 LINE",
"430 626 OFFCURVE",
"446 617 OFFCURVE",
"462 578 CURVE SMOOTH",
"491 503 LINE",
"382 218 LINE",
"377 218 LINE",
"261 573 LINE SMOOTH",
"258 582 OFFCURVE",
"256 591 OFFCURVE",
"256 598 CURVE SMOOTH",
"256 618 OFFCURVE",
"267 626 OFFCURVE",
"341 630 CURVE",
"341 662 LINE",
"-14 662 LINE",
"-14 630 LINE",
"47 626 OFFCURVE",
"64 617 OFFCURVE",
"79 578 CURVE SMOOTH",
"309 -9 LINE",
"350 -9 LINE"
);
}
);
width = 1042;
}
);
leftKerningGroup = W;
rightKerningGroup = W;
unicode = 0057;
},
{
glyphname = X;
lastChange = "2018-10-23 21:24:40 +0000";
layers = (
{
layerId = master01;
paths = (
{
closed = 1;
nodes = (
"224 0 LINE",
"224 17 LINE",
"175 22 OFFCURVE",
"152 31 OFFCURVE",
"152 46 CURVE SMOOTH",
"152 53 OFFCURVE",
"157 65 OFFCURVE",
"167 79 CURVE SMOOTH",
"325 292 LINE",
"474 65 LINE SMOOTH",
"484 50 OFFCURVE",
"488 42 OFFCURVE",
"488 36 CURVE SMOOTH",
"488 27 OFFCURVE",
"475 23 OFFCURVE",
"421 19 CURVE",
"421 0 LINE",
"679 0 LINE",
"679 19 LINE",
"625 23 OFFCURVE",
"603 30 OFFCURVE",
"586 56 CURVE SMOOTH",
"385 362 LINE",
"550 583 LINE",
"582 622 OFFCURVE",
"605 631 OFFCURVE",
"667 642 CURVE",
"667 662 LINE",
"454 662 LINE",
"454 642 LINE",
"499 637 OFFCURVE",
"518 627 OFFCURVE",
"518 611 CURVE SMOOTH",
"518 602 OFFCURVE",
"513 593 OFFCURVE",
"504 581 CURVE SMOOTH",
"366 392 LINE",
"232 596 LINE SMOOTH",
"224 610 OFFCURVE",
"221 617 OFFCURVE",
"221 625 CURVE SMOOTH",
"221 635 OFFCURVE",
"230 640 OFFCURVE",
"280 642 CURVE",
"280 662 LINE",
"21 662 LINE",
"21 642 LINE",
"89 635 OFFCURVE",
"105 628 OFFCURVE",
"120 605 CURVE SMOOTH",
"304 324 LINE",
"121 78 LINE SMOOTH",
"92 39 OFFCURVE",
"58 26 OFFCURVE",
"-9 17 CURVE",
"-9 0 LINE"
);
}
);
width = 677;
},
{
layerId = "FA6D65B5-4623-4FAC-A199-3F662257AC29";
paths = (
{
closed = 1;
nodes = (
"247 0 LINE",
"247 32 LINE",
"197 37 OFFCURVE",
"175 46 OFFCURVE",
"175 60 CURVE SMOOTH",
"175 68 OFFCURVE",
"179 80 OFFCURVE",
"189 94 CURVE SMOOTH",
"322 273 LINE",
"452 78 LINE SMOOTH",
"463 63 OFFCURVE",
"466 54 OFFCURVE",
"466 49 CURVE SMOOTH",
"466 40 OFFCURVE",
"450 36 OFFCURVE",
"382 32 CURVE",
"382 0 LINE",
"739 0 LINE",
"739 32 LINE",
"685 36 OFFCURVE",
"663 43 OFFCURVE",
"646 69 CURVE SMOOTH",
"437 381 LINE",
"580 571 LINE SMOOTH",
"606 606 OFFCURVE",
"624 617 OFFCURVE",
"697 630 CURVE",
"697 662 LINE",
"456 662 LINE",
"456 630 LINE",
"507 625 OFFCURVE",
"528 615 OFFCURVE",
"528 599 CURVE SMOOTH",
"528 590 OFFCURVE",
"523 581 OFFCURVE",
"514 568 CURVE SMOOTH",
"408 425 LINE",
"302 584 LINE SMOOTH",
"293 598 OFFCURVE",
"291 605 OFFCURVE",
"291 612 CURVE SMOOTH",
"291 624 OFFCURVE",
"305 628 OFFCURVE",
"367 630 CURVE",
"367 662 LINE",
"9 662 LINE",
"9 630 LINE",
"79 622 OFFCURVE",
"92 616 OFFCURVE",
"108 593 CURVE SMOOTH",
"292 318 LINE",
"124 93 LINE SMOOTH",
"97 57 OFFCURVE",
"68 41 OFFCURVE",
"-6 32 CURVE",
"-6 0 LINE"
);
}
);
width = 722;
}
);
unicode = 0058;
},
{
glyphname = Y;
lastChange = "2018-10-23 21:24:40 +0000";
layers = (
{
anchors = (
{
name = topcap;
position = "{343, 714}";
}
);
layerId = master01;
paths = (
{
closed = 1;
nodes = (
"425 0 LINE",
"425 20 LINE",
"348 36 LINE",
"348 266 LINE",
"500 547 LINE SMOOTH",
"531 604 OFFCURVE",
"533 629 OFFCURVE",
"624 642 CURVE",
"624 662 LINE",
"382 662 LINE",
"382 642 LINE",
"441 638 OFFCURVE",
"471 617 OFFCURVE",
"471 586 CURVE SMOOTH",
"471 574 OFFCURVE",
"468 562 OFFCURVE",
"461 549 CURVE SMOOTH",
"341 323 LINE",
"338 323 LINE",
"196 576 LINE SMOOTH",
"189 589 OFFCURVE",
"185 601 OFFCURVE",
"185 611 CURVE SMOOTH",
"185 628 OFFCURVE",
"200 638 OFFCURVE",
"275 642 CURVE",
"275 662 LINE",
"-7 662 LINE",
"-7 642 LINE",
"53 638 OFFCURVE",
"63 626 OFFCURVE",
"83 590 CURVE SMOOTH",
"258 281 LINE",
"258 36 LINE",
"181 20 LINE",
"181 0 LINE"
);
}
);
width = 610;
},
{
layerId = "FA6D65B5-4623-4FAC-A199-3F662257AC29";
paths = (
{
closed = 1;
nodes = (
"468 0 LINE",
"468 32 LINE",
"396 50 LINE",
"396 287 LINE",
"529 535 LINE SMOOTH",
"574 617 OFFCURVE",
"582 624 OFFCURVE",
"654 630 CURVE",
"654 662 LINE",
"394 662 LINE",
"394 630 LINE",
"464 629 OFFCURVE",
"489 616 OFFCURVE",
"489 588 CURVE SMOOTH",
"489 576 OFFCURVE",
"484 558 OFFCURVE",
"473 537 CURVE SMOOTH",
"374 348 LINE",
"371 348 LINE",
"261 564 LINE SMOOTH",
"255 574 OFFCURVE",
"253 581 OFFCURVE",
"253 589 CURVE SMOOTH",
"253 610 OFFCURVE",
"270 625 OFFCURVE",
"340 630 CURVE",
"340 662 LINE",
"-15 662 LINE",
"-15 630 LINE",
"45 626 OFFCURVE",
"59 621 OFFCURVE",
"83 578 CURVE SMOOTH",
"248 288 LINE",
"248 50 LINE",
"175 32 LINE",
"175 0 LINE"
);
}
);
width = 641;
}
);
leftKerningGroup = Y;
rightKerningGroup = Y;
unicode = 0059;
},
{
glyphname = Z;
lastChange = "2018-10-23 21:24:40 +0000";
layers = (
{
anchors = (
{
name = bottom;
position = "{273, 0}";
},
{
name = topcap;
position = "{316, 714}";
}
);
layerId = master01;
paths = (
{
closed = 1;
nodes = (
"52 475 LINE",
"75 474 LINE",
"83 500 OFFCURVE",
"103 548 OFFCURVE",
"137 609 CURVE SMOOTH",
"147 628 LINE",
"421 628 LINE",
"27 24 LINE",
"27 0 LINE",
"499 0 LINE",
"544 210 LINE",
"521 212 LINE",
"506 174 OFFCURVE",
"478 111 OFFCURVE",
"438 50 CURVE SMOOTH",
"427 34 LINE",
"140 34 LINE",
"536 639 LINE",
"536 662 LINE",
"89 662 LINE"
);
}
);
width = 581;
},
{
layerId = "FA6D65B5-4623-4FAC-A199-3F662257AC29";
paths = (
{
closed = 1;
nodes = (
"41 465 LINE",
"77 465 LINE",
"85 491 OFFCURVE",
"104 535 OFFCURVE",
"138 596 CURVE SMOOTH",
"148 615 LINE",
"383 615 LINE",
"23 33 LINE",
"23 0 LINE",
"547 0 LINE",
"601 225 LINE",
"565 225 LINE",
"550 187 OFFCURVE",
"522 124 OFFCURVE",
"482 63 CURVE SMOOTH",
"471 47 LINE",
"223 47 LINE",
"584 630 LINE",
"584 662 LINE",
"85 662 LINE"
);
}
);
width = 628;
}
);
leftKerningGroup = Z;
rightKerningGroup = Z;
unicode = 005A;
},
{
glyphname = a;
lastChange = "2018-10-23 21:24:40 +0000";
layers = (
{
anchors = (
{
name = bottom;
position = "{353, 0}";
},
{
name = top;
position = "{227, 560}";
}
);
layerId = master01;
paths = (
{
closed = 1;
nodes = (
"195 -9 OFFCURVE",
"246 22 OFFCURVE",
"280 71 CURVE",
"282 69 LINE",
"288 16 OFFCURVE",
"313 -9 OFFCURVE",
"359 -9 CURVE SMOOTH",
"396 -9 OFFCURVE",
"421 8 OFFCURVE",
"448 49 CURVE",
"433 62 LINE",
"419 44 OFFCURVE",
"408 37 OFFCURVE",
"391 37 CURVE SMOOTH",
"366 37 OFFCURVE",
"359 52 OFFCURVE",
"359 109 CURVE SMOOTH",
"359 306 LINE SMOOTH",
"359 378 OFFCURVE",
"358 399 OFFCURVE",
"348 419 CURVE SMOOTH",
"334 448 OFFCURVE",
"298 464 OFFCURVE",
"249 464 CURVE SMOOTH",
"212 464 OFFCURVE",
"173 455 OFFCURVE",
"139 438 CURVE SMOOTH",
"83 409 OFFCURVE",
"46 366 OFFCURVE",
"46 328 CURVE SMOOTH",
"46 303 OFFCURVE",
"63 286 OFFCURVE",
"86 286 CURVE SMOOTH",
"112 286 OFFCURVE",
"131 307 OFFCURVE",
"131 336 CURVE SMOOTH",
"131 346 OFFCURVE",
"129 357 OFFCURVE",
"129 366 CURVE SMOOTH",
"129 407 OFFCURVE",
"160 432 OFFCURVE",
"209 432 CURVE SMOOTH",
"259 432 OFFCURVE",
"278 405 OFFCURVE",
"278 333 CURVE SMOOTH",
"278 249 LINE",
"105 212 OFFCURVE",
"42 171 OFFCURVE",
"42 96 CURVE SMOOTH",
"42 34 OFFCURVE",
"84 -9 OFFCURVE",
"145 -9 CURVE SMOOTH"
);
},
{
closed = 1;
nodes = (
"142 42 OFFCURVE",
"119 68 OFFCURVE",
"119 114 CURVE SMOOTH",
"119 174 OFFCURVE",
"157 200 OFFCURVE",
"278 224 CURVE",
"278 100 LINE",
"255 64 OFFCURVE",
"220 42 OFFCURVE",
"183 42 CURVE SMOOTH"
);
}
);
width = 452;
},
{
anchors = (
{
name = bottom;
position = "{347, 0}";
},
{
name = top;
position = "{222, 560}";
}
);
layerId = "FA6D65B5-4623-4FAC-A199-3F662257AC29";
paths = (
{
closed = 1;
nodes = (
"199 -9 OFFCURVE",
"244 13 OFFCURVE",
"287 59 CURVE",
"291 59 LINE",
"299 14 OFFCURVE",
"327 -9 OFFCURVE",
"383 -9 CURVE SMOOTH",
"432 -9 OFFCURVE",
"471 9 OFFCURVE",
"508 49 CURVE",
"488 77 LINE",
"476 64 OFFCURVE",
"464 57 OFFCURVE",
"451 57 CURVE SMOOTH",
"427 57 OFFCURVE",
"418 78 OFFCURVE",
"418 129 CURVE SMOOTH",
"418 306 LINE SMOOTH",
"418 370 OFFCURVE",
"412 400 OFFCURVE",
"398 421 CURVE SMOOTH",
"379 450 OFFCURVE",
"342 464 OFFCURVE",
"280 464 CURVE SMOOTH",
"218 464 OFFCURVE",
"162 450 OFFCURVE",
"118 421 CURVE SMOOTH",
"75 393 OFFCURVE",
"50 355 OFFCURVE",
"50 319 CURVE SMOOTH",
"50 285 OFFCURVE",
"73 261 OFFCURVE",
"107 261 CURVE SMOOTH",
"140 261 OFFCURVE",
"166 286 OFFCURVE",
"166 318 CURVE SMOOTH",
"166 330 OFFCURVE",
"163 343 OFFCURVE",
"163 356 CURVE SMOOTH",
"163 392 OFFCURVE",
"189 415 OFFCURVE",
"232 415 CURVE SMOOTH",
"273 415 OFFCURVE",
"285 394 OFFCURVE",
"285 316 CURVE SMOOTH",
"285 253 LINE",
"111 229 OFFCURVE",
"33 179 OFFCURVE",
"33 93 CURVE SMOOTH",
"33 29 OFFCURVE",
"76 -9 OFFCURVE",
"146 -9 CURVE SMOOTH"
);
},
{
closed = 1;
nodes = (
"192 72 OFFCURVE",
"176 90 OFFCURVE",
"176 128 CURVE SMOOTH",
"176 176 OFFCURVE",
"201 196 OFFCURVE",
"285 212 CURVE",
"285 97 LINE",
"269 81 OFFCURVE",
"249 72 OFFCURVE",
"225 72 CURVE SMOOTH"
);
}
);
width = 503;
}
);
leftKerningGroup = a;
rightKerningGroup = a;
unicode = 0061;
userData = {
com.typemytype.robofont.guides = (
{
angle = 359.5;
isGlobal = 0;
magnetic = 5;
x = 0;
y = 84;
}
);
};
},
{
glyphname = acute;
lastChange = "2018-10-23 21:24:40 +0000";
layers = (
{
anchors = (
{
name = _top;
position = "{70, 560}";
}
);
layerId = master01;
paths = (
{
closed = 1;
nodes = (
"57 698 LINE SMOOTH",
"65 723 OFFCURVE",
"79 739 OFFCURVE",
"104 739 CURVE SMOOTH",
"122 739 OFFCURVE",
"138 723 OFFCURVE",
"138 702 CURVE SMOOTH",
"138 687 OFFCURVE",
"131 673 OFFCURVE",
"112 649 CURVE SMOOTH",
"27 543 LINE",
"9 552 LINE"
);
}
);
width = 146;
},
{
anchors = (
{
name = _top;
position = "{70, 560}";
}
);
layerId = "FA6D65B5-4623-4FAC-A199-3F662257AC29";
paths = (
{
closed = 1;
nodes = (
"44 682 LINE SMOOTH",
"54 719 OFFCURVE",
"75 739 OFFCURVE",
"108 739 CURVE SMOOTH",
"132 739 OFFCURVE",
"147 723 OFFCURVE",
"147 700 CURVE SMOOTH",
"147 683 OFFCURVE",
"138 660 OFFCURVE",
"119 638 CURVE SMOOTH",
"35 543 LINE",
"9 552 LINE"
);
}
);
width = 156;
}
);
unicode = 00B4;
},
{
glyphname = acute.cap;
lastChange = "2018-10-23 21:24:40 +0000";
layers = (
{
anchors = (
{
name = _topcap;
position = "{86, 714}";
}
);
layerId = master01;
paths = (
{
closed = 1;
nodes = (
"132 812 LINE SMOOTH",
"145 821 OFFCURVE",
"157 826 OFFCURVE",
"170 826 CURVE SMOOTH",
"189 826 OFFCURVE",
"207 810 OFFCURVE",
"207 789 CURVE SMOOTH",
"207 769 OFFCURVE",
"194 753 OFFCURVE",
"149 740 CURVE SMOOTH",
"18 702 LINE",
"9 720 LINE"
);
}
);
width = 216;
},
{
anchors = (
{
name = _topcap;
position = "{86, 714}";
}
);
layerId = "FA6D65B5-4623-4FAC-A199-3F662257AC29";
paths = (
{
closed = 1;
nodes = (
"116 808 LINE SMOOTH",
"136 822 OFFCURVE",
"154 828 OFFCURVE",
"169 828 CURVE SMOOTH",
"198 828 OFFCURVE",
"216 806 OFFCURVE",
"216 782 CURVE SMOOTH",
"216 760 OFFCURVE",
"201 737 OFFCURVE",
"165 730 CURVE SMOOTH",
"23 703 LINE",
"9 727 LINE"
);
}
);
width = 224;
}
);
},
{
glyphname = ae;
lastChange = "2018-10-23 21:24:40 +0000";
layers = (
{
layerId = master01;
paths = (
{
closed = 1;
nodes = (
"200 -9 OFFCURVE",
"263 29 OFFCURVE",
"304 93 CURVE",
"308 93 LINE",
"342 29 OFFCURVE",
"405 -9 OFFCURVE",
"484 -9 CURVE SMOOTH",
"568 -9 OFFCURVE",
"639 34 OFFCURVE",
"669 104 CURVE SMOOTH",
"674 116 LINE",
"660 125 LINE",
"649 112 LINE SMOOTH",
"620 76 OFFCURVE",
"568 54 OFFCURVE",
"512 54 CURVE SMOOTH",
"409 54 OFFCURVE",
"364 120 OFFCURVE",
"364 265 CURVE",
"678 265 LINE",
"684 270 LINE",
"681 397 OFFCURVE",
"620 464 OFFCURVE",
"507 464 CURVE SMOOTH",
"445 464 OFFCURVE",
"392 444 OFFCURVE",
"353 408 CURVE",
"338 448 OFFCURVE",
"298 464 OFFCURVE",
"249 464 CURVE SMOOTH",
"212 464 OFFCURVE",
"173 455 OFFCURVE",
"139 438 CURVE SMOOTH",
"83 409 OFFCURVE",
"46 366 OFFCURVE",
"46 328 CURVE SMOOTH",
"46 303 OFFCURVE",
"63 286 OFFCURVE",
"86 286 CURVE SMOOTH",
"112 286 OFFCURVE",
"131 307 OFFCURVE",
"131 336 CURVE SMOOTH",
"131 346 OFFCURVE",
"129 357 OFFCURVE",
"129 366 CURVE SMOOTH",
"129 407 OFFCURVE",
"160 432 OFFCURVE",
"209 432 CURVE SMOOTH",
"259 432 OFFCURVE",
"278 405 OFFCURVE",
"278 333 CURVE SMOOTH",
"278 249 LINE",
"104 212 OFFCURVE",
"42 171 OFFCURVE",
"42 95 CURVE SMOOTH",
"42 34 OFFCURVE",
"85 -9 OFFCURVE",
"146 -9 CURVE SMOOTH"
);
},
{
closed = 1;
nodes = (
"562 438 OFFCURVE",
"593 402 OFFCURVE",
"593 331 CURVE SMOOTH",
"593 317 OFFCURVE",
"593 303 OFFCURVE",
"591 297 CURVE",
"366 289 LINE",
"377 384 OFFCURVE",
"424 438 OFFCURVE",
"500 438 CURVE SMOOTH"
);
},
{
closed = 1;
nodes = (
"142 42 OFFCURVE",
"119 69 OFFCURVE",
"119 114 CURVE SMOOTH",
"119 174 OFFCURVE",
"157 200 OFFCURVE",
"278 224 CURVE",
"278 183 OFFCURVE",
"284 149 OFFCURVE",
"296 119 CURVE",
"267 73 OFFCURVE",
"222 42 OFFCURVE",
"182 42 CURVE SMOOTH"
);
}
);
width = 719;
},
{
layerId = "FA6D65B5-4623-4FAC-A199-3F662257AC29";
paths = (
{
closed = 1;
nodes = (
"212 -9 OFFCURVE",
"262 17 OFFCURVE",
"324 79 CURVE",
"328 79 LINE",
"369 22 OFFCURVE",
"437 -9 OFFCURVE",
"519 -9 CURVE SMOOTH",
"617 -9 OFFCURVE",
"696 37 OFFCURVE",
"728 113 CURVE SMOOTH",
"732 123 LINE",
"708 144 LINE",
"702 137 LINE SMOOTH",
"671 101 OFFCURVE",
"617 80 OFFCURVE",
"562 80 CURVE SMOOTH",
"472 80 OFFCURVE",
"427 136 OFFCURVE",
"427 249 CURVE",
"740 249 LINE",
"746 255 LINE",
"742 393 OFFCURVE",
"672 464 OFFCURVE",
"542 464 CURVE SMOOTH",
"485 464 OFFCURVE",
"435 452 OFFCURVE",
"394 426 CURVE",
"369 453 OFFCURVE",
"336 464 OFFCURVE",
"281 464 CURVE SMOOTH",
"217 464 OFFCURVE",
"160 449 OFFCURVE",
"118 421 CURVE SMOOTH",
"76 393 OFFCURVE",
"50 353 OFFCURVE",
"50 318 CURVE SMOOTH",
"50 285 OFFCURVE",
"73 261 OFFCURVE",
"107 261 CURVE SMOOTH",
"140 261 OFFCURVE",
"166 286 OFFCURVE",
"166 318 CURVE SMOOTH",
"166 330 OFFCURVE",
"163 343 OFFCURVE",
"163 356 CURVE SMOOTH",
"163 392 OFFCURVE",
"189 415 OFFCURVE",
"232 415 CURVE SMOOTH",
"273 415 OFFCURVE",
"285 394 OFFCURVE",
"285 316 CURVE SMOOTH",
"285 253 LINE",
"110 229 OFFCURVE",
"33 179 OFFCURVE",
"33 92 CURVE SMOOTH",
"33 28 OFFCURVE",
"75 -9 OFFCURVE",
"150 -9 CURVE SMOOTH"
);
},
{
closed = 1;
nodes = (
"581 421 OFFCURVE",
"607 389 OFFCURVE",
"607 331 CURVE SMOOTH",
"607 318 OFFCURVE",
"605 305 OFFCURVE",
"604 297 CURVE",
"428 290 LINE",
"435 374 OFFCURVE",
"472 421 OFFCURVE",
"531 421 CURVE SMOOTH"
);
},
{
closed = 1;
nodes = (
"196 72 OFFCURVE",
"176 92 OFFCURVE",
"176 126 CURVE SMOOTH",
"176 170 OFFCURVE",
"210 198 OFFCURVE",
"284 212 CURVE",
"285 177 OFFCURVE",
"292 142 OFFCURVE",
"307 112 CURVE",
"280 85 OFFCURVE",
"254 72 OFFCURVE",
"228 72 CURVE SMOOTH"
);
}
);
width = 772;
}
);
leftKerningGroup = a;
rightKerningGroup = e;
unicode = 00E6;
userData = {
com.typemytype.robofont.guides = (
{
angle = 90;
isGlobal = 0;
magnetic = 5;
x = -118;
y = 0;
}
);
};
},
{
glyphname = ampersand;
lastChange = "2018-10-23 21:24:40 +0000";
layers = (
{
layerId = master01;
paths = (
{
closed = 1;
nodes = (
"182 441 OFFCURVE",
"174 491 OFFCURVE",
"174 522 CURVE SMOOTH",
"174 612 OFFCURVE",
"248 671 OFFCURVE",
"331 671 CURVE SMOOTH",
"397 671 OFFCURVE",
"455 634 OFFCURVE",
"455 569 CURVE SMOOTH",
"455 514 OFFCURVE",
"413 450 OFFCURVE",
"292 372 CURVE SMOOTH",
"187 305 OFFCURVE",
"167 249 OFFCURVE",
"167 193 CURVE SMOOTH",
"167 115 OFFCURVE",
"205 40 OFFCURVE",
"302 40 CURVE SMOOTH",
"352 40 OFFCURVE",
"425 60 OFFCURVE",
"488 157 CURVE SMOOTH",
"525 212 OFFCURVE",
"550 279 OFFCURVE",
"550 337 CURVE SMOOTH",
"550 366 OFFCURVE",
"544 371 OFFCURVE",
"466 379 CURVE SMOOTH",
"466 400 LINE",
"685 400 LINE",
"685 379 LINE SMOOTH",
"609 372 OFFCURVE",
"600 364 OFFCURVE",
"591 324 CURVE SMOOTH",
"580 277 OFFCURVE",
"555 201 OFFCURVE",
"511 134 CURVE SMOOTH",
"433 12 OFFCURVE",
"337 -9 OFFCURVE",
"264 -9 CURVE SMOOTH",
"137 -9 OFFCURVE",
"77 58 OFFCURVE",
"77 155 CURVE SMOOTH",
"77 246 OFFCURVE",
"131 304 OFFCURVE",
"280 398 CURVE SMOOTH",
"369 454 OFFCURVE",
"396 494 OFFCURVE",
"396 548 CURVE SMOOTH",
"396 608 OFFCURVE",
"362 640 OFFCURVE",
"313 640 CURVE SMOOTH",
"270 640 OFFCURVE",
"234 615 OFFCURVE",
"234 561 CURVE SMOOTH",
"234 528 OFFCURVE",
"247 494 OFFCURVE",
"298 432 CURVE SMOOTH",
"611 44 LINE",
"685 20 LINE",
"685 0 LINE",
"536 0 LINE",
"236 374 LINE"
);
}
);
width = 698;
},
{
layerId = "FA6D65B5-4623-4FAC-A199-3F662257AC29";
paths = (
{
closed = 1;
nodes = (
"157 445 OFFCURVE",
"148 493 OFFCURVE",
"148 523 CURVE SMOOTH",
"148 617 OFFCURVE",
"239 671 OFFCURVE",
"322 671 CURVE SMOOTH",
"396 671 OFFCURVE",
"455 626 OFFCURVE",
"455 562 CURVE SMOOTH",
"455 475 OFFCURVE",
"348 405 OFFCURVE",
"289 366 CURVE SMOOTH",
"242 335 OFFCURVE",
"174 290 OFFCURVE",
"174 200 CURVE SMOOTH",
"174 128 OFFCURVE",
"219 55 OFFCURVE",
"304 55 CURVE SMOOTH",
"364 55 OFFCURVE",
"433 93 OFFCURVE",
"481 161 CURVE SMOOTH",
"521 219 OFFCURVE",
"536 286 OFFCURVE",
"536 334 CURVE SMOOTH",
"536 367 OFFCURVE",
"529 371 OFFCURVE",
"463 379 CURVE SMOOTH",
"463 415 LINE",
"682 415 LINE",
"682 379 LINE SMOOTH",
"614 372 OFFCURVE",
"608 359 OFFCURVE",
"599 324 CURVE SMOOTH",
"587 280 OFFCURVE",
"556 203 OFFCURVE",
"510 135 CURVE SMOOTH",
"427 13 OFFCURVE",
"337 -9 OFFCURVE",
"256 -9 CURVE SMOOTH",
"113 -9 OFFCURVE",
"49 58 OFFCURVE",
"49 156 CURVE SMOOTH",
"49 249 OFFCURVE",
"107 290 OFFCURVE",
"277 408 CURVE SMOOTH",
"346 456 OFFCURVE",
"365 489 OFFCURVE",
"365 545 CURVE SMOOTH",
"365 612 OFFCURVE",
"338 633 OFFCURVE",
"312 633 CURVE SMOOTH",
"286 633 OFFCURVE",
"262 612 OFFCURVE",
"262 566 CURVE SMOOTH",
"262 525 OFFCURVE",
"281 490 OFFCURVE",
"329 432 CURVE SMOOTH",
"634 55 LINE",
"716 31 LINE",
"716 0 LINE",
"519 0 LINE",
"215 374 LINE SMOOTH"
);
}
);
width = 710;
}
);
unicode = 0026;
},
{
glyphname = apostrophe;
lastChange = "2018-10-23 21:24:40 +0000";
layers = (
{
anchors = (
{
name = _top;
position = "{58, 560}";
}
);
layerId = master01;
paths = (
{
closed = 1;
nodes = (
"82 582 OFFCURVE",
"108 624 OFFCURVE",
"108 676 CURVE SMOOTH",
"108 710 OFFCURVE",
"87 737 OFFCURVE",
"57 737 CURVE SMOOTH",
"29 737 OFFCURVE",
"9 716 OFFCURVE",
"9 689 CURVE SMOOTH",
"9 646 OFFCURVE",
"59 654 OFFCURVE",
"59 620 CURVE SMOOTH",
"59 608 OFFCURVE",
"42 587 OFFCURVE",
"18 571 CURVE",
"32 550 LINE"
);
}
);
width = 116;
},
{
anchors = (
{
name = _top;
position = "{58, 560}";
}
);
layerId = "FA6D65B5-4623-4FAC-A199-3F662257AC29";
paths = (
{
closed = 1;
nodes = (
"98 561 OFFCURVE",
"132 605 OFFCURVE",
"132 660 CURVE SMOOTH",
"132 708 OFFCURVE",
"107 737 OFFCURVE",
"68 737 CURVE SMOOTH",
"34 737 OFFCURVE",
"9 715 OFFCURVE",
"9 685 CURVE SMOOTH",
"9 640 OFFCURVE",
"66 642 OFFCURVE",
"66 612 CURVE SMOOTH",
"66 597 OFFCURVE",
"50 576 OFFCURVE",
"22 556 CURVE",
"39 533 LINE"
);
}
);
width = 140;
}
);
unicode = 02BC;
},
{
glyphname = asciicircum;
lastChange = "2018-10-23 21:24:40 +0000";
layers = (
{
layerId = master01;
paths = (
{
closed = 1;
nodes = (
"200 611 LINE",
"230 611 LINE",
"389 286 LINE",
"353 286 LINE",
"216 558 LINE",
"212 558 LINE",
"77 286 LINE",
"40 286 LINE"
);
}
);
width = 429;
},
{
layerId = "FA6D65B5-4623-4FAC-A199-3F662257AC29";
paths = (
{
closed = 1;
nodes = (
"194 611 LINE",
"224 611 LINE",
"383 286 LINE",
"329 286 LINE",
"210 524 LINE",
"206 524 LINE",
"89 286 LINE",
"34 286 LINE"
);
}
);
width = 417;
}
);
unicode = 005E;
},
{
glyphname = asciitilde;
lastChange = "2018-10-23 21:24:40 +0000";
layers = (
{
layerId = master01;
paths = (
{
closed = 1;
nodes = (
"69 237 OFFCURVE",
"91 309 OFFCURVE",
"170 309 CURVE SMOOTH",
"232 309 OFFCURVE",
"291 264 OFFCURVE",
"354 264 CURVE SMOOTH",
"393 264 OFFCURVE",
"405 282 OFFCURVE",
"413 309 CURVE",
"439 309 LINE",
"439 264 OFFCURVE",
"416 192 OFFCURVE",
"337 192 CURVE SMOOTH",
"276 192 OFFCURVE",
"216 237 OFFCURVE",
"153 237 CURVE SMOOTH",
"114 237 OFFCURVE",
"102 218 OFFCURVE",
"95 192 CURVE",
"69 192 LINE"
);
}
);
width = 506;
},
{
layerId = "FA6D65B5-4623-4FAC-A199-3F662257AC29";
paths = (
{
closed = 1;
nodes = (
"60 237 OFFCURVE",
"83 309 OFFCURVE",
"162 309 CURVE SMOOTH",
"224 309 OFFCURVE",
"282 264 OFFCURVE",
"346 264 CURVE SMOOTH",
"384 264 OFFCURVE",
"396 282 OFFCURVE",
"404 309 CURVE",
"430 309 LINE",
"430 264 OFFCURVE",
"408 192 OFFCURVE",
"329 192 CURVE SMOOTH",
"267 192 OFFCURVE",
"207 237 OFFCURVE",
"144 237 CURVE SMOOTH",
"106 237 OFFCURVE",
"94 218 OFFCURVE",
"86 192 CURVE",
"60 192 LINE"
);
}
);
width = 488;
}
);
unicode = 007E;
},
{
glyphname = asterisk;
lastChange = "2018-10-23 21:24:40 +0000";
layers = (
{
layerId = master01;
paths = (
{
closed = 1;
nodes = (
"221 497 LINE SMOOTH",
"226 458 OFFCURVE",
"240 428 OFFCURVE",
"240 406 CURVE SMOOTH",
"240 386 OFFCURVE",
"229 372 OFFCURVE",
"208 372 CURVE SMOOTH",
"187 372 OFFCURVE",
"175 386 OFFCURVE",
"175 409 CURVE SMOOTH",
"175 434 OFFCURVE",
"191 464 OFFCURVE",
"195 498 CURVE SMOOTH",
"199 526 LINE",
"175 508 LINE SMOOTH",
"139 482 OFFCURVE",
"124 442 OFFCURVE",
"89 442 CURVE SMOOTH",
"68 442 OFFCURVE",
"54 456 OFFCURVE",
"54 476 CURVE SMOOTH",
"54 515 OFFCURVE",
"113 508 OFFCURVE",
"163 531 CURVE SMOOTH",
"188 543 LINE",
"162 554 LINE SMOOTH",
"112 574 OFFCURVE",
"54 568 OFFCURVE",
"54 608 CURVE SMOOTH",
"54 627 OFFCURVE",
"66 642 OFFCURVE",
"89 642 CURVE SMOOTH",
"124 642 OFFCURVE",
"137 604 OFFCURVE",
"175 575 CURVE SMOOTH",
"198 559 LINE",
"194 588 LINE SMOOTH",
"190 626 OFFCURVE",
"175 647 OFFCURVE",
"175 674 CURVE SMOOTH",
"175 702 OFFCURVE",
"189 714 OFFCURVE",
"207 714 CURVE SMOOTH",
"224 714 OFFCURVE",
"239 702 OFFCURVE",
"239 674 CURVE SMOOTH",
"238 646 OFFCURVE",
"223 628 OFFCURVE",
"219 587 CURVE SMOOTH",
"217 559 LINE",
"238 576 LINE SMOOTH",
"281 611 OFFCURVE",
"292 643 OFFCURVE",
"324 643 CURVE SMOOTH",
"348 643 OFFCURVE",
"359 627 OFFCURVE",
"359 609 CURVE SMOOTH",
"359 568 OFFCURVE",
"302 575 OFFCURVE",
"252 555 CURVE SMOOTH",
"225 544 LINE",
"250 532 LINE SMOOTH",
"304 508 OFFCURVE",
"359 516 OFFCURVE",
"359 476 CURVE SMOOTH",
"359 456 OFFCURVE",
"345 443 OFFCURVE",
"324 443 CURVE SMOOTH",
"290 443 OFFCURVE",
"274 482 OFFCURVE",
"239 509 CURVE SMOOTH",
"217 526 LINE"
);
}
);
width = 414;
},
{
layerId = "FA6D65B5-4623-4FAC-A199-3F662257AC29";
paths = (
{
closed = 1;
nodes = (
"228 471 LINE SMOOTH",
"230 439 OFFCURVE",
"248 424 OFFCURVE",
"248 400 CURVE SMOOTH",
"248 371 OFFCURVE",
"229 356 OFFCURVE",
"207 356 CURVE SMOOTH",
"187 356 OFFCURVE",
"169 370 OFFCURVE",
"169 401 CURVE SMOOTH",
"169 424 OFFCURVE",
"187 439 OFFCURVE",
"189 474 CURVE SMOOTH",
"191 508 LINE",
"163 487 LINE SMOOTH",
"129 462 OFFCURVE",
"123 426 OFFCURVE",
"86 426 CURVE SMOOTH",
"65 426 OFFCURVE",
"48 445 OFFCURVE",
"48 466 CURVE SMOOTH",
"48 518 OFFCURVE",
"114 507 OFFCURVE",
"144 521 CURVE SMOOTH",
"175 535 LINE",
"142 550 LINE SMOOTH",
"110 563 OFFCURVE",
"46 555 OFFCURVE",
"46 604 CURVE SMOOTH",
"46 624 OFFCURVE",
"62 644 OFFCURVE",
"84 644 CURVE SMOOTH",
"123 644 OFFCURVE",
"128 607 OFFCURVE",
"163 583 CURVE SMOOTH",
"191 564 LINE",
"187 599 LINE SMOOTH",
"184 630 OFFCURVE",
"168 647 OFFCURVE",
"168 670 CURVE SMOOTH",
"168 700 OFFCURVE",
"187 714 OFFCURVE",
"207 714 CURVE SMOOTH",
"227 714 OFFCURVE",
"247 700 OFFCURVE",
"247 670 CURVE SMOOTH",
"247 646 OFFCURVE",
"228 631 OFFCURVE",
"226 597 CURVE SMOOTH",
"224 564 LINE",
"252 583 LINE SMOOTH",
"287 607 OFFCURVE",
"292 644 OFFCURVE",
"330 644 CURVE SMOOTH",
"353 644 OFFCURVE",
"369 624 OFFCURVE",
"369 604 CURVE SMOOTH",
"369 555 OFFCURVE",
"302 562 OFFCURVE",
"273 550 CURVE SMOOTH",
"241 535 LINE",
"271 521 LINE SMOOTH",
"303 507 OFFCURVE",
"367 516 OFFCURVE",
"367 466 CURVE SMOOTH",
"367 445 OFFCURVE",
"351 426 OFFCURVE",
"329 426 CURVE SMOOTH",
"292 426 OFFCURVE",
"285 462 OFFCURVE",
"253 487 CURVE SMOOTH",
"225 508 LINE"
);
}
);
width = 415;
}
);
unicode = 002A;
},
{
glyphname = at;
lastChange = "2018-10-23 21:24:40 +0000";
layers = (
{
layerId = master01;
paths = (
{
closed = 1;
nodes = (
"200 -123 OFFCURVE",
"49 -39 OFFCURVE",
"49 175 CURVE SMOOTH",
"49 400 OFFCURVE",
"218 550 OFFCURVE",
"414 550 CURVE SMOOTH",
"589 550 OFFCURVE",
"697 430 OFFCURVE",
"697 282 CURVE SMOOTH",
"697 147 OFFCURVE",
"608 27 OFFCURVE",
"499 27 CURVE SMOOTH",
"442 27 OFFCURVE",
"410 58 OFFCURVE",
"410 97 CURVE SMOOTH",
"410 108 OFFCURVE",
"410 114 OFFCURVE",
"415 118 CURVE SMOOTH",
"411 119 LINE SMOOTH",
"367 60 OFFCURVE",
"321 38 OFFCURVE",
"279 38 CURVE SMOOTH",
"219 38 OFFCURVE",
"191 81 OFFCURVE",
"191 140 CURVE SMOOTH",
"191 257 OFFCURVE",
"301 396 OFFCURVE",
"406 396 CURVE SMOOTH",
"440 396 OFFCURVE",
"461 381 OFFCURVE",
"473 362 CURVE SMOOTH",
"476 362 LINE",
"486 396 LINE",
"555 396 LINE",
"485 146 LINE SMOOTH",
"481 132 OFFCURVE",
"477 116 OFFCURVE",
"477 103 CURVE SMOOTH",
"477 77 OFFCURVE",
"492 70 OFFCURVE",
"513 70 CURVE SMOOTH",
"587 70 OFFCURVE",
"654 159 OFFCURVE",
"654 280 CURVE SMOOTH",
"654 440 OFFCURVE",
"532 512 OFFCURVE",
"405 512 CURVE SMOOTH",
"212 512 OFFCURVE",
"97 350 OFFCURVE",
"97 174 CURVE SMOOTH",
"97 54 OFFCURVE",
"150 -89 OFFCURVE",
"381 -89 CURVE SMOOTH",
"452 -89 OFFCURVE",
"499 -76 OFFCURVE",
"533 -55 CURVE SMOOTH",
"543 -80 LINE SMOOTH",
"486 -108 OFFCURVE",
"425 -123 OFFCURVE",
"359 -123 CURVE SMOOTH"
);
},
{
closed = 1;
nodes = (
"338 85 OFFCURVE",
"378 119 OFFCURVE",
"408 172 CURVE SMOOTH",
"427 206 OFFCURVE",
"448 258 OFFCURVE",
"448 308 CURVE SMOOTH",
"448 337 OFFCURVE",
"439 359 OFFCURVE",
"410 359 CURVE SMOOTH",
"345 359 OFFCURVE",
"266 249 OFFCURVE",
"266 142 CURVE SMOOTH",
"266 101 OFFCURVE",
"277 85 OFFCURVE",
"302 85 CURVE SMOOTH"
);
}
);
width = 753;
},
{
layerId = "FA6D65B5-4623-4FAC-A199-3F662257AC29";
paths = (
{
closed = 1;
nodes = (
"181 -137 OFFCURVE",
"39 -22 OFFCURVE",
"39 173 CURVE SMOOTH",
"39 402 OFFCURVE",
"238 559 OFFCURVE",
"446 559 CURVE SMOOTH",
"636 559 OFFCURVE",
"745 429 OFFCURVE",
"745 289 CURVE SMOOTH",
"745 157 OFFCURVE",
"648 25 OFFCURVE",
"521 25 CURVE SMOOTH",
"496 25 OFFCURVE",
"472 30 OFFCURVE",
"456 45 CURVE SMOOTH",
"439 59 OFFCURVE",
"433 81 OFFCURVE",
"430 103 CURVE",
"427 103 LINE",
"387 64 OFFCURVE",
"342 39 OFFCURVE",
"296 39 CURVE SMOOTH",
"257 39 OFFCURVE",
"191 56 OFFCURVE",
"191 149 CURVE SMOOTH",
"191 261 OFFCURVE",
"286 396 OFFCURVE",
"416 396 CURVE SMOOTH",
"458 396 OFFCURVE",
"476 382 OFFCURVE",
"488 361 CURVE",
"492 361 LINE",
"500 396 LINE",
"600 396 LINE",
"531 156 LINE SMOOTH",
"527 144 OFFCURVE",
"525 133 OFFCURVE",
"525 121 CURVE SMOOTH",
"525 97 OFFCURVE",
"535 87 OFFCURVE",
"556 87 CURVE SMOOTH",
"614 87 OFFCURVE",
"679 168 OFFCURVE",
"679 285 CURVE SMOOTH",
"679 428 OFFCURVE",
"581 507 OFFCURVE",
"437 507 CURVE SMOOTH",
"244 507 OFFCURVE",
"100 366 OFFCURVE",
"100 177 CURVE SMOOTH",
"100 15 OFFCURVE",
"204 -91 OFFCURVE",
"402 -91 CURVE SMOOTH",
"471 -91 OFFCURVE",
"524 -77 OFFCURVE",
"572 -48 CURVE",
"587 -85 LINE",
"538 -118 OFFCURVE",
"467 -137 OFFCURVE",
"384 -137 CURVE SMOOTH"
);
},
{
closed = 1;
nodes = (
"359 85 OFFCURVE",
"396 112 OFFCURVE",
"427 182 CURVE SMOOTH",
"439 211 OFFCURVE",
"458 264 OFFCURVE",
"458 310 CURVE SMOOTH",
"458 335 OFFCURVE",
"453 350 OFFCURVE",
"433 350 CURVE SMOOTH",
"372 350 OFFCURVE",
"305 223 OFFCURVE",
"305 132 CURVE SMOOTH",
"305 101 OFFCURVE",
"314 85 OFFCURVE",
"334 85 CURVE SMOOTH"
);
}
);
width = 791;
}
);
unicode = 0040;
},
{
glyphname = b;
lastChange = "2018-10-23 21:24:40 +0000";
layers = (
{
layerId = master01;
paths = (
{
closed = 1;
nodes = (
"380 -9 OFFCURVE",
"478 101 OFFCURVE",
"478 247 CURVE SMOOTH",
"478 376 OFFCURVE",
"401 464 OFFCURVE",
"288 464 CURVE SMOOTH",
"237 464 OFFCURVE",
"194 445 OFFCURVE",
"157 406 CURVE",
"157 714 LINE",
"149 714 LINE",
"12 672 LINE",
"12 660 LINE",
"75 637 LINE",
"75 2 LINE",
"89 2 LINE",
"128 31 LINE",
"132 31 LINE",
"167 5 OFFCURVE",
"208 -9 OFFCURVE",
"251 -9 CURVE SMOOTH"
);
},
{
closed = 1;
nodes = (
"194 21 OFFCURVE",
"157 64 OFFCURVE",
"157 129 CURVE SMOOTH",
"157 373 LINE",
"180 401 OFFCURVE",
"213 418 OFFCURVE",
"252 418 CURVE SMOOTH",
"335 418 OFFCURVE",
"386 344 OFFCURVE",
"386 223 CURVE SMOOTH",
"386 101 OFFCURVE",
"333 21 OFFCURVE",
"251 21 CURVE SMOOTH"
);
}
);
width = 518;
},
{
layerId = "FA6D65B5-4623-4FAC-A199-3F662257AC29";
paths = (
{
closed = 1;
nodes = (
"433 -9 OFFCURVE",
"534 101 OFFCURVE",
"534 247 CURVE SMOOTH",
"534 376 OFFCURVE",
"457 464 OFFCURVE",
"344 464 CURVE SMOOTH",
"289 464 OFFCURVE",
"240 441 OFFCURVE",
"201 403 CURVE",
"201 714 LINE",
"182 714 LINE",
"-4 672 LINE",
"-4 652 LINE",
"68 629 LINE",
"68 0 LINE",
"93 0 LINE",
"167 31 LINE",
"172 31 LINE",
"209 5 OFFCURVE",
"255 -9 OFFCURVE",
"301 -9 CURVE SMOOTH"
);
},
{
closed = 1;
nodes = (
"234 38 OFFCURVE",
"201 81 OFFCURVE",
"201 146 CURVE SMOOTH",
"201 347 LINE",
"222 378 OFFCURVE",
"250 397 OFFCURVE",
"285 397 CURVE SMOOTH",
"351 397 OFFCURVE",
"389 332 OFFCURVE",
"389 223 CURVE SMOOTH",
"389 112 OFFCURVE",
"347 38 OFFCURVE",
"284 38 CURVE SMOOTH"
);
}
);
width = 566;
}
);
leftKerningGroup = b;
rightKerningGroup = b;
unicode = 0062;
},
{
glyphname = backslash;
lastChange = "2018-10-23 21:24:40 +0000";
layers = (
{
layerId = master01;
paths = (
{
closed = 1;
nodes = (
"101 704 LINE",
"40 704 LINE",
"213 -145 LINE",
"273 -145 LINE"
);
}
);
width = 313;
},
{
layerId = "FA6D65B5-4623-4FAC-A199-3F662257AC29";
paths = (
{
closed = 1;
nodes = (
"119 704 LINE",
"33 704 LINE",
"206 -145 LINE",
"291 -145 LINE"
);
}
);
width = 325;
}
);
unicode = 005C;
},
{
glyphname = bar;
lastChange = "2018-10-23 21:24:40 +0000";
layers = (
{
layerId = master01;
paths = (
{
closed = 1;
nodes = (
"147 704 LINE",
"87 704 LINE",
"87 -146 LINE",
"147 -146 LINE"
);
}
);
width = 234;
},
{
layerId = "FA6D65B5-4623-4FAC-A199-3F662257AC29";
paths = (
{
closed = 1;
nodes = (
"165 704 LINE",
"79 704 LINE",
"79 -137 LINE",
"165 -137 LINE"
);
}
);
width = 244;
}
);
unicode = 007C;
},
{
glyphname = bar.tnum;
lastChange = "2018-10-23 21:24:40 +0000";
layers = (
{
layerId = master01;
paths = (
{
closed = 1;
nodes = (
"159 704 LINE",
"99 704 LINE",
"99 -146 LINE",
"159 -146 LINE"
);
}
);
width = 258;
},
{
layerId = "FA6D65B5-4623-4FAC-A199-3F662257AC29";
paths = (
{
closed = 1;
nodes = (
"172 704 LINE",
"86 704 LINE",
"86 -137 LINE",
"172 -137 LINE"
);
}
);
width = 258;
}
);
userData = {
com.typemytype.robofont.mark = (
1,
0.6,
0.6,
1
);
};
},
{
glyphname = braceleft;
lastChange = "2018-10-23 21:24:40 +0000";
layers = (
{
layerId = master01;
paths = (
{
closed = 1;
nodes = (
"236 -163 OFFCURVE",
"218 -167 OFFCURVE",
"195 -167 CURVE SMOOTH",
"119 -167 OFFCURVE",
"85 -136 OFFCURVE",
"85 -60 CURVE SMOOTH",
"85 2 OFFCURVE",
"108 91 OFFCURVE",
"108 167 CURVE SMOOTH",
"108 245 OFFCURVE",
"86 275 OFFCURVE",
"25 275 CURVE",
"25 295 LINE",
"84 295 OFFCURVE",
"108 327 OFFCURVE",
"108 398 CURVE SMOOTH",
"108 464 OFFCURVE",
"85 551 OFFCURVE",
"85 603 CURVE SMOOTH",
"85 673 OFFCURVE",
"127 712 OFFCURVE",
"201 712 CURVE SMOOTH",
"222 712 OFFCURVE",
"239 708 OFFCURVE",
"256 701 CURVE",
"251 679 LINE",
"232 682 OFFCURVE",
"225 683 OFFCURVE",
"216 683 CURVE SMOOTH",
"179 683 OFFCURVE",
"159 651 OFFCURVE",
"159 601 CURVE SMOOTH",
"159 554 OFFCURVE",
"181 463 OFFCURVE",
"181 399 CURVE SMOOTH",
"181 338 OFFCURVE",
"161 302 OFFCURVE",
"119 286 CURVE",
"119 282 LINE",
"163 265 OFFCURVE",
"181 235 OFFCURVE",
"181 174 CURVE SMOOTH",
"181 108 OFFCURVE",
"159 -4 OFFCURVE",
"159 -56 CURVE SMOOTH",
"159 -112 OFFCURVE",
"176 -135 OFFCURVE",
"216 -135 CURVE SMOOTH",
"229 -135 OFFCURVE",
"240 -133 OFFCURVE",
"251 -130 CURVE",
"256 -155 LINE"
);
}
);
width = 281;
},
{
layerId = "FA6D65B5-4623-4FAC-A199-3F662257AC29";
paths = (
{
closed = 1;
nodes = (
"248 -163 OFFCURVE",
"219 -167 OFFCURVE",
"192 -167 CURVE SMOOTH",
"113 -167 OFFCURVE",
"79 -136 OFFCURVE",
"79 -60 CURVE SMOOTH",
"79 2 OFFCURVE",
"101 91 OFFCURVE",
"101 167 CURVE SMOOTH",
"101 242 OFFCURVE",
"80 267 OFFCURVE",
"19 267 CURVE",
"19 303 LINE",
"78 303 OFFCURVE",
"101 330 OFFCURVE",
"101 398 CURVE SMOOTH",
"101 464 OFFCURVE",
"79 551 OFFCURVE",
"79 603 CURVE SMOOTH",
"79 673 OFFCURVE",
"121 712 OFFCURVE",
"198 712 CURVE SMOOTH",
"224 712 OFFCURVE",
"251 708 OFFCURVE",
"273 701 CURVE",
"264 666 LINE",
"248 669 OFFCURVE",
"242 670 OFFCURVE",
"233 670 CURVE SMOOTH",
"196 670 OFFCURVE",
"176 646 OFFCURVE",
"176 601 CURVE SMOOTH",
"176 554 OFFCURVE",
"198 463 OFFCURVE",
"198 399 CURVE SMOOTH",
"198 338 OFFCURVE",
"178 302 OFFCURVE",
"136 286 CURVE",
"136 282 LINE",
"180 265 OFFCURVE",
"198 235 OFFCURVE",
"198 174 CURVE SMOOTH",
"198 108 OFFCURVE",
"176 -4 OFFCURVE",
"176 -56 CURVE SMOOTH",
"176 -102 OFFCURVE",
"194 -122 OFFCURVE",
"233 -122 CURVE SMOOTH",
"244 -122 OFFCURVE",
"255 -120 OFFCURVE",
"264 -117 CURVE",
"273 -155 LINE"
);
}
);
width = 292;
}
);
unicode = 007B;
},
{
glyphname = braceright;
lastChange = "2018-10-23 21:24:40 +0000";
layers = (
{
layerId = master01;
paths = (
{
closed = 1;
nodes = (
"41 -133 OFFCURVE",
"52 -135 OFFCURVE",
"65 -135 CURVE SMOOTH",
"105 -135 OFFCURVE",
"122 -112 OFFCURVE",
"122 -56 CURVE SMOOTH",
"122 -4 OFFCURVE",
"101 108 OFFCURVE",
"101 174 CURVE SMOOTH",
"101 235 OFFCURVE",
"119 265 OFFCURVE",
"163 282 CURVE",
"163 286 LINE",
"120 302 OFFCURVE",
"101 338 OFFCURVE",
"101 399 CURVE SMOOTH",
"101 463 OFFCURVE",
"122 554 OFFCURVE",
"122 601 CURVE SMOOTH",
"122 651 OFFCURVE",
"102 683 OFFCURVE",
"65 683 CURVE SMOOTH",
"56 683 OFFCURVE",
"49 682 OFFCURVE",
"30 679 CURVE",
"25 701 LINE",
"42 708 OFFCURVE",
"59 712 OFFCURVE",
"80 712 CURVE SMOOTH",
"154 712 OFFCURVE",
"196 673 OFFCURVE",
"196 603 CURVE SMOOTH",
"196 551 OFFCURVE",
"174 464 OFFCURVE",
"174 398 CURVE SMOOTH",
"174 327 OFFCURVE",
"197 295 OFFCURVE",
"256 295 CURVE",
"256 275 LINE",
"195 275 OFFCURVE",
"174 245 OFFCURVE",
"174 167 CURVE SMOOTH",
"174 91 OFFCURVE",
"196 2 OFFCURVE",
"196 -60 CURVE SMOOTH",
"196 -136 OFFCURVE",
"163 -167 OFFCURVE",
"86 -167 CURVE SMOOTH",
"64 -167 OFFCURVE",
"46 -163 OFFCURVE",
"25 -155 CURVE",
"30 -130 LINE"
);
}
);
width = 281;
},
{
layerId = "FA6D65B5-4623-4FAC-A199-3F662257AC29";
paths = (
{
closed = 1;
nodes = (
"38 -120 OFFCURVE",
"48 -122 OFFCURVE",
"59 -122 CURVE SMOOTH",
"99 -122 OFFCURVE",
"116 -102 OFFCURVE",
"116 -56 CURVE SMOOTH",
"116 -4 OFFCURVE",
"95 108 OFFCURVE",
"95 174 CURVE SMOOTH",
"95 235 OFFCURVE",
"113 265 OFFCURVE",
"157 282 CURVE",
"157 286 LINE",
"114 302 OFFCURVE",
"95 338 OFFCURVE",
"95 399 CURVE SMOOTH",
"95 463 OFFCURVE",
"116 554 OFFCURVE",
"116 601 CURVE SMOOTH",
"116 646 OFFCURVE",
"96 670 OFFCURVE",
"59 670 CURVE SMOOTH",
"51 670 OFFCURVE",
"45 669 OFFCURVE",
"28 666 CURVE",
"19 701 LINE",
"41 708 OFFCURVE",
"69 712 OFFCURVE",
"95 712 CURVE SMOOTH",
"171 712 OFFCURVE",
"213 673 OFFCURVE",
"213 603 CURVE SMOOTH",
"213 551 OFFCURVE",
"191 464 OFFCURVE",
"191 398 CURVE SMOOTH",
"191 330 OFFCURVE",
"214 303 OFFCURVE",
"273 303 CURVE",
"273 267 LINE",
"212 267 OFFCURVE",
"191 242 OFFCURVE",
"191 167 CURVE SMOOTH",
"191 91 OFFCURVE",
"213 2 OFFCURVE",
"213 -60 CURVE SMOOTH",
"213 -136 OFFCURVE",
"180 -167 OFFCURVE",
"101 -167 CURVE SMOOTH",
"73 -167 OFFCURVE",
"45 -163 OFFCURVE",
"19 -155 CURVE",
"28 -117 LINE"
);
}
);
width = 292;
}
);
unicode = 007D;
},
{
glyphname = bracketleft;
lastChange = "2018-10-23 21:24:40 +0000";
layers = (
{
layerId = master01;
paths = (
{
closed = 1;
nodes = (
"87 705 LINE",
"258 705 LINE",
"258 678 LINE",
"157 678 LINE",
"157 -134 LINE",
"258 -134 LINE",
"258 -161 LINE",
"87 -161 LINE"
);
}
);
width = 279;
},
{
layerId = "FA6D65B5-4623-4FAC-A199-3F662257AC29";
paths = (
{
closed = 1;
nodes = (
"79 705 LINE",
"273 705 LINE",
"273 662 LINE",
"180 662 LINE",
"180 -119 LINE",
"273 -119 LINE",
"273 -161 LINE",
"79 -161 LINE"
);
}
);
width = 290;
}
);
unicode = 005B;
},
{
glyphname = bracketright;
lastChange = "2018-10-23 21:24:40 +0000";
layers = (
{
layerId = master01;
paths = (
{
closed = 1;
nodes = (
"21 -134 LINE",
"122 -134 LINE",
"122 678 LINE",
"21 678 LINE",
"21 705 LINE",
"192 705 LINE",
"192 -161 LINE",
"21 -161 LINE"
);
}
);
width = 279;
},
{
layerId = "FA6D65B5-4623-4FAC-A199-3F662257AC29";
paths = (
{
closed = 1;
nodes = (
"17 -119 LINE",
"110 -119 LINE",
"110 662 LINE",
"17 662 LINE",
"17 705 LINE",
"211 705 LINE",
"211 -161 LINE",
"17 -161 LINE"
);
}
);
width = 290;
}
);
unicode = 005D;
},
{
glyphname = breve;
lastChange = "2018-10-23 21:24:40 +0000";
layers = (
{
anchors = (
{
name = _top;
position = "{126, 560}";
}
);
layerId = master01;
paths = (
{
closed = 1;
nodes = (
"52 640 OFFCURVE",
"89 624 OFFCURVE",
"130 624 CURVE SMOOTH",
"168 624 OFFCURVE",
"204 640 OFFCURVE",
"224 679 CURVE",
"253 679 LINE",
"225 573 OFFCURVE",
"163 560 OFFCURVE",
"126 560 CURVE SMOOTH",
"77 560 OFFCURVE",
"18 590 OFFCURVE",
"9 679 CURVE",
"39 679 LINE"
);
}
);
width = 261;
},
{
anchors = (
{
name = _top;
position = "{138, 560}";
}
);
layerId = "FA6D65B5-4623-4FAC-A199-3F662257AC29";
paths = (
{
closed = 1;
nodes = (
"65 652 OFFCURVE",
"101 641 OFFCURVE",
"138 641 CURVE SMOOTH",
"175 641 OFFCURVE",
"209 652 OFFCURVE",
"228 679 CURVE",
"270 679 LINE",
"241 565 OFFCURVE",
"175 551 OFFCURVE",
"135 551 CURVE SMOOTH",
"82 551 OFFCURVE",
"19 584 OFFCURVE",
"9 679 CURVE",
"52 679 LINE"
);
}
);
width = 279;
}
);
unicode = 02D8;
},
{
glyphname = breve.cap;
lastChange = "2018-10-23 21:24:40 +0000";
layers = (
{
anchors = (
{
name = _topcap;
position = "{126, 714}";
}
);
layerId = master01;
paths = (
{
closed = 1;
nodes = (
"52 791 OFFCURVE",
"89 777 OFFCURVE",
"130 777 CURVE SMOOTH",
"168 777 OFFCURVE",
"204 791 OFFCURVE",
"224 825 CURVE",
"253 825 LINE",
"225 726 OFFCURVE",
"163 714 OFFCURVE",
"126 714 CURVE SMOOTH",
"77 714 OFFCURVE",
"18 741 OFFCURVE",
"9 825 CURVE",
"39 825 LINE"
);
}
);
width = 261;
},
{
anchors = (
{
name = _topcap;
position = "{135, 713}";
}
);
layerId = "FA6D65B5-4623-4FAC-A199-3F662257AC29";
paths = (
{
closed = 1;
nodes = (
"65 810 OFFCURVE",
"101 802 OFFCURVE",
"138 802 CURVE SMOOTH",
"175 802 OFFCURVE",
"209 810 OFFCURVE",
"228 830 CURVE",
"270 830 LINE",
"241 725 OFFCURVE",
"175 713 OFFCURVE",
"135 713 CURVE SMOOTH",
"82 713 OFFCURVE",
"19 742 OFFCURVE",
"9 830 CURVE",
"52 830 LINE"
);
}
);
width = 279;
}
);
},
{
glyphname = brokenbar;
lastChange = "2018-10-23 21:24:40 +0000";
layers = (
{
layerId = master01;
paths = (
{
closed = 1;
nodes = (
"147 704 LINE",
"89 704 LINE",
"89 372 LINE",
"147 372 LINE"
);
},
{
closed = 1;
nodes = (
"147 186 LINE",
"89 186 LINE",
"89 -147 LINE",
"147 -147 LINE"
);
}
);
width = 237;
},
{
layerId = "FA6D65B5-4623-4FAC-A199-3F662257AC29";
paths = (
{
closed = 1;
nodes = (
"163 704 LINE",
"81 704 LINE",
"81 371 LINE",
"163 371 LINE"
);
},
{
closed = 1;
nodes = (
"163 187 LINE",
"81 187 LINE",
"81 -147 LINE",
"163 -147 LINE"
);
}
);
width = 244;
}
);
unicode = 00A6;
},
{
glyphname = bullet;
lastChange = "2018-10-23 21:24:40 +0000";
layers = (
{
layerId = master01;
paths = (
{
closed = 1;
nodes = (
"73 267 OFFCURVE",
"120 223 OFFCURVE",
"176 223 CURVE SMOOTH",
"233 223 OFFCURVE",
"280 267 OFFCURVE",
"280 322 CURVE SMOOTH",
"280 376 OFFCURVE",
"233 421 OFFCURVE",
"176 421 CURVE SMOOTH",
"120 421 OFFCURVE",
"73 376 OFFCURVE",
"73 322 CURVE SMOOTH {name = hr00;}"
);
}
);
width = 353;
},
{
layerId = "FA6D65B5-4623-4FAC-A199-3F662257AC29";
paths = (
{
closed = 1;
nodes = (
"62 256 OFFCURVE",
"119 203 OFFCURVE",
"187 203 CURVE SMOOTH",
"255 203 OFFCURVE",
"310 256 OFFCURVE",
"310 322 CURVE SMOOTH",
"310 387 OFFCURVE",
"255 440 OFFCURVE",
"187 440 CURVE SMOOTH",
"119 440 OFFCURVE",
"62 387 OFFCURVE",
"62 322 CURVE SMOOTH {name = hr00;}"
);
}
);
width = 372;
}
);
unicode = 2022;
},
{
glyphname = c;
lastChange = "2018-10-23 21:24:40 +0000";
layers = (
{
anchors = (
{
name = bottom;
position = "{250, 0}";
},
{
name = top;
position = "{265, 560}";
}
);
layerId = master01;
paths = (
{
closed = 1;
nodes = (
"333 -9 OFFCURVE",
"397 34 OFFCURVE",
"427 110 CURVE SMOOTH",
"431 121 LINE",
"415 130 LINE",
"405 117 LINE SMOOTH",
"374 75 OFFCURVE",
"327 54 OFFCURVE",
"275 54 CURVE SMOOTH",
"181 54 OFFCURVE",
"127 122 OFFCURVE",
"127 239 CURVE SMOOTH",
"127 359 OFFCURVE",
"180 437 OFFCURVE",
"271 437 CURVE SMOOTH",
"310 437 OFFCURVE",
"326 425 OFFCURVE",
"333 368 CURVE SMOOTH",
"337 331 OFFCURVE",
"353 314 OFFCURVE",
"384 314 CURVE SMOOTH",
"409 314 OFFCURVE",
"423 334 OFFCURVE",
"423 363 CURVE SMOOTH",
"423 418 OFFCURVE",
"356 464 OFFCURVE",
"268 464 CURVE SMOOTH",
"134 464 OFFCURVE",
"40 364 OFFCURVE",
"40 222 CURVE SMOOTH",
"40 86 OFFCURVE",
"126 -9 OFFCURVE",
"249 -9 CURVE SMOOTH"
);
}
);
width = 460;
},
{
layerId = "FA6D65B5-4623-4FAC-A199-3F662257AC29";
paths = (
{
closed = 1;
nodes = (
"355 -9 OFFCURVE",
"422 32 OFFCURVE",
"457 114 CURVE SMOOTH",
"461 125 LINE",
"437 144 LINE",
"431 137 LINE SMOOTH",
"399 100 OFFCURVE",
"355 80 OFFCURVE",
"304 80 CURVE SMOOTH",
"218 80 OFFCURVE",
"175 138 OFFCURVE",
"175 249 CURVE SMOOTH",
"175 358 OFFCURVE",
"218 420 OFFCURVE",
"290 420 CURVE SMOOTH",
"336 420 OFFCURVE",
"347 389 OFFCURVE",
"353 348 CURVE SMOOTH",
"356 323 OFFCURVE",
"366 292 OFFCURVE",
"409 292 CURVE SMOOTH",
"445 292 OFFCURVE",
"467 315 OFFCURVE",
"467 350 CURVE SMOOTH",
"467 415 OFFCURVE",
"390 464 OFFCURVE",
"286 464 CURVE SMOOTH",
"137 464 OFFCURVE",
"31 363 OFFCURVE",
"31 222 CURVE SMOOTH",
"31 88 OFFCURVE",
"127 -9 OFFCURVE",
"262 -9 CURVE SMOOTH"
);
}
);
width = 491;
}
);
leftKerningGroup = e;
rightKerningGroup = c;
unicode = 0063;
},
{
glyphname = c_t;
lastChange = "2018-10-23 21:24:40 +0000";
layers = (
{
layerId = master01;
paths = (
{
closed = 1;
nodes = (
"333 -9 OFFCURVE",
"397 34 OFFCURVE",
"427 110 CURVE SMOOTH",
"431 121 LINE",
"415 130 LINE",
"405 117 LINE SMOOTH",
"375 77 OFFCURVE",
"329 54 OFFCURVE",
"274 54 CURVE SMOOTH",
"180 54 OFFCURVE",
"127 122 OFFCURVE",
"127 243 CURVE SMOOTH",
"127 364 OFFCURVE",
"180 437 OFFCURVE",
"267 437 CURVE SMOOTH",
"298 437 OFFCURVE",
"310 427 OFFCURVE",
"324 385 CURVE SMOOTH",
"340 340 OFFCURVE",
"347 331 OFFCURVE",
"370 331 CURVE SMOOTH",
"397 331 OFFCURVE",
"415 347 OFFCURVE",
"415 375 CURVE SMOOTH",
"415 406 OFFCURVE",
"390 429 OFFCURVE",
"356 448 CURVE SMOOTH",
"317 470 OFFCURVE",
"304 504 OFFCURVE",
"304 551 CURVE SMOOTH",
"304 638 OFFCURVE",
"357 692 OFFCURVE",
"440 692 CURVE SMOOTH",
"520 692 OFFCURVE",
"565 642 OFFCURVE",
"565 555 CURVE SMOOTH",
"565 489 OFFCURVE",
"541 451 OFFCURVE",
"494 439 CURVE",
"495 426 LINE",
"551 426 LINE",
"551 114 LINE SMOOTH",
"551 31 OFFCURVE",
"581 -9 OFFCURVE",
"644 -9 CURVE SMOOTH",
"693 -9 OFFCURVE",
"736 15 OFFCURVE",
"764 56 CURVE",
"749 67 LINE",
"728 43 OFFCURVE",
"706 32 OFFCURVE",
"680 32 CURVE SMOOTH",
"644 32 OFFCURVE",
"633 53 OFFCURVE",
"633 121 CURVE SMOOTH",
"633 426 LINE",
"749 426 LINE",
"756 456 LINE",
"633 456 LINE",
"636 480 OFFCURVE",
"638 503 OFFCURVE",
"638 524 CURVE SMOOTH",
"638 651 OFFCURVE",
"570 722 OFFCURVE",
"449 722 CURVE SMOOTH",
"332 722 OFFCURVE",
"248 656 OFFCURVE",
"248 564 CURVE SMOOTH",
"248 525 OFFCURVE",
"264 488 OFFCURVE",
"297 466 CURVE",
"297 463 LINE",
"292 464 OFFCURVE",
"279 464 OFFCURVE",
"269 464 CURVE SMOOTH",
"134 464 OFFCURVE",
"40 365 OFFCURVE",
"40 222 CURVE SMOOTH",
"40 86 OFFCURVE",
"126 -9 OFFCURVE",
"249 -9 CURVE SMOOTH"
);
}
);
width = 770;
},
{
layerId = "FA6D65B5-4623-4FAC-A199-3F662257AC29";
paths = (
{
closed = 1;
nodes = (
"355 -9 OFFCURVE",
"422 32 OFFCURVE",
"457 114 CURVE SMOOTH",
"461 125 LINE",
"437 144 LINE",
"431 137 LINE SMOOTH",
"399 100 OFFCURVE",
"355 80 OFFCURVE",
"304 80 CURVE SMOOTH",
"218 80 OFFCURVE",
"175 138 OFFCURVE",
"175 249 CURVE SMOOTH",
"175 358 OFFCURVE",
"218 420 OFFCURVE",
"290 420 CURVE SMOOTH",
"336 420 OFFCURVE",
"347 389 OFFCURVE",
"353 348 CURVE SMOOTH",
"356 323 OFFCURVE",
"366 292 OFFCURVE",
"409 292 CURVE SMOOTH",
"445 292 OFFCURVE",
"467 315 OFFCURVE",
"467 350 CURVE SMOOTH",
"467 383 OFFCURVE",
"445 409 OFFCURVE",
"415 432 CURVE SMOOTH",
"389 451 OFFCURVE",
"378 492 OFFCURVE",
"378 540 CURVE SMOOTH",
"378 622 OFFCURVE",
"417 667 OFFCURVE",
"488 667 CURVE SMOOTH",
"552 667 OFFCURVE",
"587 631 OFFCURVE",
"587 566 CURVE SMOOTH",
"587 505 OFFCURVE",
"557 464 OFFCURVE",
"496 439 CURVE",
"501 413 LINE",
"562 413 LINE",
"562 114 LINE SMOOTH",
"562 12 OFFCURVE",
"608 -9 OFFCURVE",
"686 -9 CURVE SMOOTH",
"745 -9 OFFCURVE",
"794 12 OFFCURVE",
"823 49 CURVE",
"803 77 LINE",
"789 61 OFFCURVE",
"772 53 OFFCURVE",
"751 53 CURVE SMOOTH",
"717 53 OFFCURVE",
"696 58 OFFCURVE",
"696 143 CURVE SMOOTH",
"696 413 LINE",
"816 413 LINE",
"829 456 LINE",
"696 456 LINE",
"703 482 OFFCURVE",
"705 506 OFFCURVE",
"705 529 CURVE SMOOTH",
"705 640 OFFCURVE",
"628 713 OFFCURVE",
"501 713 CURVE SMOOTH",
"378 713 OFFCURVE",
"287 647 OFFCURVE",
"287 557 CURVE SMOOTH",
"287 521 OFFCURVE",
"304 484 OFFCURVE",
"337 464 CURVE",
"337 460 LINE",
"321 463 OFFCURVE",
"304 464 OFFCURVE",
"286 464 CURVE SMOOTH",
"137 464 OFFCURVE",
"31 363 OFFCURVE",
"31 222 CURVE SMOOTH",
"31 88 OFFCURVE",
"127 -9 OFFCURVE",
"262 -9 CURVE SMOOTH"
);
}
);
width = 831;
}
);
leftKerningGroup = e;
rightKerningGroup = t;
},
{
glyphname = caron;
lastChange = "2018-10-23 21:24:40 +0000";
layers = (
{
anchors = (
{
name = _top;
position = "{119, 560}";
}
);
layerId = master01;
paths = (
{
closed = 1;
nodes = (
"138 542 OFFCURVE",
"148 550 OFFCURVE",
"156 567 CURVE SMOOTH",
"229 728 LINE",
"211 739 LINE",
"119 617 LINE",
"27 739 LINE",
"9 728 LINE",
"80 567 LINE SMOOTH",
"88 550 OFFCURVE",
"97 542 OFFCURVE",
"119 542 CURVE SMOOTH"
);
}
);
width = 237;
},
{
anchors = (
{
name = _top;
position = "{140, 560}";
}
);
layerId = "FA6D65B5-4623-4FAC-A199-3F662257AC29";
paths = (
{
closed = 1;
nodes = (
"168 542 OFFCURVE",
"182 553 OFFCURVE",
"198 583 CURVE SMOOTH",
"272 728 LINE",
"245 739 LINE",
"140 639 LINE",
"35 739 LINE",
"9 728 LINE",
"81 583 LINE SMOOTH",
"95 554 OFFCURVE",
"114 542 OFFCURVE",
"141 542 CURVE SMOOTH"
);
}
);
width = 280;
}
);
unicode = 02C7;
},
{
glyphname = caron.alt;
lastChange = "2018-10-23 21:24:40 +0000";
layers = (
{
anchors = (
{
name = _top;
position = "{46, 560}";
}
);
layerId = master01;
paths = (
{
closed = 1;
nodes = (
"15 692 LINE SMOOTH",
"16 721 OFFCURVE",
"28 737 OFFCURVE",
"58 737 CURVE SMOOTH",
"74 737 OFFCURVE",
"83 726 OFFCURVE",
"83 707 CURVE SMOOTH",
"83 697 OFFCURVE",
"79 684 OFFCURVE",
"73 667 CURVE SMOOTH",
"31 552 LINE",
"9 552 LINE"
);
}
);
width = 92;
},
{
anchors = (
{
name = _top;
position = "{29, 560}";
}
);
layerId = "FA6D65B5-4623-4FAC-A199-3F662257AC29";
paths = (
{
closed = 1;
nodes = (
"14 673 LINE SMOOTH",
"14 716 OFFCURVE",
"38 737 OFFCURVE",
"71 737 CURVE SMOOTH",
"93 737 OFFCURVE",
"104 724 OFFCURVE",
"104 703 CURVE SMOOTH",
"104 690 OFFCURVE",
"101 674 OFFCURVE",
"93 658 CURVE SMOOTH",
"41 552 LINE",
"14 552 LINE"
);
}
);
width = 113;
}
);
},
{
glyphname = caron.cap;
lastChange = "2018-10-23 21:24:40 +0000";
layers = (
{
anchors = (
{
name = _topcap;
position = "{135, 705}";
}
);
layerId = master01;
paths = (
{
closed = 1;
nodes = (
"155 705 OFFCURVE",
"166 712 OFFCURVE",
"182 728 CURVE SMOOTH",
"262 811 LINE",
"246 826 LINE",
"135 776 LINE",
"26 826 LINE",
"9 811 LINE",
"89 728 LINE SMOOTH",
"104 714 OFFCURVE",
"114 705 OFFCURVE",
"135 705 CURVE SMOOTH"
);
}
);
width = 271;
},
{
anchors = (
{
name = _topcap;
position = "{158, 705}";
}
);
layerId = "FA6D65B5-4623-4FAC-A199-3F662257AC29";
paths = (
{
closed = 1;
nodes = (
"177 706 OFFCURVE",
"194 716 OFFCURVE",
"217 734 CURVE SMOOTH",
"306 807 LINE",
"292 826 LINE",
"157 790 LINE",
"22 826 LINE",
"9 807 LINE",
"96 734 LINE SMOOTH",
"120 716 OFFCURVE",
"136 706 OFFCURVE",
"158 706 CURVE SMOOTH"
);
}
);
width = 315;
}
);
},
{
glyphname = cedilla;
lastChange = "2018-10-23 21:24:40 +0000";
layers = (
{
anchors = (
{
name = _bottom;
position = "{95, 0}";
}
);
layerId = master01;
paths = (
{
closed = 1;
nodes = (
"23 -213 OFFCURVE",
"49 -221 OFFCURVE",
"76 -221 CURVE SMOOTH",
"145 -221 OFFCURVE",
"189 -184 OFFCURVE",
"189 -134 CURVE SMOOTH",
"189 -86 OFFCURVE",
"151 -50 OFFCURVE",
"90 -50 CURVE",
"115 15 LINE",
"83 15 LINE",
"32 -107 LINE",
"40 -114 LINE",
"53 -110 OFFCURVE",
"71 -108 OFFCURVE",
"83 -108 CURVE SMOOTH",
"110 -108 OFFCURVE",
"125 -121 OFFCURVE",
"125 -144 CURVE SMOOTH",
"125 -170 OFFCURVE",
"103 -189 OFFCURVE",
"69 -189 CURVE SMOOTH",
"52 -189 OFFCURVE",
"40 -186 OFFCURVE",
"21 -175 CURVE",
"9 -200 LINE"
);
}
);
width = 198;
},
{
anchors = (
{
name = _bottom;
position = "{103, 0}";
}
);
layerId = "FA6D65B5-4623-4FAC-A199-3F662257AC29";
paths = (
{
closed = 1;
nodes = (
"27 -213 OFFCURVE",
"59 -221 OFFCURVE",
"93 -221 CURVE SMOOTH",
"163 -221 OFFCURVE",
"206 -184 OFFCURVE",
"206 -134 CURVE SMOOTH",
"206 -86 OFFCURVE",
"169 -50 OFFCURVE",
"108 -50 CURVE",
"132 15 LINE",
"83 15 LINE",
"32 -115 LINE",
"44 -123 LINE",
"55 -119 OFFCURVE",
"72 -116 OFFCURVE",
"83 -116 CURVE SMOOTH",
"103 -116 OFFCURVE",
"116 -126 OFFCURVE",
"116 -142 CURVE SMOOTH",
"116 -158 OFFCURVE",
"98 -174 OFFCURVE",
"71 -174 CURVE SMOOTH",
"57 -174 OFFCURVE",
"41 -170 OFFCURVE",
"25 -162 CURVE",
"9 -200 LINE"
);
}
);
width = 215;
}
);
unicode = 00B8;
},
{
glyphname = cent;
lastChange = "2018-10-23 21:24:40 +0000";
layers = (
{
layerId = master01;
paths = (
{
closed = 1;
nodes = (
"139 464 OFFCURVE",
"45 364 OFFCURVE",
"45 222 CURVE SMOOTH",
"45 86 OFFCURVE",
"132 -9 OFFCURVE",
"255 -9 CURVE SMOOTH",
"338 -9 OFFCURVE",
"402 34 OFFCURVE",
"432 110 CURVE SMOOTH",
"436 121 LINE",
"420 130 LINE",
"410 117 LINE SMOOTH",
"379 75 OFFCURVE",
"332 54 OFFCURVE",
"280 54 CURVE SMOOTH",
"187 54 OFFCURVE",
"132 122 OFFCURVE",
"132 239 CURVE SMOOTH",
"132 359 OFFCURVE",
"194 437 OFFCURVE",
"260 437 CURVE SMOOTH",
"310 437 OFFCURVE",
"339 419 OFFCURVE",
"347 368 CURVE SMOOTH",
"353 331 OFFCURVE",
"367 314 OFFCURVE",
"397 314 CURVE SMOOTH",
"422 314 OFFCURVE",
"437 334 OFFCURVE",
"437 363 CURVE SMOOTH",
"437 418 OFFCURVE",
"366 464 OFFCURVE",
"273 464 CURVE SMOOTH"
);
},
{
closed = 1;
nodes = (
"243 576 LINE",
"243 -112 LINE",
"279 -112 LINE",
"279 576 LINE"
);
}
);
width = 476;
},
{
layerId = "FA6D65B5-4623-4FAC-A199-3F662257AC29";
paths = (
{
closed = 1;
nodes = (
"132 464 OFFCURVE",
"37 364 OFFCURVE",
"37 222 CURVE SMOOTH",
"37 86 OFFCURVE",
"124 -9 OFFCURVE",
"247 -9 CURVE SMOOTH",
"330 -9 OFFCURVE",
"395 34 OFFCURVE",
"424 110 CURVE SMOOTH",
"428 121 LINE",
"412 130 LINE",
"402 117 LINE SMOOTH",
"372 75 OFFCURVE",
"324 54 OFFCURVE",
"273 54 CURVE SMOOTH",
"179 54 OFFCURVE",
"125 122 OFFCURVE",
"125 239 CURVE SMOOTH",
"125 359 OFFCURVE",
"187 437 OFFCURVE",
"252 437 CURVE SMOOTH",
"303 437 OFFCURVE",
"331 419 OFFCURVE",
"339 368 CURVE SMOOTH",
"345 331 OFFCURVE",
"359 314 OFFCURVE",
"390 314 CURVE SMOOTH",
"415 314 OFFCURVE",
"429 334 OFFCURVE",
"429 363 CURVE SMOOTH",
"429 418 OFFCURVE",
"359 464 OFFCURVE",
"266 464 CURVE SMOOTH"
);
},
{
closed = 1;
nodes = (
"235 576 LINE",
"235 -112 LINE",
"271 -112 LINE",
"271 576 LINE"
);
}
);
width = 462;
}
);
unicode = 00A2;
},
{
glyphname = cent.tnum;
lastChange = "2018-10-23 21:24:40 +0000";
layers = (
{
layerId = master01;
paths = (
{
closed = 1;
nodes = (
"157 464 OFFCURVE",
"62 364 OFFCURVE",
"62 222 CURVE SMOOTH",
"62 86 OFFCURVE",
"149 -9 OFFCURVE",
"272 -9 CURVE SMOOTH",
"355 -9 OFFCURVE",
"420 34 OFFCURVE",
"449 110 CURVE SMOOTH",
"453 121 LINE",
"437 130 LINE",
"427 117 LINE SMOOTH",
"396 75 OFFCURVE",
"349 54 OFFCURVE",
"298 54 CURVE SMOOTH",
"204 54 OFFCURVE",
"150 122 OFFCURVE",
"150 239 CURVE SMOOTH",
"150 359 OFFCURVE",
"212 437 OFFCURVE",
"277 437 CURVE SMOOTH",
"328 437 OFFCURVE",
"356 419 OFFCURVE",
"364 368 CURVE SMOOTH",
"370 331 OFFCURVE",
"384 314 OFFCURVE",
"415 314 CURVE SMOOTH",
"439 314 OFFCURVE",
"454 334 OFFCURVE",
"454 363 CURVE SMOOTH",
"454 418 OFFCURVE",
"384 464 OFFCURVE",
"291 464 CURVE SMOOTH"
);
},
{
closed = 1;
nodes = (
"260 576 LINE",
"260 -112 LINE",
"296 -112 LINE",
"296 576 LINE"
);
}
);
width = 516;
},
{
layerId = "FA6D65B5-4623-4FAC-A199-3F662257AC29";
paths = (
{
closed = 1;
nodes = (
"157 464 OFFCURVE",
"62 364 OFFCURVE",
"62 222 CURVE SMOOTH",
"62 86 OFFCURVE",
"149 -9 OFFCURVE",
"272 -9 CURVE SMOOTH",
"355 -9 OFFCURVE",
"420 34 OFFCURVE",
"449 110 CURVE SMOOTH",
"453 121 LINE",
"437 130 LINE",
"427 117 LINE SMOOTH",
"396 75 OFFCURVE",
"349 54 OFFCURVE",
"298 54 CURVE SMOOTH",
"204 54 OFFCURVE",
"150 122 OFFCURVE",
"150 239 CURVE SMOOTH",
"150 359 OFFCURVE",
"212 437 OFFCURVE",
"277 437 CURVE SMOOTH",
"328 437 OFFCURVE",
"356 419 OFFCURVE",
"364 368 CURVE SMOOTH",
"370 331 OFFCURVE",
"384 314 OFFCURVE",
"415 314 CURVE SMOOTH",
"439 314 OFFCURVE",
"454 334 OFFCURVE",
"454 363 CURVE SMOOTH",
"454 418 OFFCURVE",
"384 464 OFFCURVE",
"291 464 CURVE SMOOTH"
);
},
{
closed = 1;
nodes = (
"260 576 LINE",
"260 -112 LINE",
"296 -112 LINE",
"296 576 LINE"
);
}
);
width = 516;
}
);
userData = {
com.typemytype.robofont.mark = (
1,
0.6,
0.6,
1
);
};
},
{
glyphname = circumflex;
lastChange = "2018-10-23 21:24:40 +0000";
layers = (
{
anchors = (
{
name = _top;
position = "{119, 560}";
}
);
layerId = master01;
paths = (
{
closed = 1;
nodes = (
"99 737 OFFCURVE",
"88 728 OFFCURVE",
"81 712 CURVE SMOOTH",
"9 550 LINE",
"26 540 LINE",
"117 661 LINE",
"210 540 LINE",
"229 550 LINE",
"157 712 LINE SMOOTH",
"149 728 OFFCURVE",
"139 737 OFFCURVE",
"120 737 CURVE SMOOTH"
);
}
);
width = 237;
},
{
anchors = (
{
name = _top;
position = "{140, 560}";
}
);
layerId = "FA6D65B5-4623-4FAC-A199-3F662257AC29";
paths = (
{
closed = 1;
nodes = (
"114 739 OFFCURVE",
"95 727 OFFCURVE",
"81 697 CURVE SMOOTH",
"9 552 LINE",
"35 542 LINE",
"140 642 LINE",
"245 542 LINE",
"272 552 LINE",
"198 697 LINE SMOOTH",
"182 728 OFFCURVE",
"168 739 OFFCURVE",
"141 739 CURVE SMOOTH"
);
}
);
width = 280;
}
);
unicode = 02C6;
},
{
glyphname = circumflex.cap;
lastChange = "2018-10-23 21:24:40 +0000";
layers = (
{
anchors = (
{
name = _topcap;
position = "{135, 714}";
}
);
layerId = master01;
paths = (
{
closed = 1;
nodes = (
"114 826 OFFCURVE",
"104 817 OFFCURVE",
"89 802 CURVE SMOOTH",
"9 720 LINE",
"26 705 LINE",
"135 755 LINE",
"246 705 LINE",
"262 720 LINE",
"182 802 LINE SMOOTH",
"166 819 OFFCURVE",
"155 826 OFFCURVE",
"135 826 CURVE SMOOTH"
);
}
);
width = 271;
},
{
anchors = (
{
name = _topcap;
position = "{157, 714}";
}
);
layerId = "FA6D65B5-4623-4FAC-A199-3F662257AC29";
paths = (
{
closed = 1;
nodes = (
"136 826 OFFCURVE",
"120 816 OFFCURVE",
"96 797 CURVE SMOOTH",
"9 725 LINE",
"22 706 LINE",
"157 741 LINE",
"292 706 LINE",
"306 725 LINE",
"217 797 LINE SMOOTH",
"194 816 OFFCURVE",
"177 826 OFFCURVE",
"158 826 CURVE SMOOTH"
);
}
);
width = 315;
}
);
},
{
glyphname = colon;
lastChange = "2018-10-23 21:24:40 +0000";
layers = (
{
layerId = master01;
paths = (
{
closed = 1;
nodes = (
"63 313 OFFCURVE",
"86 286 OFFCURVE",
"121 286 CURVE SMOOTH",
"158 286 OFFCURVE",
"181 313 OFFCURVE",
"181 345 CURVE SMOOTH",
"181 379 OFFCURVE",
"158 405 OFFCURVE",
"121 405 CURVE SMOOTH",
"86 405 OFFCURVE",
"63 379 OFFCURVE",
"63 345 CURVE SMOOTH"
);
},
{
closed = 1;
nodes = (
"63 18 OFFCURVE",
"86 -9 OFFCURVE",
"121 -9 CURVE SMOOTH",
"158 -9 OFFCURVE",
"181 18 OFFCURVE",
"181 50 CURVE SMOOTH",
"181 84 OFFCURVE",
"158 110 OFFCURVE",
"121 110 CURVE SMOOTH",
"86 110 OFFCURVE",
"63 84 OFFCURVE",
"63 50 CURVE SMOOTH"
);
}
);
width = 244;
},
{
layerId = "FA6D65B5-4623-4FAC-A199-3F662257AC29";
paths = (
{
closed = 1;
nodes = (
"54 298 OFFCURVE",
"79 263 OFFCURVE",
"127 263 CURVE SMOOTH",
"178 263 OFFCURVE",
"204 298 OFFCURVE",
"204 334 CURVE SMOOTH",
"204 372 OFFCURVE",
"175 405 OFFCURVE",
"127 405 CURVE SMOOTH",
"81 405 OFFCURVE",
"54 372 OFFCURVE",
"54 334 CURVE SMOOTH"
);
},
{
closed = 1;
nodes = (
"54 27 OFFCURVE",
"79 -9 OFFCURVE",
"127 -9 CURVE SMOOTH",
"178 -9 OFFCURVE",
"204 27 OFFCURVE",
"204 62 CURVE SMOOTH",
"204 100 OFFCURVE",
"175 133 OFFCURVE",
"127 133 CURVE SMOOTH",
"81 133 OFFCURVE",
"54 100 OFFCURVE",
"54 62 CURVE SMOOTH"
);
}
);
width = 258;
}
);
leftKerningGroup = colon;
rightKerningGroup = colon;
unicode = 003A;
},
{
glyphname = colon.tnum;
lastChange = "2018-10-23 21:24:40 +0000";
layers = (
{
layerId = master01;
paths = (
{
closed = 1;
nodes = (
"70 313 OFFCURVE",
"93 286 OFFCURVE",
"128 286 CURVE SMOOTH",
"165 286 OFFCURVE",
"188 313 OFFCURVE",
"188 345 CURVE SMOOTH",
"188 379 OFFCURVE",
"165 405 OFFCURVE",
"128 405 CURVE SMOOTH",
"93 405 OFFCURVE",
"70 379 OFFCURVE",
"70 345 CURVE SMOOTH"
);
},
{
closed = 1;
nodes = (
"70 18 OFFCURVE",
"93 -9 OFFCURVE",
"128 -9 CURVE SMOOTH",
"165 -9 OFFCURVE",
"188 18 OFFCURVE",
"188 50 CURVE SMOOTH",
"188 84 OFFCURVE",
"165 110 OFFCURVE",
"128 110 CURVE SMOOTH",
"93 110 OFFCURVE",
"70 84 OFFCURVE",
"70 50 CURVE SMOOTH"
);
}
);
width = 258;
},
{
layerId = "FA6D65B5-4623-4FAC-A199-3F662257AC29";
paths = (
{
closed = 1;
nodes = (
"54 298 OFFCURVE",
"79 263 OFFCURVE",
"127 263 CURVE SMOOTH",
"178 263 OFFCURVE",
"204 298 OFFCURVE",
"204 334 CURVE SMOOTH",
"204 372 OFFCURVE",
"175 405 OFFCURVE",
"127 405 CURVE SMOOTH",
"81 405 OFFCURVE",
"54 372 OFFCURVE",
"54 334 CURVE SMOOTH"
);
},
{
closed = 1;
nodes = (
"54 27 OFFCURVE",
"79 -9 OFFCURVE",
"127 -9 CURVE SMOOTH",
"178 -9 OFFCURVE",
"204 27 OFFCURVE",
"204 62 CURVE SMOOTH",
"204 100 OFFCURVE",
"175 133 OFFCURVE",
"127 133 CURVE SMOOTH",
"81 133 OFFCURVE",
"54 100 OFFCURVE",
"54 62 CURVE SMOOTH"
);
}
);
width = 258;
}
);
userData = {
com.typemytype.robofont.mark = (
1,
0.6,
0.6,
1
);
};
},
{
glyphname = comma;
lastChange = "2018-10-23 21:24:40 +0000";
layers = (
{
layerId = master01;
paths = (
{
closed = 1;
nodes = (
"141 -87 OFFCURVE",
"172 -33 OFFCURVE",
"172 37 CURVE SMOOTH",
"172 77 OFFCURVE",
"148 110 OFFCURVE",
"111 110 CURVE SMOOTH",
"78 110 OFFCURVE",
"53 85 OFFCURVE",
"53 52 CURVE SMOOTH",
"53 0 OFFCURVE",
"118 9 OFFCURVE",
"118 -31 CURVE SMOOTH",
"118 -51 OFFCURVE",
"96 -81 OFFCURVE",
"65 -105 CURVE",
"82 -130 LINE"
);
}
);
width = 226;
},
{
layerId = "FA6D65B5-4623-4FAC-A199-3F662257AC29";
paths = (
{
closed = 1;
nodes = (
"151 -99 OFFCURVE",
"194 -34 OFFCURVE",
"194 40 CURVE SMOOTH",
"194 103 OFFCURVE",
"164 142 OFFCURVE",
"117 142 CURVE SMOOTH",
"75 142 OFFCURVE",
"44 114 OFFCURVE",
"44 75 CURVE SMOOTH",
"44 13 OFFCURVE",
"125 19 OFFCURVE",
"125 -22 CURVE SMOOTH",
"125 -45 OFFCURVE",
"97 -81 OFFCURVE",
"59 -108 CURVE",
"80 -137 LINE"
);
}
);
width = 238;
}
);
leftKerningGroup = period;
rightKerningGroup = period;
unicode = 002C;
},
{
glyphname = comma.tnum;
lastChange = "2018-10-23 21:24:40 +0000";
layers = (
{
layerId = master01;
paths = (
{
closed = 1;
nodes = (
"157 -87 OFFCURVE",
"188 -33 OFFCURVE",
"188 37 CURVE SMOOTH",
"188 77 OFFCURVE",
"164 110 OFFCURVE",
"127 110 CURVE SMOOTH",
"95 110 OFFCURVE",
"70 85 OFFCURVE",
"70 52 CURVE SMOOTH",
"70 0 OFFCURVE",
"134 9 OFFCURVE",
"134 -31 CURVE SMOOTH",
"134 -51 OFFCURVE",
"113 -81 OFFCURVE",
"81 -105 CURVE",
"98 -130 LINE"
);
}
);
width = 258;
},
{
layerId = "FA6D65B5-4623-4FAC-A199-3F662257AC29";
paths = (
{
closed = 1;
nodes = (
"162 -99 OFFCURVE",
"204 -34 OFFCURVE",
"204 40 CURVE SMOOTH",
"204 103 OFFCURVE",
"175 142 OFFCURVE",
"127 142 CURVE SMOOTH",
"85 142 OFFCURVE",
"54 114 OFFCURVE",
"54 75 CURVE SMOOTH",
"54 13 OFFCURVE",
"135 19 OFFCURVE",
"135 -22 CURVE SMOOTH",
"135 -45 OFFCURVE",
"108 -81 OFFCURVE",
"70 -108 CURVE",
"90 -137 LINE"
);
}
);
width = 258;
}
);
userData = {
com.typemytype.robofont.mark = (
1,
0.6,
0.6,
1
);
};
},
{
glyphname = commaaccent;
lastChange = "2018-10-23 21:24:40 +0000";
layers = (
{
anchors = (
{
name = _bottom;
position = "{57, -9}";
}
);
layerId = master01;
paths = (
{
closed = 1;
nodes = (
"77 -191 OFFCURVE",
"103 -152 OFFCURVE",
"103 -103 CURVE SMOOTH",
"103 -72 OFFCURVE",
"84 -46 OFFCURVE",
"57 -46 CURVE SMOOTH",
"29 -46 OFFCURVE",
"9 -65 OFFCURVE",
"9 -90 CURVE SMOOTH",
"9 -131 OFFCURVE",
"51 -124 OFFCURVE",
"51 -155 CURVE SMOOTH",
"51 -166 OFFCURVE",
"35 -185 OFFCURVE",
"14 -200 CURVE",
"28 -220 LINE"
);
}
);
width = 112;
},
{
anchors = (
{
name = _bottom;
position = "{66, 0}";
}
);
layerId = "FA6D65B5-4623-4FAC-A199-3F662257AC29";
paths = (
{
closed = 1;
nodes = (
"94 -200 OFFCURVE",
"125 -160 OFFCURVE",
"125 -112 CURVE SMOOTH",
"125 -71 OFFCURVE",
"102 -45 OFFCURVE",
"66 -45 CURVE SMOOTH",
"33 -45 OFFCURVE",
"9 -65 OFFCURVE",
"9 -90 CURVE SMOOTH",
"9 -127 OFFCURVE",
"49 -128 OFFCURVE",
"49 -153 CURVE SMOOTH",
"49 -166 OFFCURVE",
"37 -187 OFFCURVE",
"20 -203 CURVE",
"40 -224 LINE"
);
}
);
width = 133;
}
);
unicode = F6C3;
},
{
glyphname = copyright;
lastChange = "2018-10-23 21:24:40 +0000";
layers = (
{
layerId = master01;
paths = (
{
closed = 1;
nodes = (
"46 144 OFFCURVE",
"200 -9 OFFCURVE",
"388 -9 CURVE SMOOTH",
"576 -9 OFFCURVE",
"729 144 OFFCURVE",
"729 331 CURVE SMOOTH",
"729 518 OFFCURVE",
"576 671 OFFCURVE",
"388 671 CURVE SMOOTH",
"200 671 OFFCURVE",
"46 518 OFFCURVE",
"46 331 CURVE SMOOTH"
);
},
{
closed = 1;
nodes = (
"91 495 OFFCURVE",
"222 632 OFFCURVE",
"388 632 CURVE SMOOTH",
"554 632 OFFCURVE",
"684 495 OFFCURVE",
"684 331 CURVE SMOOTH",
"684 167 OFFCURVE",
"554 30 OFFCURVE",
"388 30 CURVE SMOOTH",
"222 30 OFFCURVE",
"91 167 OFFCURVE",
"91 331 CURVE SMOOTH"
);
},
{
closed = 1;
nodes = (
"198 218 OFFCURVE",
"275 138 OFFCURVE",
"384 138 CURVE SMOOTH",
"428 138 OFFCURVE",
"459 151 OFFCURVE",
"493 179 CURVE",
"515 139 LINE",
"527 139 LINE",
"527 278 LINE",
"510 278 LINE",
"505 251 OFFCURVE",
"495 230 OFFCURVE",
"484 213 CURVE SMOOTH",
"463 182 OFFCURVE",
"433 168 OFFCURVE",
"397 168 CURVE SMOOTH",
"323 168 OFFCURVE",
"280 229 OFFCURVE",
"280 336 CURVE SMOOTH",
"280 441 OFFCURVE",
"320 501 OFFCURVE",
"399 501 CURVE SMOOTH",
"439 501 OFFCURVE",
"468 485 OFFCURVE",
"489 449 CURVE SMOOTH",
"497 436 OFFCURVE",
"502 425 OFFCURVE",
"508 406 CURVE",
"527 406 LINE",
"527 529 LINE",
"515 529 LINE",
"495 496 LINE",
"491 496 LINE",
"461 519 OFFCURVE",
"426 531 OFFCURVE",
"385 531 CURVE SMOOTH",
"278 531 OFFCURVE",
"198 447 OFFCURVE",
"198 331 CURVE SMOOTH"
);
}
);
width = 776;
},
{
layerId = "FA6D65B5-4623-4FAC-A199-3F662257AC29";
paths = (
{
closed = 1;
nodes = (
"40 144 OFFCURVE",
"193 -9 OFFCURVE",
"381 -9 CURVE SMOOTH",
"569 -9 OFFCURVE",
"722 144 OFFCURVE",
"722 331 CURVE SMOOTH",
"722 518 OFFCURVE",
"569 671 OFFCURVE",
"381 671 CURVE SMOOTH",
"193 671 OFFCURVE",
"40 518 OFFCURVE",
"40 331 CURVE SMOOTH"
);
},
{
closed = 1;
nodes = (
"95 488 OFFCURVE",
"223 619 OFFCURVE",
"381 619 CURVE SMOOTH",
"540 619 OFFCURVE",
"666 488 OFFCURVE",
"666 331 CURVE SMOOTH",
"666 174 OFFCURVE",
"540 43 OFFCURVE",
"381 43 CURVE SMOOTH",
"223 43 OFFCURVE",
"95 174 OFFCURVE",
"95 331 CURVE SMOOTH"
);
},
{
closed = 1;
nodes = (
"211 232 OFFCURVE",
"280 164 OFFCURVE",
"378 164 CURVE SMOOTH",
"418 164 OFFCURVE",
"446 175 OFFCURVE",
"476 200 CURVE",
"496 165 LINE",
"507 165 LINE",
"507 297 LINE",
"485 297 LINE",
"480 273 OFFCURVE",
"471 253 OFFCURVE",
"462 238 CURVE SMOOTH",
"445 212 OFFCURVE",
"421 198 OFFCURVE",
"390 198 CURVE SMOOTH",
"332 198 OFFCURVE",
"298 247 OFFCURVE",
"298 335 CURVE SMOOTH",
"298 421 OFFCURVE",
"330 469 OFFCURVE",
"392 469 CURVE SMOOTH",
"425 469 OFFCURVE",
"446 456 OFFCURVE",
"466 423 CURVE SMOOTH",
"476 406 OFFCURVE",
"480 396 OFFCURVE",
"483 384 CURVE",
"507 384 LINE",
"507 501 LINE",
"496 501 LINE",
"478 472 LINE",
"475 472 LINE",
"448 492 OFFCURVE",
"416 503 OFFCURVE",
"378 503 CURVE SMOOTH",
"283 503 OFFCURVE",
"211 431 OFFCURVE",
"211 330 CURVE SMOOTH"
);
}
);
width = 762;
}
);
unicode = 00A9;
},
{
glyphname = currency;
lastChange = "2018-10-23 21:24:40 +0000";
layers = (
{
layerId = master01;
paths = (
{
closed = 1;
nodes = (
"66 151 LINE",
"124 207 LINE",
"100 237 OFFCURVE",
"88 274 OFFCURVE",
"88 316 CURVE SMOOTH",
"88 358 OFFCURVE",
"100 394 OFFCURVE",
"124 425 CURVE",
"66 481 LINE",
"108 522 LINE",
"164 464 LINE",
"194 488 OFFCURVE",
"231 501 OFFCURVE",
"273 501 CURVE SMOOTH",
"312 501 OFFCURVE",
"349 488 OFFCURVE",
"382 465 CURVE",
"438 522 LINE",
"479 481 LINE",
"421 424 LINE",
"445 394 OFFCURVE",
"458 358 OFFCURVE",
"458 316 CURVE SMOOTH",
"458 276 OFFCURVE",
"445 239 OFFCURVE",
"422 207 CURVE",
"479 151 LINE",
"438 109 LINE",
"381 167 LINE",
"351 143 OFFCURVE",
"315 131 OFFCURVE",
"273 131 CURVE SMOOTH",
"231 131 OFFCURVE",
"195 143 OFFCURVE",
"164 167 CURVE",
"108 109 LINE"
);
},
{
closed = 1;
nodes = (
"341 186 OFFCURVE",
"397 244 OFFCURVE",
"397 316 CURVE SMOOTH",
"397 387 OFFCURVE",
"341 445 OFFCURVE",
"273 445 CURVE SMOOTH",
"205 445 OFFCURVE",
"148 387 OFFCURVE",
"148 316 CURVE SMOOTH",
"148 245 OFFCURVE",
"205 186 OFFCURVE",
"273 186 CURVE SMOOTH"
);
}
);
width = 545;
},
{
layerId = "FA6D65B5-4623-4FAC-A199-3F662257AC29";
paths = (
{
closed = 1;
nodes = (
"58 153 LINE",
"116 210 LINE",
"94 237 OFFCURVE",
"83 274 OFFCURVE",
"83 316 CURVE SMOOTH",
"83 357 OFFCURVE",
"94 392 OFFCURVE",
"116 422 CURVE",
"58 478 LINE",
"105 525 LINE",
"162 467 LINE",
"190 488 OFFCURVE",
"227 501 OFFCURVE",
"267 501 CURVE SMOOTH",
"306 501 OFFCURVE",
"342 489 OFFCURVE",
"374 468 CURVE",
"430 525 LINE",
"476 478 LINE",
"419 421 LINE",
"441 392 OFFCURVE",
"452 357 OFFCURVE",
"452 316 CURVE SMOOTH",
"452 277 OFFCURVE",
"441 241 OFFCURVE",
"420 210 CURVE",
"476 153 LINE",
"430 107 LINE",
"373 164 LINE",
"344 142 OFFCURVE",
"309 131 OFFCURVE",
"267 131 CURVE SMOOTH",
"227 131 OFFCURVE",
"192 142 OFFCURVE",
"162 164 CURVE",
"105 107 LINE"
);
},
{
closed = 1;
nodes = (
"333 190 OFFCURVE",
"388 247 OFFCURVE",
"388 316 CURVE SMOOTH",
"388 384 OFFCURVE",
"333 441 OFFCURVE",
"267 441 CURVE SMOOTH",
"202 441 OFFCURVE",
"147 384 OFFCURVE",
"147 316 CURVE SMOOTH",
"147 248 OFFCURVE",
"202 190 OFFCURVE",
"267 190 CURVE SMOOTH"
);
}
);
width = 535;
}
);
unicode = 00A4;
},
{
glyphname = d;
lastChange = "2018-10-23 21:24:40 +0000";
layers = (
{
anchors = (
{
name = bottom;
position = "{218, 0}";
}
);
layerId = master01;
paths = (
{
closed = 1;
nodes = (
"275 -9 OFFCURVE",
"326 16 OFFCURVE",
"362 67 CURVE",
"366 65 LINE",
"366 -9 LINE",
"372 -9 LINE",
"499 45 LINE",
"499 54 LINE",
"440 67 LINE",
"440 714 LINE",
"432 714 LINE",
"297 672 LINE",
"297 660 LINE",
"359 636 LINE",
"359 452 LINE",
"329 460 OFFCURVE",
"297 464 OFFCURVE",
"267 464 CURVE SMOOTH",
"132 464 OFFCURVE",
"40 365 OFFCURVE",
"40 220 CURVE SMOOTH",
"40 89 OFFCURVE",
"117 -9 OFFCURVE",
"218 -9 CURVE SMOOTH"
);
},
{
closed = 1;
nodes = (
"177 47 OFFCURVE",
"131 119 OFFCURVE",
"131 234 CURVE SMOOTH",
"131 358 OFFCURVE",
"185 439 OFFCURVE",
"265 439 CURVE SMOOTH",
"327 439 OFFCURVE",
"359 406 OFFCURVE",
"359 344 CURVE SMOOTH",
"359 98 LINE",
"340 67 OFFCURVE",
"299 47 OFFCURVE",
"255 47 CURVE SMOOTH"
);
}
);
width = 522;
},
{
layerId = "FA6D65B5-4623-4FAC-A199-3F662257AC29";
paths = (
{
closed = 1;
nodes = (
"284 -9 OFFCURVE",
"334 11 OFFCURVE",
"369 46 CURVE",
"373 44 LINE",
"373 -9 LINE",
"389 -9 LINE",
"568 45 LINE",
"568 63 LINE",
"500 84 LINE",
"500 714 LINE",
"481 714 LINE",
"293 672 LINE",
"293 652 LINE",
"366 628 LINE",
"366 443 LINE",
"334 458 OFFCURVE",
"299 464 OFFCURVE",
"267 464 CURVE SMOOTH",
"128 464 OFFCURVE",
"32 365 OFFCURVE",
"32 220 CURVE SMOOTH",
"32 89 OFFCURVE",
"118 -9 OFFCURVE",
"228 -9 CURVE SMOOTH"
);
},
{
closed = 1;
nodes = (
"217 53 OFFCURVE",
"179 124 OFFCURVE",
"179 235 CURVE SMOOTH",
"179 344 OFFCURVE",
"220 418 OFFCURVE",
"284 418 CURVE SMOOTH",
"334 418 OFFCURVE",
"366 375 OFFCURVE",
"366 311 CURVE SMOOTH",
"366 98 LINE",
"346 71 OFFCURVE",
"317 53 OFFCURVE",
"283 53 CURVE SMOOTH"
);
}
);
width = 580;
}
);
leftKerningGroup = d;
rightKerningGroup = d;
unicode = 0064;
},
{
glyphname = dagger;
lastChange = "2018-10-23 21:24:40 +0000";
layers = (
{
layerId = master01;
paths = (
{
closed = 1;
nodes = (
"191 77 OFFCURVE",
"181 177 OFFCURVE",
"159 267 CURVE",
"176 326 OFFCURVE",
"187 396 OFFCURVE",
"196 494 CURVE",
"120 494 OFFCURVE",
"103 471 OFFCURVE",
"71 471 CURVE SMOOTH",
"46 471 OFFCURVE",
"26 488 OFFCURVE",
"26 512 CURVE SMOOTH",
"26 534 OFFCURVE",
"46 550 OFFCURVE",
"72 550 CURVE SMOOTH",
"84 550 OFFCURVE",
"90 548 OFFCURVE",
"132 532 CURVE SMOOTH",
"150 525 OFFCURVE",
"179 519 OFFCURVE",
"196 516 CURVE",
"196 526 LINE SMOOTH",
"196 584 OFFCURVE",
"170 636 OFFCURVE",
"170 670 CURVE SMOOTH",
"170 697 OFFCURVE",
"185 713 OFFCURVE",
"208 713 CURVE SMOOTH",
"233 713 OFFCURVE",
"248 697 OFFCURVE",
"248 670 CURVE SMOOTH",
"248 636 OFFCURVE",
"222 583 OFFCURVE",
"222 526 CURVE SMOOTH",
"222 516 LINE",
"230 517 OFFCURVE",
"256 524 OFFCURVE",
"283 532 CURVE SMOOTH",
"331 549 OFFCURVE",
"335 550 OFFCURVE",
"346 550 CURVE SMOOTH",
"373 550 OFFCURVE",
"392 533 OFFCURVE",
"392 511 CURVE SMOOTH",
"392 488 OFFCURVE",
"373 471 OFFCURVE",
"347 471 CURVE SMOOTH",
"315 471 OFFCURVE",
"298 494 OFFCURVE",
"222 494 CURVE",
"229 401 OFFCURVE",
"240 330 OFFCURVE",
"259 267 CURVE",
"236 176 OFFCURVE",
"225 76 OFFCURVE",
"218 -117 CURVE",
"200 -117 LINE"
);
}
);
width = 418;
},
{
layerId = "FA6D65B5-4623-4FAC-A199-3F662257AC29";
paths = (
{
closed = 1;
nodes = (
"187 77 OFFCURVE",
"174 177 OFFCURVE",
"146 267 CURVE",
"166 323 OFFCURVE",
"180 390 OFFCURVE",
"190 483 CURVE",
"120 483 OFFCURVE",
"105 463 OFFCURVE",
"76 463 CURVE SMOOTH",
"47 463 OFFCURVE",
"26 482 OFFCURVE",
"26 507 CURVE SMOOTH",
"26 532 OFFCURVE",
"47 550 OFFCURVE",
"77 550 CURVE SMOOTH",
"87 550 OFFCURVE",
"100 546 OFFCURVE",
"136 532 CURVE SMOOTH",
"151 526 OFFCURVE",
"175 519 OFFCURVE",
"190 516 CURVE",
"190 526 LINE SMOOTH",
"190 582 OFFCURVE",
"170 632 OFFCURVE",
"170 666 CURVE SMOOTH",
"170 695 OFFCURVE",
"187 713 OFFCURVE",
"212 713 CURVE SMOOTH",
"240 713 OFFCURVE",
"256 695 OFFCURVE",
"256 666 CURVE SMOOTH",
"256 633 OFFCURVE",
"237 581 OFFCURVE",
"237 526 CURVE SMOOTH",
"237 518 LINE",
"243 519 OFFCURVE",
"266 525 OFFCURVE",
"287 532 CURVE SMOOTH",
"328 546 OFFCURVE",
"341 550 OFFCURVE",
"350 550 CURVE SMOOTH",
"380 550 OFFCURVE",
"401 531 OFFCURVE",
"401 507 CURVE SMOOTH",
"401 482 OFFCURVE",
"380 463 OFFCURVE",
"352 463 CURVE SMOOTH",
"322 463 OFFCURVE",
"307 483 OFFCURVE",
"237 483 CURVE",
"245 395 OFFCURVE",
"259 328 OFFCURVE",
"280 267 CURVE",
"252 176 OFFCURVE",
"238 76 OFFCURVE",
"230 -117 CURVE",
"197 -117 LINE"
);
}
);
width = 426;
}
);
unicode = 2020;
},
{
glyphname = daggerdbl;
lastChange = "2018-10-23 21:24:40 +0000";
layers = (
{
layerId = master01;
paths = (
{
closed = 1;
nodes = (
"259 243 OFFCURVE",
"248 182 OFFCURVE",
"241 101 CURVE",
"317 101 OFFCURVE",
"334 124 OFFCURVE",
"366 124 CURVE SMOOTH",
"392 124 OFFCURVE",
"411 107 OFFCURVE",
"411 84 CURVE SMOOTH",
"411 62 OFFCURVE",
"392 46 OFFCURVE",
"365 46 CURVE SMOOTH",
"355 46 OFFCURVE",
"345 48 OFFCURVE",
"302 63 CURVE SMOOTH",
"277 71 OFFCURVE",
"255 77 OFFCURVE",
"241 79 CURVE",
"241 69 LINE",
"241 12 OFFCURVE",
"267 -41 OFFCURVE",
"267 -75 CURVE SMOOTH",
"267 -101 OFFCURVE",
"252 -118 OFFCURVE",
"227 -118 CURVE SMOOTH",
"204 -118 OFFCURVE",
"189 -101 OFFCURVE",
"189 -75 CURVE SMOOTH",
"189 -40 OFFCURVE",
"215 11 OFFCURVE",
"215 69 CURVE",
"215 79 LINE",
"198 77 OFFCURVE",
"169 70 OFFCURVE",
"151 63 CURVE SMOOTH",
"109 47 OFFCURVE",
"103 46 OFFCURVE",
"91 46 CURVE SMOOTH",
"65 46 OFFCURVE",
"45 61 OFFCURVE",
"45 83 CURVE SMOOTH",
"45 107 OFFCURVE",
"65 124 OFFCURVE",
"90 124 CURVE SMOOTH",
"122 124 OFFCURVE",
"138 101 OFFCURVE",
"215 101 CURVE",
"206 187 OFFCURVE",
"195 248 OFFCURVE",
"178 298 CURVE",
"195 347 OFFCURVE",
"206 409 OFFCURVE",
"215 494 CURVE",
"138 494 OFFCURVE",
"122 471 OFFCURVE",
"90 471 CURVE SMOOTH",
"65 471 OFFCURVE",
"45 488 OFFCURVE",
"45 512 CURVE SMOOTH",
"45 534 OFFCURVE",
"65 550 OFFCURVE",
"91 550 CURVE SMOOTH",
"101 550 OFFCURVE",
"108 549 OFFCURVE",
"151 532 CURVE SMOOTH",
"169 525 OFFCURVE",
"198 519 OFFCURVE",
"215 516 CURVE",
"215 526 LINE",
"215 584 OFFCURVE",
"189 636 OFFCURVE",
"189 670 CURVE SMOOTH",
"189 697 OFFCURVE",
"204 713 OFFCURVE",
"227 713 CURVE SMOOTH",
"252 713 OFFCURVE",
"267 697 OFFCURVE",
"267 670 CURVE SMOOTH",
"267 636 OFFCURVE",
"241 583 OFFCURVE",
"241 526 CURVE",
"241 516 LINE",
"249 517 OFFCURVE",
"274 523 OFFCURVE",
"302 532 CURVE SMOOTH",
"347 549 OFFCURVE",
"353 550 OFFCURVE",
"365 550 CURVE SMOOTH",
"392 550 OFFCURVE",
"411 533 OFFCURVE",
"411 511 CURVE SMOOTH",
"411 488 OFFCURVE",
"392 471 OFFCURVE",
"366 471 CURVE SMOOTH",
"334 471 OFFCURVE",
"317 494 OFFCURVE",
"241 494 CURVE",
"248 413 OFFCURVE",
"259 352 OFFCURVE",
"278 298 CURVE"
);
}
);
width = 456;
},
{
layerId = "FA6D65B5-4623-4FAC-A199-3F662257AC29";
paths = (
{
closed = 1;
nodes = (
"272 246 OFFCURVE",
"258 188 OFFCURVE",
"249 112 CURVE",
"320 112 OFFCURVE",
"335 132 OFFCURVE",
"365 132 CURVE SMOOTH",
"393 132 OFFCURVE",
"414 114 OFFCURVE",
"414 89 CURVE SMOOTH",
"414 64 OFFCURVE",
"393 46 OFFCURVE",
"366 46 CURVE SMOOTH",
"354 46 OFFCURVE",
"344 48 OFFCURVE",
"300 63 CURVE SMOOTH",
"279 70 OFFCURVE",
"256 77 OFFCURVE",
"249 77 CURVE",
"249 69 LINE SMOOTH",
"249 14 OFFCURVE",
"269 -38 OFFCURVE",
"269 -71 CURVE SMOOTH",
"269 -100 OFFCURVE",
"253 -118 OFFCURVE",
"225 -118 CURVE SMOOTH",
"200 -118 OFFCURVE",
"183 -100 OFFCURVE",
"183 -71 CURVE SMOOTH",
"183 -37 OFFCURVE",
"203 13 OFFCURVE",
"203 69 CURVE SMOOTH",
"203 79 LINE",
"188 77 OFFCURVE",
"164 69 OFFCURVE",
"149 63 CURVE SMOOTH",
"106 46 OFFCURVE",
"101 46 OFFCURVE",
"89 46 CURVE SMOOTH",
"60 46 OFFCURVE",
"39 63 OFFCURVE",
"39 88 CURVE SMOOTH",
"39 114 OFFCURVE",
"60 132 OFFCURVE",
"89 132 CURVE SMOOTH",
"118 132 OFFCURVE",
"132 112 OFFCURVE",
"203 112 CURVE",
"193 193 OFFCURVE",
"179 250 OFFCURVE",
"159 298 CURVE",
"179 345 OFFCURVE",
"193 402 OFFCURVE",
"203 483 CURVE",
"132 483 OFFCURVE",
"118 463 OFFCURVE",
"89 463 CURVE SMOOTH",
"60 463 OFFCURVE",
"39 482 OFFCURVE",
"39 507 CURVE SMOOTH",
"39 532 OFFCURVE",
"60 550 OFFCURVE",
"89 550 CURVE SMOOTH",
"100 550 OFFCURVE",
"112 547 OFFCURVE",
"149 532 CURVE SMOOTH",
"164 526 OFFCURVE",
"188 519 OFFCURVE",
"203 516 CURVE",
"203 526 LINE SMOOTH",
"203 582 OFFCURVE",
"183 632 OFFCURVE",
"183 666 CURVE SMOOTH",
"183 695 OFFCURVE",
"200 713 OFFCURVE",
"225 713 CURVE SMOOTH",
"253 713 OFFCURVE",
"269 695 OFFCURVE",
"269 666 CURVE SMOOTH",
"269 633 OFFCURVE",
"249 581 OFFCURVE",
"249 526 CURVE SMOOTH",
"249 518 LINE",
"256 519 OFFCURVE",
"279 525 OFFCURVE",
"300 532 CURVE SMOOTH",
"344 548 OFFCURVE",
"353 550 OFFCURVE",
"363 550 CURVE SMOOTH",
"393 550 OFFCURVE",
"414 531 OFFCURVE",
"414 507 CURVE SMOOTH",
"414 482 OFFCURVE",
"393 463 OFFCURVE",
"365 463 CURVE SMOOTH",
"335 463 OFFCURVE",
"320 483 OFFCURVE",
"249 483 CURVE",
"258 407 OFFCURVE",
"272 349 OFFCURVE",
"293 298 CURVE"
);
}
);
width = 452;
}
);
unicode = 2021;
},
{
glyphname = dcroat;
lastChange = "2018-10-23 21:24:40 +0000";
layers = (
{
components = (
{
name = d;
}
);
layerId = master01;
paths = (
{
closed = 1;
nodes = (
"500 580 LINE",
"236 580 LINE",
"236 524 LINE",
"500 524 LINE"
);
}
);
width = 522;
},
{
components = (
{
name = d;
}
);
layerId = "FA6D65B5-4623-4FAC-A199-3F662257AC29";
paths = (
{
closed = 1;
nodes = (
"568 588 LINE",
"269 588 LINE",
"269 515 LINE",
"568 515 LINE"
);
}
);
width = 580;
}
);
leftKerningGroup = d;
rightKerningGroup = d;
unicode = 0111;
},
{
glyphname = degree;
lastChange = "2018-10-23 21:24:40 +0000";
layers = (
{
layerId = master01;
paths = (
{
closed = 1;
nodes = (
"88 505 OFFCURVE",
"42 550 OFFCURVE",
"42 609 CURVE SMOOTH",
"42 667 OFFCURVE",
"88 714 OFFCURVE",
"146 714 CURVE SMOOTH",
"204 714 OFFCURVE",
"250 667 OFFCURVE",
"250 609 CURVE SMOOTH",
"250 550 OFFCURVE",
"205 505 OFFCURVE",
"146 505 CURVE SMOOTH"
);
},
{
closed = 1;
nodes = (
"77 569 OFFCURVE",
"107 540 OFFCURVE",
"146 540 CURVE SMOOTH",
"187 540 OFFCURVE",
"215 569 OFFCURVE",
"215 609 CURVE SMOOTH",
"215 650 OFFCURVE",
"187 679 OFFCURVE",
"146 679 CURVE SMOOTH",
"107 679 OFFCURVE",
"77 650 OFFCURVE",
"77 609 CURVE SMOOTH"
);
}
);
width = 292;
},
{
layerId = "FA6D65B5-4623-4FAC-A199-3F662257AC29";
paths = (
{
closed = 1;
nodes = (
"80 505 OFFCURVE",
"34 550 OFFCURVE",
"34 609 CURVE SMOOTH",
"34 667 OFFCURVE",
"80 714 OFFCURVE",
"138 714 CURVE SMOOTH",
"196 714 OFFCURVE",
"243 667 OFFCURVE",
"243 609 CURVE SMOOTH",
"243 550 OFFCURVE",
"197 505 OFFCURVE",
"138 505 CURVE SMOOTH"
);
},
{
closed = 1;
nodes = (
"83 577 OFFCURVE",
"107 553 OFFCURVE",
"138 553 CURVE SMOOTH",
"172 553 OFFCURVE",
"194 577 OFFCURVE",
"194 609 CURVE SMOOTH",
"194 642 OFFCURVE",
"172 667 OFFCURVE",
"138 667 CURVE SMOOTH",
"107 667 OFFCURVE",
"83 642 OFFCURVE",
"83 609 CURVE SMOOTH"
);
}
);
width = 277;
}
);
unicode = 00B0;
},
{
glyphname = degree.tnum;
lastChange = "2018-10-23 21:24:40 +0000";
layers = (
{
layerId = master01;
paths = (
{
closed = 1;
nodes = (
"71 505 OFFCURVE",
"25 550 OFFCURVE",
"25 609 CURVE SMOOTH",
"25 667 OFFCURVE",
"71 714 OFFCURVE",
"129 714 CURVE SMOOTH",
"187 714 OFFCURVE",
"233 667 OFFCURVE",
"233 609 CURVE SMOOTH",
"233 550 OFFCURVE",
"187 505 OFFCURVE",
"129 505 CURVE SMOOTH"
);
},
{
closed = 1;
nodes = (
"60 569 OFFCURVE",
"89 540 OFFCURVE",
"129 540 CURVE SMOOTH",
"170 540 OFFCURVE",
"198 569 OFFCURVE",
"198 609 CURVE SMOOTH",
"198 650 OFFCURVE",
"170 679 OFFCURVE",
"129 679 CURVE SMOOTH",
"89 679 OFFCURVE",
"60 650 OFFCURVE",
"60 609 CURVE SMOOTH"
);
}
);
width = 258;
},
{
layerId = "FA6D65B5-4623-4FAC-A199-3F662257AC29";
paths = (
{
closed = 1;
nodes = (
"76 505 OFFCURVE",
"30 550 OFFCURVE",
"30 609 CURVE SMOOTH",
"30 667 OFFCURVE",
"76 714 OFFCURVE",
"134 714 CURVE SMOOTH",
"192 714 OFFCURVE",
"238 667 OFFCURVE",
"238 609 CURVE SMOOTH",
"238 550 OFFCURVE",
"193 505 OFFCURVE",
"134 505 CURVE SMOOTH"
);
},
{
closed = 1;
nodes = (
"78 577 OFFCURVE",
"102 553 OFFCURVE",
"134 553 CURVE SMOOTH",
"168 553 OFFCURVE",
"190 577 OFFCURVE",
"190 609 CURVE SMOOTH",
"190 642 OFFCURVE",
"168 667 OFFCURVE",
"134 667 CURVE SMOOTH",
"102 667 OFFCURVE",
"78 642 OFFCURVE",
"78 609 CURVE SMOOTH"
);
}
);
width = 268;
}
);
userData = {
com.typemytype.robofont.mark = (
1,
0.6,
0.6,
1
);
};
},
{
glyphname = dieresis;
lastChange = "2018-10-23 21:24:40 +0000";
layers = (
{
anchors = (
{
name = _top;
position = "{136, 560}";
}
);
layerId = master01;
paths = (
{
closed = 1;
nodes = (
"9 598 OFFCURVE",
"28 576 OFFCURVE",
"56 576 CURVE SMOOTH",
"85 576 OFFCURVE",
"103 598 OFFCURVE",
"103 624 CURVE SMOOTH",
"103 651 OFFCURVE",
"85 671 OFFCURVE",
"56 671 CURVE SMOOTH",
"28 671 OFFCURVE",
"9 651 OFFCURVE",
"9 624 CURVE SMOOTH"
);
},
{
closed = 1;
nodes = (
"169 598 OFFCURVE",
"188 576 OFFCURVE",
"217 576 CURVE SMOOTH",
"246 576 OFFCURVE",
"264 598 OFFCURVE",
"264 624 CURVE SMOOTH",
"264 651 OFFCURVE",
"246 671 OFFCURVE",
"217 671 CURVE SMOOTH",
"188 671 OFFCURVE",
"169 651 OFFCURVE",
"169 624 CURVE SMOOTH"
);
}
);
width = 273;
},
{
anchors = (
{
name = _top;
position = "{168, 528}";
}
);
layerId = "FA6D65B5-4623-4FAC-A199-3F662257AC29";
paths = (
{
closed = 1;
nodes = (
"9 579 OFFCURVE",
"31 548 OFFCURVE",
"73 548 CURVE SMOOTH",
"117 548 OFFCURVE",
"139 579 OFFCURVE",
"139 609 CURVE SMOOTH",
"139 642 OFFCURVE",
"114 671 OFFCURVE",
"73 671 CURVE SMOOTH",
"33 671 OFFCURVE",
"9 642 OFFCURVE",
"9 609 CURVE SMOOTH"
);
},
{
closed = 1;
nodes = (
"196 579 OFFCURVE",
"218 548 OFFCURVE",
"261 548 CURVE SMOOTH",
"304 548 OFFCURVE",
"327 579 OFFCURVE",
"327 609 CURVE SMOOTH",
"327 642 OFFCURVE",
"301 671 OFFCURVE",
"261 671 CURVE SMOOTH",
"220 671 OFFCURVE",
"196 642 OFFCURVE",
"196 609 CURVE SMOOTH"
);
}
);
width = 335;
}
);
unicode = 00A8;
},
{
glyphname = dieresis.cap;
lastChange = "2018-10-23 21:24:40 +0000";
layers = (
{
anchors = (
{
name = _topcap;
position = "{136, 737}";
}
);
layerId = master01;
paths = (
{
closed = 1;
nodes = (
"9 759 OFFCURVE",
"28 737 OFFCURVE",
"56 737 CURVE SMOOTH",
"85 737 OFFCURVE",
"103 759 OFFCURVE",
"103 784 CURVE SMOOTH",
"103 812 OFFCURVE",
"85 832 OFFCURVE",
"56 832 CURVE SMOOTH",
"28 832 OFFCURVE",
"9 812 OFFCURVE",
"9 784 CURVE SMOOTH"
);
},
{
closed = 1;
nodes = (
"169 759 OFFCURVE",
"188 737 OFFCURVE",
"217 737 CURVE SMOOTH",
"246 737 OFFCURVE",
"264 759 OFFCURVE",
"264 784 CURVE SMOOTH",
"264 812 OFFCURVE",
"246 832 OFFCURVE",
"217 832 CURVE SMOOTH",
"188 832 OFFCURVE",
"169 812 OFFCURVE",
"169 784 CURVE SMOOTH"
);
}
);
width = 273;
},
{
anchors = (
{
name = _topcap;
position = "{159, 713}";
}
);
layerId = "FA6D65B5-4623-4FAC-A199-3F662257AC29";
paths = (
{
closed = 1;
nodes = (
"9 743 OFFCURVE",
"29 713 OFFCURVE",
"70 713 CURVE SMOOTH",
"111 713 OFFCURVE",
"132 743 OFFCURVE",
"132 771 CURVE SMOOTH",
"132 802 OFFCURVE",
"108 830 OFFCURVE",
"70 830 CURVE SMOOTH",
"31 830 OFFCURVE",
"9 802 OFFCURVE",
"9 771 CURVE SMOOTH"
);
},
{
closed = 1;
nodes = (
"187 743 OFFCURVE",
"208 713 OFFCURVE",
"248 713 CURVE SMOOTH",
"290 713 OFFCURVE",
"310 743 OFFCURVE",
"310 771 CURVE SMOOTH",
"310 802 OFFCURVE",
"286 830 OFFCURVE",
"248 830 CURVE SMOOTH",
"209 830 OFFCURVE",
"187 802 OFFCURVE",
"187 771 CURVE SMOOTH"
);
}
);
width = 319;
}
);
},
{
glyphname = divide;
lastChange = "2018-10-23 21:24:40 +0000";
layers = (
{
components = (
{
name = minus;
transform = "{1, 0, 0, 1, -18, 0}";
}
);
layerId = master01;
paths = (
{
closed = 1;
nodes = (
"159 409 OFFCURVE",
"182 383 OFFCURVE",
"218 383 CURVE SMOOTH",
"255 383 OFFCURVE",
"278 409 OFFCURVE",
"278 441 CURVE SMOOTH",
"278 476 OFFCURVE",
"255 501 OFFCURVE",
"218 501 CURVE SMOOTH",
"182 501 OFFCURVE",
"159 476 OFFCURVE",
"159 441 CURVE SMOOTH"
);
},
{
closed = 1;
nodes = (
"159 114 OFFCURVE",
"182 88 OFFCURVE",
"218 88 CURVE SMOOTH",
"255 88 OFFCURVE",
"278 114 OFFCURVE",
"278 146 CURVE SMOOTH",
"278 181 OFFCURVE",
"255 206 OFFCURVE",
"218 206 CURVE SMOOTH",
"182 206 OFFCURVE",
"159 181 OFFCURVE",
"159 146 CURVE SMOOTH"
);
}
);
width = 452;
},
{
components = (
{
name = minus;
transform = "{1, 0, 0, 1, -19, 0}";
}
);
layerId = "FA6D65B5-4623-4FAC-A199-3F662257AC29";
paths = (
{
closed = 1;
nodes = (
"140 412 OFFCURVE",
"165 377 OFFCURVE",
"213 377 CURVE SMOOTH",
"264 377 OFFCURVE",
"290 412 OFFCURVE",
"290 447 CURVE SMOOTH",
"290 485 OFFCURVE",
"261 519 OFFCURVE",
"213 519 CURVE SMOOTH",
"167 519 OFFCURVE",
"140 485 OFFCURVE",
"140 447 CURVE SMOOTH"
);
},
{
closed = 1;
nodes = (
"140 106 OFFCURVE",
"165 71 OFFCURVE",
"213 71 CURVE SMOOTH",
"264 71 OFFCURVE",
"290 106 OFFCURVE",
"290 141 CURVE SMOOTH",
"290 179 OFFCURVE",
"261 212 OFFCURVE",
"213 212 CURVE SMOOTH",
"167 212 OFFCURVE",
"140 179 OFFCURVE",
"140 141 CURVE SMOOTH"
);
}
);
width = 432;
}
);
unicode = 00F7;
},
{
glyphname = divide.tnum;
lastChange = "2018-10-23 21:24:40 +0000";
layers = (
{
components = (
{
name = minus.tnum;
}
);
layerId = master01;
paths = (
{
closed = 1;
nodes = (
"192 409 OFFCURVE",
"215 383 OFFCURVE",
"250 383 CURVE SMOOTH",
"287 383 OFFCURVE",
"310 409 OFFCURVE",
"310 441 CURVE SMOOTH",
"310 476 OFFCURVE",
"287 501 OFFCURVE",
"250 501 CURVE SMOOTH",
"215 501 OFFCURVE",
"192 476 OFFCURVE",
"192 441 CURVE SMOOTH"
);
},
{
closed = 1;
nodes = (
"192 114 OFFCURVE",
"215 88 OFFCURVE",
"250 88 CURVE SMOOTH",
"287 88 OFFCURVE",
"310 114 OFFCURVE",
"310 146 CURVE SMOOTH",
"310 181 OFFCURVE",
"287 206 OFFCURVE",
"250 206 CURVE SMOOTH",
"215 206 OFFCURVE",
"192 181 OFFCURVE",
"192 146 CURVE SMOOTH"
);
}
);
width = 516;
},
{
components = (
{
name = minus.tnum;
transform = "{1, 0, 0, 1, -6, 0}";
}
);
layerId = "FA6D65B5-4623-4FAC-A199-3F662257AC29";
paths = (
{
closed = 1;
nodes = (
"176 412 OFFCURVE",
"201 377 OFFCURVE",
"249 377 CURVE SMOOTH",
"300 377 OFFCURVE",
"326 412 OFFCURVE",
"326 447 CURVE SMOOTH",
"326 485 OFFCURVE",
"297 519 OFFCURVE",
"249 519 CURVE SMOOTH",
"203 519 OFFCURVE",
"176 485 OFFCURVE",
"176 447 CURVE SMOOTH"
);
},
{
closed = 1;
nodes = (
"176 106 OFFCURVE",
"201 71 OFFCURVE",
"249 71 CURVE SMOOTH",
"300 71 OFFCURVE",
"326 106 OFFCURVE",
"326 141 CURVE SMOOTH",
"326 179 OFFCURVE",
"297 212 OFFCURVE",
"249 212 CURVE SMOOTH",
"203 212 OFFCURVE",
"176 179 OFFCURVE",
"176 141 CURVE SMOOTH"
);
}
);
width = 516;
}
);
userData = {
com.typemytype.robofont.mark = (
1,
0.6,
0.6,
1
);
};
},
{
glyphname = dollar;
lastChange = "2018-10-23 21:24:40 +0000";
layers = (
{
layerId = master01;
paths = (
{
closed = 1;
nodes = (
"136 671 OFFCURVE",
"52 593 OFFCURVE",
"52 488 CURVE SMOOTH",
"52 287 OFFCURVE",
"339 304 OFFCURVE",
"339 137 CURVE SMOOTH",
"339 71 OFFCURVE",
"295 28 OFFCURVE",
"229 28 CURVE SMOOTH",
"181 28 OFFCURVE",
"154 50 OFFCURVE",
"144 96 CURVE SMOOTH",
"135 136 OFFCURVE",
"118 155 OFFCURVE",
"91 155 CURVE SMOOTH",
"63 155 OFFCURVE",
"45 135 OFFCURVE",
"45 104 CURVE SMOOTH",
"45 42 OFFCURVE",
"120 -8 OFFCURVE",
"212 -8 CURVE SMOOTH",
"329 -8 OFFCURVE",
"418 76 OFFCURVE",
"418 187 CURVE SMOOTH",
"418 390 OFFCURVE",
"143 368 OFFCURVE",
"143 536 CURVE SMOOTH",
"143 595 OFFCURVE",
"181 636 OFFCURVE",
"237 636 CURVE SMOOTH",
"274 636 OFFCURVE",
"299 612 OFFCURVE",
"310 567 CURVE SMOOTH",
"318 526 OFFCURVE",
"335 508 OFFCURVE",
"362 508 CURVE SMOOTH",
"390 508 OFFCURVE",
"409 528 OFFCURVE",
"409 559 CURVE SMOOTH",
"409 621 OFFCURVE",
"338 671 OFFCURVE",
"249 671 CURVE SMOOTH {name = hr00;}"
);
},
{
closed = 1;
nodes = (
"221 764 LINE",
"221 -88 LINE",
"257 -88 LINE",
"257 764 LINE"
);
}
);
width = 462;
},
{
layerId = "FA6D65B5-4623-4FAC-A199-3F662257AC29";
paths = (
{
closed = 1;
nodes = (
"132 671 OFFCURVE",
"36 593 OFFCURVE",
"36 488 CURVE SMOOTH",
"36 273 OFFCURVE",
"340 300 OFFCURVE",
"340 128 CURVE SMOOTH",
"340 76 OFFCURVE",
"299 42 OFFCURVE",
"238 42 CURVE SMOOTH",
"191 42 OFFCURVE",
"163 65 OFFCURVE",
"153 111 CURVE SMOOTH",
"143 153 OFFCURVE",
"123 174 OFFCURVE",
"92 174 CURVE SMOOTH",
"58 174 OFFCURVE",
"37 152 OFFCURVE",
"37 119 CURVE SMOOTH",
"37 49 OFFCURVE",
"119 -8 OFFCURVE",
"221 -8 CURVE SMOOTH",
"354 -8 OFFCURVE",
"453 76 OFFCURVE",
"453 187 CURVE SMOOTH",
"453 413 OFFCURVE",
"161 372 OFFCURVE",
"161 544 CURVE SMOOTH",
"161 590 OFFCURVE",
"197 620 OFFCURVE",
"250 620 CURVE SMOOTH",
"291 620 OFFCURVE",
"316 597 OFFCURVE",
"328 551 CURVE SMOOTH",
"338 511 OFFCURVE",
"357 493 OFFCURVE",
"389 493 CURVE SMOOTH",
"420 493 OFFCURVE",
"439 513 OFFCURVE",
"439 544 CURVE SMOOTH",
"439 614 OFFCURVE",
"362 671 OFFCURVE",
"263 671 CURVE SMOOTH {name = hr00;}"
);
},
{
closed = 1;
nodes = (
"223 764 LINE",
"223 -88 LINE",
"274 -88 LINE",
"274 764 LINE"
);
}
);
width = 486;
}
);
unicode = 0024;
},
{
glyphname = dollar.tnum;
lastChange = "2018-10-23 21:24:40 +0000";
layers = (
{
layerId = master01;
paths = (
{
closed = 1;
nodes = (
"163 671 OFFCURVE",
"79 593 OFFCURVE",
"79 488 CURVE SMOOTH",
"79 287 OFFCURVE",
"366 304 OFFCURVE",
"366 137 CURVE SMOOTH",
"366 71 OFFCURVE",
"322 28 OFFCURVE",
"255 28 CURVE SMOOTH",
"208 28 OFFCURVE",
"181 50 OFFCURVE",
"170 96 CURVE SMOOTH",
"162 136 OFFCURVE",
"144 155 OFFCURVE",
"118 155 CURVE SMOOTH",
"89 155 OFFCURVE",
"71 135 OFFCURVE",
"71 104 CURVE SMOOTH",
"71 42 OFFCURVE",
"146 -8 OFFCURVE",
"238 -8 CURVE SMOOTH",
"356 -8 OFFCURVE",
"445 76 OFFCURVE",
"445 187 CURVE SMOOTH",
"445 390 OFFCURVE",
"169 368 OFFCURVE",
"169 536 CURVE SMOOTH",
"169 595 OFFCURVE",
"207 636 OFFCURVE",
"263 636 CURVE SMOOTH",
"301 636 OFFCURVE",
"326 612 OFFCURVE",
"336 567 CURVE SMOOTH",
"345 526 OFFCURVE",
"361 508 OFFCURVE",
"389 508 CURVE SMOOTH",
"417 508 OFFCURVE",
"435 528 OFFCURVE",
"435 559 CURVE SMOOTH",
"435 621 OFFCURVE",
"365 671 OFFCURVE",
"276 671 CURVE SMOOTH {name = hr00;}"
);
},
{
closed = 1;
nodes = (
"248 764 LINE",
"248 -88 LINE",
"284 -88 LINE",
"284 764 LINE"
);
}
);
width = 516;
},
{
layerId = "FA6D65B5-4623-4FAC-A199-3F662257AC29";
paths = (
{
closed = 1;
nodes = (
"144 671 OFFCURVE",
"49 593 OFFCURVE",
"49 488 CURVE SMOOTH",
"49 273 OFFCURVE",
"353 300 OFFCURVE",
"353 128 CURVE SMOOTH",
"353 76 OFFCURVE",
"312 42 OFFCURVE",
"251 42 CURVE SMOOTH",
"204 42 OFFCURVE",
"176 65 OFFCURVE",
"166 111 CURVE SMOOTH",
"156 153 OFFCURVE",
"136 174 OFFCURVE",
"105 174 CURVE SMOOTH",
"71 174 OFFCURVE",
"50 152 OFFCURVE",
"50 119 CURVE SMOOTH",
"50 49 OFFCURVE",
"132 -8 OFFCURVE",
"234 -8 CURVE SMOOTH",
"367 -8 OFFCURVE",
"466 76 OFFCURVE",
"466 187 CURVE SMOOTH",
"466 413 OFFCURVE",
"174 372 OFFCURVE",
"174 544 CURVE SMOOTH",
"174 590 OFFCURVE",
"210 620 OFFCURVE",
"263 620 CURVE SMOOTH",
"304 620 OFFCURVE",
"329 597 OFFCURVE",
"341 551 CURVE SMOOTH",
"351 511 OFFCURVE",
"370 493 OFFCURVE",
"402 493 CURVE SMOOTH",
"433 493 OFFCURVE",
"452 513 OFFCURVE",
"452 544 CURVE SMOOTH",
"452 614 OFFCURVE",
"375 671 OFFCURVE",
"276 671 CURVE SMOOTH {name = hr00;}"
);
},
{
closed = 1;
nodes = (
"236 764 LINE",
"236 -88 LINE",
"287 -88 LINE",
"287 764 LINE"
);
}
);
width = 516;
}
);
userData = {
com.typemytype.robofont.mark = (
1,
0.6,
0.6,
1
);
};
},
{
glyphname = dotaccent;
lastChange = "2018-10-23 21:24:40 +0000";
layers = (
{
anchors = (
{
name = _top;
position = "{64, 560}";
}
);
layerId = master01;
paths = (
{
closed = 1;
nodes = (
"9 585 OFFCURVE",
"30 560 OFFCURVE",
"64 560 CURVE SMOOTH",
"98 560 OFFCURVE",
"120 585 OFFCURVE",
"120 615 CURVE SMOOTH",
"120 647 OFFCURVE",
"98 671 OFFCURVE",
"64 671 CURVE SMOOTH",
"30 671 OFFCURVE",
"9 647 OFFCURVE",
"9 615 CURVE SMOOTH"
);
}
);
width = 128;
},
{
anchors = (
{
name = _top;
position = "{83, 528}";
}
);
layerId = "FA6D65B5-4623-4FAC-A199-3F662257AC29";
paths = (
{
closed = 1;
nodes = (
"9 563 OFFCURVE",
"34 528 OFFCURVE",
"83 528 CURVE SMOOTH",
"133 528 OFFCURVE",
"159 563 OFFCURVE",
"159 599 CURVE SMOOTH",
"159 636 OFFCURVE",
"130 670 OFFCURVE",
"83 670 CURVE SMOOTH",
"36 670 OFFCURVE",
"9 636 OFFCURVE",
"9 599 CURVE SMOOTH"
);
}
);
width = 168;
}
);
unicode = 02D9;
},
{
glyphname = dotaccent.cap;
lastChange = "2018-10-23 21:24:40 +0000";
layers = (
{
anchors = (
{
name = _topcap;
position = "{64, 714}";
}
);
layerId = master01;
paths = (
{
closed = 1;
nodes = (
"9 739 OFFCURVE",
"30 714 OFFCURVE",
"64 714 CURVE SMOOTH",
"98 714 OFFCURVE",
"120 739 OFFCURVE",
"120 769 CURVE SMOOTH",
"120 801 OFFCURVE",
"98 825 OFFCURVE",
"64 825 CURVE SMOOTH",
"30 825 OFFCURVE",
"9 801 OFFCURVE",
"9 769 CURVE SMOOTH"
);
}
);
width = 128;
},
{
anchors = (
{
name = _topcap;
position = "{70, 714}";
}
);
layerId = "FA6D65B5-4623-4FAC-A199-3F662257AC29";
paths = (
{
closed = 1;
nodes = (
"9 742 OFFCURVE",
"30 714 OFFCURVE",
"70 714 CURVE SMOOTH",
"111 714 OFFCURVE",
"132 742 OFFCURVE",
"132 772 CURVE SMOOTH",
"132 802 OFFCURVE",
"108 831 OFFCURVE",
"70 831 CURVE SMOOTH",
"31 831 OFFCURVE",
"9 802 OFFCURVE",
"9 772 CURVE SMOOTH"
);
}
);
width = 141;
}
);
},
{
glyphname = dotbelow;
lastChange = "2018-10-23 21:24:40 +0000";
layers = (
{
anchors = (
{
name = _bottom;
position = "{64, 0}";
}
);
layerId = master01;
paths = (
{
closed = 1;
nodes = (
"9 -195 OFFCURVE",
"30 -220 OFFCURVE",
"64 -220 CURVE SMOOTH",
"98 -220 OFFCURVE",
"120 -195 OFFCURVE",
"120 -165 CURVE SMOOTH",
"120 -133 OFFCURVE",
"98 -109 OFFCURVE",
"64 -109 CURVE SMOOTH",
"30 -109 OFFCURVE",
"9 -133 OFFCURVE",
"9 -165 CURVE SMOOTH"
);
}
);
width = 128;
},
{
anchors = (
{
name = _bottom;
position = "{83, 0}";
}
);
layerId = "FA6D65B5-4623-4FAC-A199-3F662257AC29";
paths = (
{
closed = 1;
nodes = (
"9 -188 OFFCURVE",
"34 -224 OFFCURVE",
"83 -224 CURVE SMOOTH",
"133 -224 OFFCURVE",
"159 -188 OFFCURVE",
"159 -153 CURVE SMOOTH",
"159 -115 OFFCURVE",
"130 -82 OFFCURVE",
"83 -82 CURVE SMOOTH",
"36 -82 OFFCURVE",
"9 -115 OFFCURVE",
"9 -153 CURVE SMOOTH"
);
}
);
width = 168;
}
);
},
{
glyphname = dotlessi;
lastChange = "2018-10-23 21:24:40 +0000";
layers = (
{
anchors = (
{
name = top;
position = "{132, 560}";
}
);
layerId = master01;
paths = (
{
closed = 1;
nodes = (
"174 464 LINE",
"166 464 LINE",
"28 423 LINE",
"28 411 LINE",
"92 388 LINE",
"92 30 LINE",
"27 17 LINE",
"27 0 LINE",
"238 0 LINE",
"238 17 LINE",
"174 30 LINE"
);
}
);
width = 258;
},
{
layerId = "FA6D65B5-4623-4FAC-A199-3F662257AC29";
paths = (
{
closed = 1;
nodes = (
"227 464 LINE",
"209 464 LINE",
"21 423 LINE",
"21 402 LINE",
"94 379 LINE",
"94 47 LINE",
"21 30 LINE",
"21 0 LINE",
"296 0 LINE",
"296 30 LINE",
"227 47 LINE"
);
}
);
width = 310;
}
);
leftKerningGroup = i;
rightKerningGroup = i;
unicode = 0131;
},
{
glyphname = dotlessj;
lastChange = "2018-10-23 21:24:40 +0000";
layers = (
{
anchors = (
{
name = top;
position = "{127, 560}";
}
);
layerId = master01;
paths = (
{
closed = 1;
nodes = (
"85 -137 OFFCURVE",
"62 -183 OFFCURVE",
"14 -183 CURVE SMOOTH",
"-8 -183 OFFCURVE",
"-17 -174 OFFCURVE",
"-29 -141 CURVE SMOOTH",
"-39 -115 OFFCURVE",
"-52 -101 OFFCURVE",
"-77 -101 CURVE SMOOTH",
"-105 -101 OFFCURVE",
"-123 -121 OFFCURVE",
"-123 -153 CURVE SMOOTH",
"-123 -197 OFFCURVE",
"-87 -224 OFFCURVE",
"-28 -224 CURVE SMOOTH",
"40 -224 OFFCURVE",
"99 -185 OFFCURVE",
"138 -113 CURVE SMOOTH",
"163 -67 OFFCURVE",
"167 -35 OFFCURVE",
"167 133 CURVE SMOOTH",
"167 464 LINE",
"159 464 LINE",
"22 423 LINE",
"22 411 LINE",
"85 388 LINE",
"85 -41 LINE SMOOTH"
);
}
);
width = 241;
},
{
layerId = "FA6D65B5-4623-4FAC-A199-3F662257AC29";
paths = (
{
closed = 1;
nodes = (
"83 -134 OFFCURVE",
"62 -179 OFFCURVE",
"21 -179 CURVE SMOOTH",
"-3 -179 OFFCURVE",
"-17 -165 OFFCURVE",
"-37 -124 CURVE SMOOTH",
"-52 -93 OFFCURVE",
"-67 -83 OFFCURVE",
"-94 -83 CURVE SMOOTH",
"-129 -83 OFFCURVE",
"-151 -103 OFFCURVE",
"-151 -136 CURVE SMOOTH",
"-151 -188 OFFCURVE",
"-90 -224 OFFCURVE",
"1 -224 CURVE SMOOTH",
"85 -224 OFFCURVE",
"140 -194 OFFCURVE",
"180 -126 CURVE SMOOTH",
"207 -78 OFFCURVE",
"216 -34 OFFCURVE",
"216 59 CURVE SMOOTH",
"216 464 LINE",
"198 464 LINE",
"9 423 LINE",
"9 402 LINE",
"83 379 LINE",
"83 -41 LINE SMOOTH"
);
}
);
width = 284;
}
);
leftKerningGroup = j;
rightKerningGroup = j;
unicode = 0237;
},
{
glyphname = e;
lastChange = "2018-10-23 21:24:40 +0000";
layers = (
{
anchors = (
{
name = bottom;
position = "{248, 0}";
},
{
name = top;
position = "{267, 560}";
}
);
layerId = master01;
paths = (
{
closed = 1;
nodes = (
"444 397 OFFCURVE",
"383 464 OFFCURVE",
"270 464 CURVE SMOOTH",
"133 464 OFFCURVE",
"40 366 OFFCURVE",
"40 221 CURVE SMOOTH",
"40 84 OFFCURVE",
"124 -9 OFFCURVE",
"247 -9 CURVE SMOOTH",
"331 -9 OFFCURVE",
"402 34 OFFCURVE",
"432 104 CURVE SMOOTH",
"437 116 LINE",
"422 125 LINE",
"412 112 LINE SMOOTH",
"382 76 OFFCURVE",
"331 54 OFFCURVE",
"275 54 CURVE SMOOTH",
"177 54 OFFCURVE",
"126 120 OFFCURVE",
"126 245 CURVE SMOOTH",
"126 368 OFFCURVE",
"175 438 OFFCURVE",
"262 438 CURVE SMOOTH",
"324 438 OFFCURVE",
"356 402 OFFCURVE",
"356 332 CURVE SMOOTH",
"356 318 OFFCURVE",
"355 304 OFFCURVE",
"353 297 CURVE",
"109 288 LINE",
"109 265 LINE",
"440 265 LINE",
"446 270 LINE"
);
}
);
width = 482;
},
{
anchors = (
{
name = bottom;
position = "{256, 0}";
},
{
name = top;
position = "{276, 560}";
}
);
layerId = "FA6D65B5-4623-4FAC-A199-3F662257AC29";
paths = (
{
closed = 1;
nodes = (
"489 392 OFFCURVE",
"420 464 OFFCURVE",
"289 464 CURVE SMOOTH",
"136 464 OFFCURVE",
"31 366 OFFCURVE",
"31 221 CURVE SMOOTH",
"31 84 OFFCURVE",
"125 -9 OFFCURVE",
"267 -9 CURVE SMOOTH",
"361 -9 OFFCURVE",
"443 35 OFFCURVE",
"475 113 CURVE SMOOTH",
"479 123 LINE",
"455 144 LINE",
"449 137 LINE SMOOTH",
"415 99 OFFCURVE",
"359 80 OFFCURVE",
"309 80 CURVE SMOOTH",
"218 80 OFFCURVE",
"174 137 OFFCURVE",
"174 254 CURVE SMOOTH",
"174 360 OFFCURVE",
"211 421 OFFCURVE",
"278 421 CURVE SMOOTH",
"328 421 OFFCURVE",
"354 389 OFFCURVE",
"354 329 CURVE SMOOTH",
"354 315 OFFCURVE",
"353 302 OFFCURVE",
"351 297 CURVE",
"111 288 LINE",
"111 249 LINE",
"487 249 LINE",
"494 255 LINE"
);
}
);
width = 519;
}
);
leftKerningGroup = e;
rightKerningGroup = e;
unicode = 0065;
},
{
glyphname = eight;
lastChange = "2018-10-23 21:24:40 +0000";
layers = (
{
layerId = master01;
paths = (
{
closed = 1;
nodes = (
"396 415 OFFCURVE",
"434 465 OFFCURVE",
"434 526 CURVE SMOOTH",
"434 610 OFFCURVE",
"360 671 OFFCURVE",
"258 671 CURVE SMOOTH",
"150 671 OFFCURVE",
"71 602 OFFCURVE",
"71 507 CURVE SMOOTH",
"71 444 OFFCURVE",
"106 393 OFFCURVE",
"183 342 CURVE",
"93 296 OFFCURVE",
"50 240 OFFCURVE",
"50 168 CURVE SMOOTH",
"50 66 OFFCURVE",
"135 -9 OFFCURVE",
"250 -9 CURVE SMOOTH",
"372 -9 OFFCURVE",
"464 76 OFFCURVE",
"464 185 CURVE SMOOTH",
"464 260 OFFCURVE",
"421 319 OFFCURVE",
"323 378 CURVE {name = hr00;}"
);
},
{
closed = 1;
nodes = (
"191 437 OFFCURVE",
"151 479 OFFCURVE",
"151 536 CURVE SMOOTH",
"151 594 OFFCURVE",
"192 632 OFFCURVE",
"253 632 CURVE SMOOTH",
"316 632 OFFCURVE",
"359 590 OFFCURVE",
"359 526 CURVE SMOOTH",
"359 476 OFFCURVE",
"334 433 OFFCURVE",
"282 396 CURVE"
);
},
{
closed = 1;
nodes = (
"337 271 OFFCURVE",
"386 219 OFFCURVE",
"386 147 CURVE SMOOTH",
"386 76 OFFCURVE",
"338 30 OFFCURVE",
"263 30 CURVE SMOOTH",
"184 30 OFFCURVE",
"136 83 OFFCURVE",
"136 169 CURVE SMOOTH",
"136 235 OFFCURVE",
"165 290 OFFCURVE",
"219 323 CURVE"
);
}
);
width = 512;
},
{
layerId = "FA6D65B5-4623-4FAC-A199-3F662257AC29";
paths = (
{
closed = 1;
nodes = (
"426 412 OFFCURVE",
"464 461 OFFCURVE",
"464 522 CURVE SMOOTH",
"464 611 OFFCURVE",
"386 671 OFFCURVE",
"270 671 CURVE SMOOTH",
"147 671 OFFCURVE",
"66 602 OFFCURVE",
"66 496 CURVE SMOOTH",
"66 427 OFFCURVE",
"99 372 OFFCURVE",
"168 325 CURVE",
"82 286 OFFCURVE",
"41 236 OFFCURVE",
"41 169 CURVE SMOOTH",
"41 66 OFFCURVE",
"121 -9 OFFCURVE",
"262 -9 CURVE SMOOTH",
"397 -9 OFFCURVE",
"495 75 OFFCURVE",
"495 192 CURVE SMOOTH",
"495 268 OFFCURVE",
"452 325 OFFCURVE",
"353 380 CURVE {name = hr00;}"
);
},
{
closed = 1;
nodes = (
"213 445 OFFCURVE",
"177 484 OFFCURVE",
"177 536 CURVE SMOOTH",
"177 587 OFFCURVE",
"211 619 OFFCURVE",
"264 619 CURVE SMOOTH",
"322 619 OFFCURVE",
"357 582 OFFCURVE",
"357 522 CURVE SMOOTH",
"357 477 OFFCURVE",
"338 438 OFFCURVE",
"301 403 CURVE"
);
},
{
closed = 1;
nodes = (
"329 252 OFFCURVE",
"378 205 OFFCURVE",
"378 143 CURVE SMOOTH",
"378 83 OFFCURVE",
"335 43 OFFCURVE",
"273 43 CURVE SMOOTH",
"202 43 OFFCURVE",
"162 92 OFFCURVE",
"162 177 CURVE SMOOTH",
"162 234 OFFCURVE",
"181 278 OFFCURVE",
"214 300 CURVE"
);
}
);
width = 535;
}
);
unicode = 0038;
},
{
glyphname = eight.denominator;
lastChange = "2018-10-23 21:24:40 +0000";
layers = (
{
layerId = master01;
paths = (
{
closed = 1;
nodes = (
"258 239 OFFCURVE",
"281 268 OFFCURVE",
"281 304 CURVE SMOOTH",
"281 356 OFFCURVE",
"236 391 OFFCURVE",
"170 391 CURVE SMOOTH",
"101 391 OFFCURVE",
"54 351 OFFCURVE",
"54 288 CURVE SMOOTH",
"54 248 OFFCURVE",
"73 216 OFFCURVE",
"116 187 CURVE",
"65 165 OFFCURVE",
"40 135 OFFCURVE",
"40 95 CURVE SMOOTH",
"40 35 OFFCURVE",
"88 -9 OFFCURVE",
"165 -9 CURVE SMOOTH",
"243 -9 OFFCURVE",
"298 40 OFFCURVE",
"298 110 CURVE SMOOTH",
"298 155 OFFCURVE",
"273 187 OFFCURVE",
"215 220 CURVE"
);
},
{
closed = 1;
nodes = (
"134 259 OFFCURVE",
"113 281 OFFCURVE",
"113 311 CURVE SMOOTH",
"113 342 OFFCURVE",
"134 361 OFFCURVE",
"167 361 CURVE SMOOTH",
"202 361 OFFCURVE",
"224 340 OFFCURVE",
"224 304 CURVE SMOOTH",
"224 278 OFFCURVE",
"212 255 OFFCURVE",
"187 234 CURVE"
);
},
{
closed = 1;
nodes = (
"209 145 OFFCURVE",
"237 118 OFFCURVE",
"237 81 CURVE SMOOTH",
"237 46 OFFCURVE",
"212 22 OFFCURVE",
"173 22 CURVE SMOOTH",
"129 22 OFFCURVE",
"103 51 OFFCURVE",
"103 101 CURVE SMOOTH",
"103 134 OFFCURVE",
"117 160 OFFCURVE",
"141 173 CURVE"
);
}
);
width = 339;
},
{
layerId = "FA6D65B5-4623-4FAC-A199-3F662257AC29";
paths = (
{
closed = 1;
nodes = (
"338 268 OFFCURVE",
"368 300 OFFCURVE",
"368 341 CURVE SMOOTH",
"368 399 OFFCURVE",
"305 438 OFFCURVE",
"212 438 CURVE SMOOTH",
"112 438 OFFCURVE",
"48 393 OFFCURVE",
"48 323 CURVE SMOOTH",
"48 276 OFFCURVE",
"73 240 OFFCURVE",
"124 210 CURVE",
"58 186 OFFCURVE",
"28 153 OFFCURVE",
"28 110 CURVE SMOOTH",
"28 43 OFFCURVE",
"89 -6 OFFCURVE",
"206 -6 CURVE SMOOTH",
"315 -6 OFFCURVE",
"391 49 OFFCURVE",
"391 126 CURVE SMOOTH",
"391 176 OFFCURVE",
"359 213 OFFCURVE",
"281 249 CURVE"
);
},
{
closed = 1;
nodes = (
"170 292 OFFCURVE",
"144 316 OFFCURVE",
"144 350 CURVE SMOOTH",
"144 383 OFFCURVE",
"168 402 OFFCURVE",
"206 402 CURVE SMOOTH",
"249 402 OFFCURVE",
"275 379 OFFCURVE",
"275 341 CURVE SMOOTH",
"275 312 OFFCURVE",
"262 286 OFFCURVE",
"237 264 CURVE"
);
},
{
closed = 1;
nodes = (
"251 162 OFFCURVE",
"289 132 OFFCURVE",
"289 93 CURVE SMOOTH",
"289 55 OFFCURVE",
"258 30 OFFCURVE",
"212 30 CURVE SMOOTH",
"160 30 OFFCURVE",
"132 61 OFFCURVE",
"132 117 CURVE SMOOTH",
"132 152 OFFCURVE",
"143 180 OFFCURVE",
"163 193 CURVE"
);
}
);
width = 419;
}
);
},
{
glyphname = eight.numerator;
lastChange = "2018-10-23 21:24:40 +0000";
layers = (
{
layerId = master01;
paths = (
{
closed = 1;
nodes = (
"258 518 OFFCURVE",
"281 547 OFFCURVE",
"281 582 CURVE SMOOTH",
"281 635 OFFCURVE",
"236 670 OFFCURVE",
"170 670 CURVE SMOOTH",
"101 670 OFFCURVE",
"54 630 OFFCURVE",
"54 567 CURVE SMOOTH",
"54 526 OFFCURVE",
"73 495 OFFCURVE",
"116 466 CURVE",
"65 444 OFFCURVE",
"40 414 OFFCURVE",
"40 374 CURVE SMOOTH",
"40 314 OFFCURVE",
"88 270 OFFCURVE",
"165 270 CURVE SMOOTH",
"243 270 OFFCURVE",
"298 319 OFFCURVE",
"298 389 CURVE SMOOTH",
"298 433 OFFCURVE",
"273 466 OFFCURVE",
"215 499 CURVE"
);
},
{
closed = 1;
nodes = (
"134 538 OFFCURVE",
"113 560 OFFCURVE",
"113 590 CURVE SMOOTH",
"113 621 OFFCURVE",
"134 640 OFFCURVE",
"167 640 CURVE SMOOTH",
"202 640 OFFCURVE",
"224 618 OFFCURVE",
"224 582 CURVE SMOOTH",
"224 556 OFFCURVE",
"212 533 OFFCURVE",
"187 513 CURVE"
);
},
{
closed = 1;
nodes = (
"209 424 OFFCURVE",
"237 396 OFFCURVE",
"237 359 CURVE SMOOTH",
"237 324 OFFCURVE",
"212 301 OFFCURVE",
"173 301 CURVE SMOOTH",
"129 301 OFFCURVE",
"103 329 OFFCURVE",
"103 380 CURVE SMOOTH",
"103 413 OFFCURVE",
"117 439 OFFCURVE",
"141 452 CURVE"
);
}
);
width = 339;
},
{
layerId = "FA6D65B5-4623-4FAC-A199-3F662257AC29";
paths = (
{
closed = 1;
nodes = (
"338 504 OFFCURVE",
"368 536 OFFCURVE",
"368 576 CURVE SMOOTH",
"368 635 OFFCURVE",
"305 673 OFFCURVE",
"212 673 CURVE SMOOTH",
"112 673 OFFCURVE",
"48 629 OFFCURVE",
"48 558 CURVE SMOOTH",
"48 512 OFFCURVE",
"73 476 OFFCURVE",
"124 445 CURVE",
"58 421 OFFCURVE",
"28 389 OFFCURVE",
"28 346 CURVE SMOOTH",
"28 279 OFFCURVE",
"89 230 OFFCURVE",
"206 230 CURVE SMOOTH",
"315 230 OFFCURVE",
"391 285 OFFCURVE",
"391 362 CURVE SMOOTH",
"391 412 OFFCURVE",
"359 449 OFFCURVE",
"281 484 CURVE"
);
},
{
closed = 1;
nodes = (
"170 528 OFFCURVE",
"144 552 OFFCURVE",
"144 586 CURVE SMOOTH",
"144 618 OFFCURVE",
"168 638 OFFCURVE",
"206 638 CURVE SMOOTH",
"249 638 OFFCURVE",
"275 615 OFFCURVE",
"275 576 CURVE SMOOTH",
"275 548 OFFCURVE",
"262 522 OFFCURVE",
"237 500 CURVE"
);
},
{
closed = 1;
nodes = (
"251 397 OFFCURVE",
"289 367 OFFCURVE",
"289 329 CURVE SMOOTH",
"289 291 OFFCURVE",
"258 266 OFFCURVE",
"212 266 CURVE SMOOTH",
"160 266 OFFCURVE",
"132 297 OFFCURVE",
"132 353 CURVE SMOOTH",
"132 388 OFFCURVE",
"143 415 OFFCURVE",
"163 428 CURVE"
);
}
);
width = 419;
}
);
},
{
glyphname = eight.oldstyle;
lastChange = "2018-10-23 21:24:40 +0000";
layers = (
{
layerId = master01;
paths = (
{
closed = 1;
nodes = (
"359 402 OFFCURVE",
"393 453 OFFCURVE",
"393 512 CURVE SMOOTH",
"393 593 OFFCURVE",
"326 652 OFFCURVE",
"234 652 CURVE SMOOTH",
"137 652 OFFCURVE",
"64 585 OFFCURVE",
"64 495 CURVE SMOOTH",
"64 427 OFFCURVE",
"97 374 OFFCURVE",
"176 321 CURVE",
"89 278 OFFCURVE",
"47 226 OFFCURVE",
"47 158 CURVE SMOOTH",
"47 64 OFFCURVE",
"122 -9 OFFCURVE",
"221 -9 CURVE SMOOTH",
"326 -9 OFFCURVE",
"406 71 OFFCURVE",
"406 178 CURVE SMOOTH",
"406 249 OFFCURVE",
"373 306 OFFCURVE",
"298 366 CURVE"
);
},
{
closed = 1;
nodes = (
"178 425 OFFCURVE",
"144 466 OFFCURVE",
"144 522 CURVE SMOOTH",
"144 577 OFFCURVE",
"178 613 OFFCURVE",
"229 613 CURVE SMOOTH",
"283 613 OFFCURVE",
"317 573 OFFCURVE",
"317 511 CURVE SMOOTH",
"317 464 OFFCURVE",
"298 421 OFFCURVE",
"258 383 CURVE"
);
},
{
closed = 1;
nodes = (
"292 255 OFFCURVE",
"328 206 OFFCURVE",
"328 140 CURVE SMOOTH",
"328 71 OFFCURVE",
"292 30 OFFCURVE",
"235 30 CURVE SMOOTH",
"172 30 OFFCURVE",
"133 79 OFFCURVE",
"133 157 CURVE SMOOTH",
"133 221 OFFCURVE",
"160 270 OFFCURVE",
"212 302 CURVE"
);
}
);
width = 455;
},
{
layerId = "FA6D65B5-4623-4FAC-A199-3F662257AC29";
paths = (
{
closed = 1;
nodes = (
"415 397 OFFCURVE",
"453 454 OFFCURVE",
"453 512 CURVE SMOOTH",
"453 593 OFFCURVE",
"372 652 OFFCURVE",
"259 652 CURVE SMOOTH",
"138 652 OFFCURVE",
"55 585 OFFCURVE",
"55 486 CURVE SMOOTH",
"55 423 OFFCURVE",
"88 373 OFFCURVE",
"163 318 CURVE",
"83 281 OFFCURVE",
"39 225 OFFCURVE",
"39 158 CURVE SMOOTH",
"39 63 OFFCURVE",
"129 -9 OFFCURVE",
"249 -9 CURVE SMOOTH",
"376 -9 OFFCURVE",
"466 71 OFFCURVE",
"466 184 CURVE SMOOTH",
"466 258 OFFCURVE",
"427 326 OFFCURVE",
"359 368 CURVE"
);
},
{
closed = 1;
nodes = (
"216 435 OFFCURVE",
"183 475 OFFCURVE",
"183 524 CURVE SMOOTH",
"183 570 OFFCURVE",
"212 600 OFFCURVE",
"255 600 CURVE SMOOTH",
"302 600 OFFCURVE",
"330 565 OFFCURVE",
"330 507 CURVE SMOOTH",
"330 463 OFFCURVE",
"316 422 OFFCURVE",
"290 396 CURVE"
);
},
{
closed = 1;
nodes = (
"306 245 OFFCURVE",
"341 197 OFFCURVE",
"341 137 CURVE SMOOTH",
"341 79 OFFCURVE",
"310 43 OFFCURVE",
"260 43 CURVE SMOOTH",
"205 43 OFFCURVE",
"172 87 OFFCURVE",
"172 161 CURVE SMOOTH",
"172 220 OFFCURVE",
"193 267 OFFCURVE",
"230 291 CURVE"
);
}
);
width = 507;
}
);
},
{
glyphname = eight.tnum;
lastChange = "2018-10-23 21:24:40 +0000";
layers = (
{
layerId = master01;
paths = (
{
closed = 1;
nodes = (
"394 415 OFFCURVE",
"433 465 OFFCURVE",
"433 526 CURVE SMOOTH",
"433 610 OFFCURVE",
"359 671 OFFCURVE",
"256 671 CURVE SMOOTH",
"148 671 OFFCURVE",
"69 602 OFFCURVE",
"69 507 CURVE SMOOTH",
"69 444 OFFCURVE",
"104 393 OFFCURVE",
"181 342 CURVE",
"91 296 OFFCURVE",
"48 240 OFFCURVE",
"48 168 CURVE SMOOTH",
"48 66 OFFCURVE",
"133 -9 OFFCURVE",
"249 -9 CURVE SMOOTH",
"370 -9 OFFCURVE",
"463 76 OFFCURVE",
"463 185 CURVE SMOOTH",
"463 260 OFFCURVE",
"419 319 OFFCURVE",
"321 378 CURVE {name = hr00;}"
);
},
{
closed = 1;
nodes = (
"189 437 OFFCURVE",
"150 479 OFFCURVE",
"150 536 CURVE SMOOTH",
"150 594 OFFCURVE",
"190 632 OFFCURVE",
"251 632 CURVE SMOOTH",
"315 632 OFFCURVE",
"357 590 OFFCURVE",
"357 526 CURVE SMOOTH",
"357 476 OFFCURVE",
"332 433 OFFCURVE",
"280 396 CURVE"
);
},
{
closed = 1;
nodes = (
"335 271 OFFCURVE",
"384 219 OFFCURVE",
"384 147 CURVE SMOOTH",
"384 76 OFFCURVE",
"336 30 OFFCURVE",
"261 30 CURVE SMOOTH",
"182 30 OFFCURVE",
"134 83 OFFCURVE",
"134 169 CURVE SMOOTH",
"134 235 OFFCURVE",
"163 290 OFFCURVE",
"218 323 CURVE"
);
}
);
width = 516;
},
{
layerId = "FA6D65B5-4623-4FAC-A199-3F662257AC29";
paths = (
{
closed = 1;
nodes = (
"414 412 OFFCURVE",
"452 461 OFFCURVE",
"452 522 CURVE SMOOTH",
"452 611 OFFCURVE",
"374 671 OFFCURVE",
"258 671 CURVE SMOOTH",
"135 671 OFFCURVE",
"54 602 OFFCURVE",
"54 496 CURVE SMOOTH",
"54 427 OFFCURVE",
"87 372 OFFCURVE",
"156 325 CURVE",
"70 286 OFFCURVE",
"29 236 OFFCURVE",
"29 169 CURVE SMOOTH",
"29 66 OFFCURVE",
"109 -9 OFFCURVE",
"250 -9 CURVE SMOOTH",
"385 -9 OFFCURVE",
"482 75 OFFCURVE",
"482 192 CURVE SMOOTH",
"482 268 OFFCURVE",
"440 325 OFFCURVE",
"341 380 CURVE {name = hr00;}"
);
},
{
closed = 1;
nodes = (
"201 445 OFFCURVE",
"165 484 OFFCURVE",
"165 536 CURVE SMOOTH",
"165 587 OFFCURVE",
"199 619 OFFCURVE",
"252 619 CURVE SMOOTH",
"310 619 OFFCURVE",
"345 582 OFFCURVE",
"345 522 CURVE SMOOTH",
"345 477 OFFCURVE",
"326 438 OFFCURVE",
"289 403 CURVE"
);
},
{
closed = 1;
nodes = (
"316 252 OFFCURVE",
"366 205 OFFCURVE",
"366 143 CURVE SMOOTH",
"366 83 OFFCURVE",
"323 43 OFFCURVE",
"261 43 CURVE SMOOTH",
"190 43 OFFCURVE",
"150 92 OFFCURVE",
"150 177 CURVE SMOOTH",
"150 234 OFFCURVE",
"169 278 OFFCURVE",
"202 300 CURVE"
);
}
);
width = 516;
}
);
userData = {
com.typemytype.robofont.mark = (
1,
0.6,
0.6,
1
);
};
},
{
glyphname = eightinferior;
lastChange = "2018-10-23 21:24:40 +0000";
layers = (
{
layerId = master01;
paths = (
{
closed = 1;
nodes = (
"280 137 OFFCURVE",
"305 169 OFFCURVE",
"305 209 CURVE SMOOTH",
"305 267 OFFCURVE",
"255 306 OFFCURVE",
"182 306 CURVE SMOOTH",
"106 306 OFFCURVE",
"53 261 OFFCURVE",
"53 192 CURVE SMOOTH",
"53 146 OFFCURVE",
"75 111 OFFCURVE",
"122 80 CURVE",
"65 55 OFFCURVE",
"38 22 OFFCURVE",
"38 -22 CURVE SMOOTH",
"38 -89 OFFCURVE",
"91 -138 OFFCURVE",
"177 -138 CURVE SMOOTH",
"262 -138 OFFCURVE",
"325 -83 OFFCURVE",
"325 -7 CURVE SMOOTH",
"325 43 OFFCURVE",
"297 80 OFFCURVE",
"232 116 CURVE"
);
},
{
closed = 1;
nodes = (
"143 159 OFFCURVE",
"119 184 OFFCURVE",
"119 218 CURVE SMOOTH",
"119 252 OFFCURVE",
"142 273 OFFCURVE",
"179 273 CURVE SMOOTH",
"218 273 OFFCURVE",
"243 249 OFFCURVE",
"243 209 CURVE SMOOTH",
"243 180 OFFCURVE",
"229 154 OFFCURVE",
"201 132 CURVE"
);
},
{
closed = 1;
nodes = (
"225 33 OFFCURVE",
"257 2 OFFCURVE",
"257 -39 CURVE SMOOTH",
"257 -78 OFFCURVE",
"229 -104 OFFCURVE",
"185 -104 CURVE SMOOTH",
"137 -104 OFFCURVE",
"108 -72 OFFCURVE",
"108 -16 CURVE SMOOTH",
"108 21 OFFCURVE",
"123 49 OFFCURVE",
"150 64 CURVE"
);
}
);
width = 363;
},
{
layerId = "FA6D65B5-4623-4FAC-A199-3F662257AC29";
paths = (
{
closed = 1;
nodes = (
"338 135 OFFCURVE",
"368 167 OFFCURVE",
"368 207 CURVE SMOOTH",
"368 266 OFFCURVE",
"305 304 OFFCURVE",
"212 304 CURVE SMOOTH",
"112 304 OFFCURVE",
"48 260 OFFCURVE",
"48 189 CURVE SMOOTH",
"48 143 OFFCURVE",
"73 107 OFFCURVE",
"124 77 CURVE",
"58 52 OFFCURVE",
"28 20 OFFCURVE",
"28 -23 CURVE SMOOTH",
"28 -90 OFFCURVE",
"89 -139 OFFCURVE",
"206 -139 CURVE SMOOTH",
"315 -139 OFFCURVE",
"391 -84 OFFCURVE",
"391 -7 CURVE SMOOTH",
"391 43 OFFCURVE",
"359 80 OFFCURVE",
"281 115 CURVE"
);
},
{
closed = 1;
nodes = (
"170 159 OFFCURVE",
"144 183 OFFCURVE",
"144 217 CURVE SMOOTH",
"144 249 OFFCURVE",
"168 269 OFFCURVE",
"206 269 CURVE SMOOTH",
"249 269 OFFCURVE",
"275 246 OFFCURVE",
"275 207 CURVE SMOOTH",
"275 179 OFFCURVE",
"262 153 OFFCURVE",
"237 131 CURVE"
);
},
{
closed = 1;
nodes = (
"251 28 OFFCURVE",
"289 -2 OFFCURVE",
"289 -40 CURVE SMOOTH",
"289 -78 OFFCURVE",
"258 -103 OFFCURVE",
"212 -103 CURVE SMOOTH",
"160 -103 OFFCURVE",
"132 -72 OFFCURVE",
"132 -16 CURVE SMOOTH",
"132 19 OFFCURVE",
"143 46 OFFCURVE",
"163 59 CURVE"
);
}
);
width = 419;
}
);
unicode = 2088;
},
{
glyphname = eightsuperior;
lastChange = "2018-10-23 21:24:40 +0000";
layers = (
{
layerId = master01;
paths = (
{
closed = 1;
nodes = (
"281 627 OFFCURVE",
"306 660 OFFCURVE",
"306 699 CURVE SMOOTH",
"306 757 OFFCURVE",
"256 796 OFFCURVE",
"183 796 CURVE SMOOTH",
"107 796 OFFCURVE",
"54 752 OFFCURVE",
"54 682 CURVE SMOOTH",
"54 636 OFFCURVE",
"76 601 OFFCURVE",
"123 570 CURVE",
"65 545 OFFCURVE",
"39 512 OFFCURVE",
"39 468 CURVE SMOOTH",
"39 401 OFFCURVE",
"92 352 OFFCURVE",
"178 352 CURVE SMOOTH",
"263 352 OFFCURVE",
"326 407 OFFCURVE",
"326 483 CURVE SMOOTH",
"326 533 OFFCURVE",
"298 570 OFFCURVE",
"233 606 CURVE"
);
},
{
closed = 1;
nodes = (
"144 649 OFFCURVE",
"120 674 OFFCURVE",
"120 708 CURVE SMOOTH",
"120 742 OFFCURVE",
"143 763 OFFCURVE",
"180 763 CURVE SMOOTH",
"218 763 OFFCURVE",
"243 739 OFFCURVE",
"243 699 CURVE SMOOTH",
"243 670 OFFCURVE",
"230 644 OFFCURVE",
"202 622 CURVE"
);
},
{
closed = 1;
nodes = (
"226 523 OFFCURVE",
"258 492 OFFCURVE",
"258 452 CURVE SMOOTH",
"258 412 OFFCURVE",
"230 386 OFFCURVE",
"186 386 CURVE SMOOTH",
"138 386 OFFCURVE",
"109 418 OFFCURVE",
"109 474 CURVE SMOOTH",
"109 511 OFFCURVE",
"124 539 OFFCURVE",
"151 554 CURVE"
);
}
);
width = 364;
},
{
layerId = "FA6D65B5-4623-4FAC-A199-3F662257AC29";
paths = (
{
closed = 1;
nodes = (
"338 629 OFFCURVE",
"368 660 OFFCURVE",
"368 701 CURVE SMOOTH",
"368 759 OFFCURVE",
"305 798 OFFCURVE",
"212 798 CURVE SMOOTH",
"112 798 OFFCURVE",
"48 753 OFFCURVE",
"48 683 CURVE SMOOTH",
"48 636 OFFCURVE",
"73 600 OFFCURVE",
"124 570 CURVE",
"58 546 OFFCURVE",
"28 513 OFFCURVE",
"28 470 CURVE SMOOTH",
"28 403 OFFCURVE",
"89 354 OFFCURVE",
"206 354 CURVE SMOOTH",
"315 354 OFFCURVE",
"391 409 OFFCURVE",
"391 487 CURVE SMOOTH",
"391 537 OFFCURVE",
"359 574 OFFCURVE",
"281 609 CURVE"
);
},
{
closed = 1;
nodes = (
"170 653 OFFCURVE",
"144 677 OFFCURVE",
"144 710 CURVE SMOOTH",
"144 743 OFFCURVE",
"168 763 OFFCURVE",
"206 763 CURVE SMOOTH",
"249 763 OFFCURVE",
"275 740 OFFCURVE",
"275 701 CURVE SMOOTH",
"275 673 OFFCURVE",
"262 647 OFFCURVE",
"237 624 CURVE"
);
},
{
closed = 1;
nodes = (
"251 522 OFFCURVE",
"289 492 OFFCURVE",
"289 453 CURVE SMOOTH",
"289 415 OFFCURVE",
"258 390 OFFCURVE",
"212 390 CURVE SMOOTH",
"160 390 OFFCURVE",
"132 421 OFFCURVE",
"132 477 CURVE SMOOTH",
"132 513 OFFCURVE",
"143 540 OFFCURVE",
"163 553 CURVE"
);
}
);
width = 419;
}
);
unicode = 2078;
},
{
glyphname = ellipsis;
lastChange = "2018-10-23 21:24:40 +0000";
layers = (
{
layerId = master01;
paths = (
{
closed = 1;
nodes = (
"53 18 OFFCURVE",
"77 -9 OFFCURVE",
"112 -9 CURVE SMOOTH",
"149 -9 OFFCURVE",
"172 18 OFFCURVE",
"172 50 CURVE SMOOTH",
"172 84 OFFCURVE",
"149 110 OFFCURVE",
"112 110 CURVE SMOOTH",
"77 110 OFFCURVE",
"53 84 OFFCURVE",
"53 50 CURVE SMOOTH"
);
},
{
closed = 1;
nodes = (
"294 18 OFFCURVE",
"317 -9 OFFCURVE",
"353 -9 CURVE SMOOTH",
"390 -9 OFFCURVE",
"413 18 OFFCURVE",
"413 50 CURVE SMOOTH",
"413 84 OFFCURVE",
"390 110 OFFCURVE",
"353 110 CURVE SMOOTH",
"317 110 OFFCURVE",
"294 84 OFFCURVE",
"294 50 CURVE SMOOTH"
);
},
{
closed = 1;
nodes = (
"535 18 OFFCURVE",
"558 -9 OFFCURVE",
"593 -9 CURVE SMOOTH",
"630 -9 OFFCURVE",
"654 18 OFFCURVE",
"654 50 CURVE SMOOTH",
"654 84 OFFCURVE",
"630 110 OFFCURVE",
"593 110 CURVE SMOOTH",
"558 110 OFFCURVE",
"535 84 OFFCURVE",
"535 50 CURVE SMOOTH"
);
}
);
width = 707;
},
{
layerId = "FA6D65B5-4623-4FAC-A199-3F662257AC29";
paths = (
{
closed = 1;
nodes = (
"43 22 OFFCURVE",
"74 -9 OFFCURVE",
"120 -9 CURVE SMOOTH",
"165 -9 OFFCURVE",
"198 22 OFFCURVE",
"198 65 CURVE SMOOTH",
"198 109 OFFCURVE",
"164 141 OFFCURVE",
"119 141 CURVE SMOOTH",
"74 141 OFFCURVE",
"43 109 OFFCURVE",
"43 65 CURVE SMOOTH"
);
},
{
closed = 1;
nodes = (
"301 22 OFFCURVE",
"332 -9 OFFCURVE",
"378 -9 CURVE SMOOTH",
"423 -9 OFFCURVE",
"456 22 OFFCURVE",
"456 65 CURVE SMOOTH",
"456 109 OFFCURVE",
"422 141 OFFCURVE",
"377 141 CURVE SMOOTH",
"332 141 OFFCURVE",
"301 109 OFFCURVE",
"301 65 CURVE SMOOTH"
);
},
{
closed = 1;
nodes = (
"559 22 OFFCURVE",
"590 -9 OFFCURVE",
"636 -9 CURVE SMOOTH",
"681 -9 OFFCURVE",
"714 22 OFFCURVE",
"714 65 CURVE SMOOTH",
"714 109 OFFCURVE",
"680 141 OFFCURVE",
"635 141 CURVE SMOOTH",
"590 141 OFFCURVE",
"559 109 OFFCURVE",
"559 65 CURVE SMOOTH"
);
}
);
width = 757;
}
);
leftKerningGroup = period;
unicode = 2026;
},
{
glyphname = emdash;
lastChange = "2018-10-23 21:24:40 +0000";
layers = (
{
layerId = master01;
paths = (
{
closed = 1;
nodes = (
"857 243 LINE",
"66 243 LINE",
"66 191 LINE",
"857 191 LINE"
);
}
);
width = 924;
},
{
layerId = "FA6D65B5-4623-4FAC-A199-3F662257AC29";
paths = (
{
closed = 1;
nodes = (
"852 249 LINE",
"61 249 LINE",
"61 183 LINE",
"852 183 LINE"
);
}
);
width = 913;
}
);
leftKerningGroup = hyphen;
rightKerningGroup = hyphen;
unicode = 2014;
},
{
glyphname = endash;
lastChange = "2018-10-23 21:24:40 +0000";
layers = (
{
layerId = master01;
paths = (
{
closed = 1;
nodes = (
"581 243 LINE",
"66 243 LINE",
"66 190 LINE",
"581 190 LINE"
);
}
);
width = 648;
},
{
layerId = "FA6D65B5-4623-4FAC-A199-3F662257AC29";
paths = (
{
closed = 1;
nodes = (
"576 249 LINE",
"61 249 LINE",
"61 183 LINE",
"576 183 LINE"
);
}
);
width = 637;
}
);
leftKerningGroup = hyphen;
rightKerningGroup = hyphen;
unicode = 2013;
},
{
glyphname = eng;
lastChange = "2018-10-23 21:24:40 +0000";
layers = (
{
layerId = master01;
paths = (
{
closed = 1;
nodes = (
"174 383 LINE",
"170 387 LINE",
"170 464 LINE",
"162 464 LINE",
"28 422 LINE",
"28 411 LINE",
"92 387 LINE",
"92 30 LINE",
"27 17 LINE",
"27 0 LINE",
"238 0 LINE",
"238 17 LINE",
"174 30 LINE"
);
},
{
closed = 1;
nodes = (
"195 394 OFFCURVE",
"238 417 OFFCURVE",
"284 417 CURVE SMOOTH",
"318 417 OFFCURVE",
"340 404 OFFCURVE",
"351 378 CURVE SMOOTH",
"359 359 OFFCURVE",
"361 331 OFFCURVE",
"361 282 CURVE SMOOTH",
"361 116 LINE",
"443 116 LINE",
"443 291 LINE SMOOTH",
"443 373 OFFCURVE",
"441 395 OFFCURVE",
"432 413 CURVE SMOOTH",
"415 445 OFFCURVE",
"378 464 OFFCURVE",
"332 464 CURVE SMOOTH",
"275 464 OFFCURVE",
"215 436 OFFCURVE",
"165 386 CURVE",
"165 353 LINE"
);
},
{
closed = 1;
nodes = (
"361 -137 OFFCURVE",
"338 -183 OFFCURVE",
"290 -183 CURVE SMOOTH",
"268 -183 OFFCURVE",
"259 -174 OFFCURVE",
"247 -141 CURVE SMOOTH",
"237 -115 OFFCURVE",
"224 -101 OFFCURVE",
"200 -101 CURVE SMOOTH",
"171 -101 OFFCURVE",
"153 -121 OFFCURVE",
"153 -153 CURVE SMOOTH",
"153 -197 OFFCURVE",
"189 -224 OFFCURVE",
"248 -224 CURVE SMOOTH",
"316 -224 OFFCURVE",
"375 -185 OFFCURVE",
"415 -113 CURVE SMOOTH",
"439 -67 OFFCURVE",
"443 -35 OFFCURVE",
"443 133 CURVE",
"361 163 LINE",
"361 -41 LINE SMOOTH"
);
}
);
width = 513;
},
{
layerId = "FA6D65B5-4623-4FAC-A199-3F662257AC29";
paths = (
{
closed = 1;
nodes = (
"221 387 LINE",
"217 391 LINE",
"217 464 LINE",
"198 464 LINE",
"22 422 LINE",
"22 402 LINE",
"88 378 LINE",
"88 47 LINE",
"23 30 LINE",
"23 0 LINE",
"281 0 LINE",
"281 30 LINE",
"221 47 LINE"
);
},
{
closed = 1;
nodes = (
"232 373 OFFCURVE",
"256 387 OFFCURVE",
"291 387 CURVE SMOOTH",
"327 387 OFFCURVE",
"354 372 OFFCURVE",
"366 343 CURVE SMOOTH",
"373 328 OFFCURVE",
"375 307 OFFCURVE",
"375 240 CURVE SMOOTH",
"375 47 LINE",
"508 47 LINE",
"508 273 LINE SMOOTH",
"508 350 OFFCURVE",
"506 373 OFFCURVE",
"495 396 CURVE SMOOTH",
"474 439 OFFCURVE",
"431 464 OFFCURVE",
"375 464 CURVE SMOOTH",
"315 464 OFFCURVE",
"249 437 OFFCURVE",
"211 395 CURVE",
"211 341 LINE"
);
},
{
closed = 1;
nodes = (
"375 -134 OFFCURVE",
"354 -179 OFFCURVE",
"313 -179 CURVE SMOOTH",
"289 -179 OFFCURVE",
"275 -165 OFFCURVE",
"255 -124 CURVE SMOOTH",
"240 -93 OFFCURVE",
"225 -83 OFFCURVE",
"199 -83 CURVE SMOOTH",
"163 -83 OFFCURVE",
"141 -103 OFFCURVE",
"141 -136 CURVE SMOOTH",
"141 -188 OFFCURVE",
"202 -224 OFFCURVE",
"293 -224 CURVE SMOOTH",
"378 -224 OFFCURVE",
"433 -194 OFFCURVE",
"472 -126 CURVE SMOOTH",
"500 -78 OFFCURVE",
"508 -34 OFFCURVE",
"508 59 CURVE",
"375 98 LINE",
"375 -41 LINE SMOOTH"
);
}
);
width = 568;
}
);
leftKerningGroup = n;
unicode = 014B;
},
{
glyphname = equal;
lastChange = "2018-10-23 21:24:40 +0000";
layers = (
{
layerId = master01;
paths = (
{
closed = 1;
nodes = (
"420 383 LINE",
"67 383 LINE",
"67 345 LINE",
"420 345 LINE {name = hr00;}"
);
},
{
closed = 1;
nodes = (
"420 244 LINE",
"67 244 LINE",
"67 206 LINE",
"420 206 LINE"
);
}
);
width = 487;
},
{
layerId = "FA6D65B5-4623-4FAC-A199-3F662257AC29";
paths = (
{
closed = 1;
nodes = (
"411 391 LINE",
"58 391 LINE",
"58 337 LINE",
"411 337 LINE {name = hr00;}"
);
},
{
closed = 1;
nodes = (
"411 253 LINE",
"58 253 LINE",
"58 199 LINE",
"411 199 LINE"
);
}
);
width = 470;
}
);
unicode = 003D;
},
{
glyphname = equal.tnum;
lastChange = "2018-10-23 21:24:40 +0000";
layers = (
{
layerId = master01;
paths = (
{
closed = 1;
nodes = (
"434 383 LINE",
"82 383 LINE",
"82 345 LINE",
"434 345 LINE {name = hr00;}"
);
},
{
closed = 1;
nodes = (
"434 244 LINE",
"82 244 LINE",
"82 206 LINE",
"434 206 LINE"
);
}
);
width = 516;
},
{
layerId = "FA6D65B5-4623-4FAC-A199-3F662257AC29";
paths = (
{
closed = 1;
nodes = (
"434 391 LINE",
"82 391 LINE",
"82 337 LINE",
"434 337 LINE {name = hr00;}"
);
},
{
closed = 1;
nodes = (
"434 253 LINE",
"82 253 LINE",
"82 199 LINE",
"434 199 LINE"
);
}
);
width = 516;
}
);
userData = {
com.typemytype.robofont.mark = (
1,
0.6,
0.6,
1
);
};
},
{
glyphname = eth;
lastChange = "2018-10-23 21:24:40 +0000";
layers = (
{
layerId = master01;
paths = (
{
closed = 1;
nodes = (
"375 -9 OFFCURVE",
"465 93 OFFCURVE",
"465 240 CURVE SMOOTH",
"465 424 OFFCURVE",
"330 601 OFFCURVE",
"137 671 CURVE",
"121 641 LINE",
"230 588 OFFCURVE",
"341 454 OFFCURVE",
"357 354 CURVE",
"335 379 OFFCURVE",
"280 399 OFFCURVE",
"232 399 CURVE SMOOTH",
"126 399 OFFCURVE",
"41 308 OFFCURVE",
"41 195 CURVE SMOOTH",
"41 77 OFFCURVE",
"126 -9 OFFCURVE",
"244 -9 CURVE SMOOTH {name = hr00;}"
);
},
{
closed = 1;
nodes = (
"183 30 OFFCURVE",
"144 89 OFFCURVE",
"144 181 CURVE SMOOTH",
"144 282 OFFCURVE",
"193 350 OFFCURVE",
"264 350 CURVE SMOOTH",
"300 350 OFFCURVE",
"338 332 OFFCURVE",
"359 304 CURVE",
"365 278 OFFCURVE",
"369 238 OFFCURVE",
"369 209 CURVE SMOOTH",
"369 106 OFFCURVE",
"316 30 OFFCURVE",
"245 30 CURVE SMOOTH"
);
},
{
closed = 1;
nodes = (
"354 661 LINE",
"133 518 LINE",
"158 478 LINE",
"380 622 LINE"
);
}
);
width = 507;
},
{
layerId = "FA6D65B5-4623-4FAC-A199-3F662257AC29";
paths = (
{
closed = 1;
nodes = (
"374 -9 OFFCURVE",
"481 85 OFFCURVE",
"481 252 CURVE SMOOTH",
"481 445 OFFCURVE",
"360 597 OFFCURVE",
"139 671 CURVE",
"111 628 LINE",
"239 562 OFFCURVE",
"310 470 OFFCURVE",
"328 361 CURVE",
"307 390 OFFCURVE",
"268 406 OFFCURVE",
"221 406 CURVE SMOOTH",
"111 406 OFFCURVE",
"31 320 OFFCURVE",
"31 203 CURVE SMOOTH",
"31 77 OFFCURVE",
"123 -9 OFFCURVE",
"247 -9 CURVE SMOOTH {name = hr00;}"
);
},
{
closed = 1;
nodes = (
"203 43 OFFCURVE",
"172 99 OFFCURVE",
"172 188 CURVE SMOOTH",
"172 282 OFFCURVE",
"206 341 OFFCURVE",
"259 341 CURVE SMOOTH",
"288 341 OFFCURVE",
"315 324 OFFCURVE",
"329 295 CURVE",
"336 269 OFFCURVE",
"340 237 OFFCURVE",
"340 205 CURVE SMOOTH",
"340 105 OFFCURVE",
"306 43 OFFCURVE",
"253 43 CURVE SMOOTH"
);
},
{
closed = 1;
nodes = (
"378 666 LINE",
"134 495 LINE",
"171 441 LINE",
"415 613 LINE"
);
}
);
width = 522;
}
);
leftKerningGroup = o;
unicode = 00F0;
},
{
glyphname = exclam;
lastChange = "2018-10-23 21:24:40 +0000";
layers = (
{
layerId = master01;
paths = (
{
closed = 1;
nodes = (
"148 290 OFFCURVE",
"157 377 OFFCURVE",
"164 447 CURVE SMOOTH",
"174 530 OFFCURVE",
"181 592 OFFCURVE",
"181 614 CURVE SMOOTH",
"181 645 OFFCURVE",
"167 671 OFFCURVE",
"130 671 CURVE SMOOTH",
"96 671 OFFCURVE",
"77 645 OFFCURVE",
"77 611 CURVE SMOOTH",
"77 590 OFFCURVE",
"85 528 OFFCURVE",
"95 444 CURVE SMOOTH",
"102 374 OFFCURVE",
"110 289 OFFCURVE",
"116 198 CURVE",
"143 198 LINE"
);
},
{
closed = 1;
nodes = (
"74 16 OFFCURVE",
"95 -9 OFFCURVE",
"129 -9 CURVE SMOOTH",
"164 -9 OFFCURVE",
"186 16 OFFCURVE",
"186 46 CURVE SMOOTH",
"186 79 OFFCURVE",
"164 103 OFFCURVE",
"129 103 CURVE SMOOTH",
"95 103 OFFCURVE",
"74 79 OFFCURVE",
"74 46 CURVE SMOOTH"
);
}
);
width = 259;
},
{
layerId = "FA6D65B5-4623-4FAC-A199-3F662257AC29";
paths = (
{
closed = 1;
nodes = (
"167 264 OFFCURVE",
"176 336 OFFCURVE",
"194 418 CURVE SMOOTH",
"212 509 OFFCURVE",
"218 553 OFFCURVE",
"218 597 CURVE SMOOTH",
"218 636 OFFCURVE",
"196 671 OFFCURVE",
"141 671 CURVE SMOOTH",
"92 671 OFFCURVE",
"63 638 OFFCURVE",
"63 594 CURVE SMOOTH",
"63 556 OFFCURVE",
"69 509 OFFCURVE",
"87 421 CURVE SMOOTH",
"104 337 OFFCURVE",
"114 265 OFFCURVE",
"114 198 CURVE",
"167 198 LINE"
);
},
{
closed = 1;
nodes = (
"65 27 OFFCURVE",
"91 -9 OFFCURVE",
"139 -9 CURVE SMOOTH",
"190 -9 OFFCURVE",
"216 27 OFFCURVE",
"216 62 CURVE SMOOTH",
"216 100 OFFCURVE",
"187 133 OFFCURVE",
"139 133 CURVE SMOOTH",
"93 133 OFFCURVE",
"65 100 OFFCURVE",
"65 62 CURVE SMOOTH"
);
}
);
width = 281;
}
);
unicode = 0021;
},
{
glyphname = exclamdown;
lastChange = "2018-10-23 21:24:40 +0000";
layers = (
{
layerId = master01;
paths = (
{
closed = 1;
nodes = (
"99 166 OFFCURVE",
"90 79 OFFCURVE",
"83 9 CURVE SMOOTH",
"73 -74 OFFCURVE",
"65 -136 OFFCURVE",
"65 -158 CURVE SMOOTH",
"65 -189 OFFCURVE",
"80 -215 OFFCURVE",
"117 -215 CURVE SMOOTH",
"151 -215 OFFCURVE",
"169 -189 OFFCURVE",
"169 -156 CURVE SMOOTH",
"169 -134 OFFCURVE",
"162 -72 OFFCURVE",
"152 12 CURVE SMOOTH",
"144 82 OFFCURVE",
"137 167 OFFCURVE",
"131 258 CURVE",
"104 258 LINE"
);
},
{
closed = 1;
nodes = (
"173 439 OFFCURVE",
"151 464 OFFCURVE",
"118 464 CURVE SMOOTH",
"83 464 OFFCURVE",
"61 439 OFFCURVE",
"61 409 CURVE SMOOTH",
"61 377 OFFCURVE",
"83 353 OFFCURVE",
"118 353 CURVE SMOOTH",
"151 353 OFFCURVE",
"173 377 OFFCURVE",
"173 409 CURVE SMOOTH"
);
}
);
width = 235;
},
{
layerId = "FA6D65B5-4623-4FAC-A199-3F662257AC29";
paths = (
{
closed = 1;
nodes = (
"103 195 OFFCURVE",
"97 148 OFFCURVE",
"76 35 CURVE SMOOTH",
"59 -49 OFFCURVE",
"52 -106 OFFCURVE",
"52 -137 CURVE SMOOTH",
"52 -194 OFFCURVE",
"78 -224 OFFCURVE",
"132 -224 CURVE SMOOTH",
"183 -224 OFFCURVE",
"207 -196 OFFCURVE",
"207 -137 CURVE SMOOTH",
"207 -104 OFFCURVE",
"200 -57 OFFCURVE",
"182 38 CURVE SMOOTH",
"161 148 OFFCURVE",
"156 193 OFFCURVE",
"156 258 CURVE",
"103 258 LINE"
);
},
{
closed = 1;
nodes = (
"205 435 OFFCURVE",
"173 464 OFFCURVE",
"129 464 CURVE SMOOTH",
"85 464 OFFCURVE",
"54 435 OFFCURVE",
"54 394 CURVE SMOOTH",
"54 353 OFFCURVE",
"85 323 OFFCURVE",
"128 323 CURVE SMOOTH",
"172 323 OFFCURVE",
"205 353 OFFCURVE",
"205 394 CURVE SMOOTH"
);
}
);
width = 259;
}
);
unicode = 00A1;
},
{
glyphname = f;
lastChange = "2018-10-23 21:24:40 +0000";
layers = (
{
layerId = master01;
paths = (
{
closed = 1;
nodes = (
"177 577 OFFCURVE",
"183 619 OFFCURVE",
"195 645 CURVE SMOOTH",
"209 675 OFFCURVE",
"233 687 OFFCURVE",
"259 687 CURVE SMOOTH",
"286 687 OFFCURVE",
"296 673 OFFCURVE",
"302 642 CURVE SMOOTH",
"306 621 OFFCURVE",
"316 599 OFFCURVE",
"344 599 CURVE SMOOTH",
"369 599 OFFCURVE",
"386 616 OFFCURVE",
"386 641 CURVE SMOOTH",
"386 683 OFFCURVE",
"337 714 OFFCURVE",
"275 714 CURVE SMOOTH",
"203 714 OFFCURVE",
"132 672 OFFCURVE",
"108 608 CURVE SMOOTH",
"97 577 OFFCURVE",
"95 536 OFFCURVE",
"95 444 CURVE SMOOTH",
"95 29 LINE",
"31 16 LINE",
"31 0 LINE",
"268 0 LINE",
"268 16 LINE",
"177 29 LINE",
"177 503 LINE SMOOTH"
);
},
{
closed = 1;
nodes = (
"278 428 LINE",
"288 456 LINE",
"30 456 LINE",
"20 428 LINE"
);
}
);
width = 302;
},
{
layerId = "FA6D65B5-4623-4FAC-A199-3F662257AC29";
paths = (
{
closed = 1;
nodes = (
"233 562 OFFCURVE",
"234 604 OFFCURVE",
"243 630 CURVE SMOOTH",
"253 658 OFFCURVE",
"275 670 OFFCURVE",
"300 670 CURVE SMOOTH",
"327 670 OFFCURVE",
"339 658 OFFCURVE",
"347 625 CURVE SMOOTH",
"356 592 OFFCURVE",
"378 573 OFFCURVE",
"408 573 CURVE SMOOTH",
"443 573 OFFCURVE",
"467 596 OFFCURVE",
"467 630 CURVE SMOOTH",
"467 680 OFFCURVE",
"407 714 OFFCURVE",
"316 714 CURVE SMOOTH",
"222 714 OFFCURVE",
"142 671 OFFCURVE",
"114 605 CURVE SMOOTH",
"102 577 OFFCURVE",
"100 547 OFFCURVE",
"100 444 CURVE SMOOTH",
"100 47 LINE",
"27 30 LINE",
"27 0 LINE",
"339 0 LINE",
"339 30 LINE",
"233 47 LINE",
"233 503 LINE SMOOTH"
);
},
{
closed = 1;
nodes = (
"337 415 LINE",
"349 456 LINE",
"24 456 LINE",
"12 415 LINE"
);
}
);
width = 363;
}
);
leftKerningGroup = f;
rightKerningGroup = f;
unicode = 0066;
},
{
glyphname = f_b;
lastChange = "2018-10-23 21:24:40 +0000";
layers = (
{
layerId = master01;
paths = (
{
closed = 1;
nodes = (
"268 0 LINE",
"268 16 LINE",
"177 29 LINE",
"177 428 LINE",
"300 428 LINE",
"310 456 LINE",
"177 456 LINE",
"177 503 LINE SMOOTH",
"177 586 OFFCURVE",
"179 603 OFFCURVE",
"193 629 CURVE SMOOTH",
"212 667 OFFCURVE",
"239 685 OFFCURVE",
"287 685 CURVE SMOOTH",
"332 685 OFFCURVE",
"368 653 OFFCURVE",
"368 610 CURVE SMOOTH",
"368 2 LINE",
"382 2 LINE",
"418 31 LINE",
"422 31 LINE",
"457 5 OFFCURVE",
"498 -9 OFFCURVE",
"541 -9 CURVE SMOOTH",
"670 -9 OFFCURVE",
"768 101 OFFCURVE",
"768 247 CURVE SMOOTH",
"768 376 OFFCURVE",
"691 464 OFFCURVE",
"578 464 CURVE SMOOTH",
"527 464 OFFCURVE",
"483 445 OFFCURVE",
"447 406 CURVE",
"447 667 LINE SMOOTH",
"447 694 OFFCURVE",
"381 714 OFFCURVE",
"303 714 CURVE SMOOTH",
"210 714 OFFCURVE",
"133 671 OFFCURVE",
"108 605 CURVE SMOOTH",
"98 578 OFFCURVE",
"95 547 OFFCURVE",
"95 456 CURVE",
"30 456 LINE",
"20 428 LINE",
"95 428 LINE",
"95 29 LINE",
"31 16 LINE",
"31 0 LINE"
);
},
{
closed = 1;
nodes = (
"484 21 OFFCURVE",
"447 64 OFFCURVE",
"447 129 CURVE SMOOTH",
"447 373 LINE",
"470 401 OFFCURVE",
"503 418 OFFCURVE",
"542 418 CURVE SMOOTH",
"625 418 OFFCURVE",
"676 344 OFFCURVE",
"676 223 CURVE SMOOTH",
"676 101 OFFCURVE",
"623 21 OFFCURVE",
"541 21 CURVE SMOOTH"
);
}
);
width = 808;
},
{
layerId = "FA6D65B5-4623-4FAC-A199-3F662257AC29";
paths = (
{
closed = 1;
nodes = (
"322 0 LINE",
"322 30 LINE",
"233 47 LINE",
"233 415 LINE",
"351 415 LINE",
"370 456 LINE",
"233 456 LINE",
"233 485 LINE SMOOTH",
"233 566 OFFCURVE",
"235 591 OFFCURVE",
"243 611 CURVE SMOOTH",
"258 646 OFFCURVE",
"295 667 OFFCURVE",
"342 667 CURVE SMOOTH",
"396 667 OFFCURVE",
"427 639 OFFCURVE",
"427 581 CURVE SMOOTH",
"427 0 LINE",
"452 0 LINE",
"525 31 LINE",
"531 31 LINE",
"568 5 OFFCURVE",
"613 -9 OFFCURVE",
"660 -9 CURVE SMOOTH",
"791 -9 OFFCURVE",
"893 101 OFFCURVE",
"893 247 CURVE SMOOTH",
"893 376 OFFCURVE",
"815 464 OFFCURVE",
"703 464 CURVE SMOOTH",
"648 464 OFFCURVE",
"599 441 OFFCURVE",
"560 403 CURVE",
"560 625 LINE SMOOTH",
"560 678 OFFCURVE",
"483 713 OFFCURVE",
"372 713 CURVE SMOOTH",
"243 713 OFFCURVE",
"149 667 OFFCURVE",
"114 587 CURVE SMOOTH",
"103 562 OFFCURVE",
"100 535 OFFCURVE",
"100 456 CURVE",
"24 456 LINE",
"12 415 LINE",
"100 415 LINE",
"100 47 LINE",
"27 30 LINE",
"27 0 LINE"
);
},
{
closed = 1;
nodes = (
"593 38 OFFCURVE",
"560 81 OFFCURVE",
"560 146 CURVE SMOOTH",
"560 347 LINE",
"581 378 OFFCURVE",
"609 397 OFFCURVE",
"643 397 CURVE SMOOTH",
"710 397 OFFCURVE",
"747 332 OFFCURVE",
"747 223 CURVE SMOOTH",
"747 112 OFFCURVE",
"706 38 OFFCURVE",
"642 38 CURVE SMOOTH"
);
}
);
width = 925;
}
);
leftKerningGroup = f;
rightKerningGroup = b;
},
{
glyphname = f_f;
lastChange = "2018-10-23 21:24:40 +0000";
layers = (
{
layerId = master01;
paths = (
{
closed = 1;
nodes = (
"95 428 LINE",
"95 29 LINE",
"31 16 LINE",
"31 0 LINE",
"268 0 LINE",
"268 16 LINE",
"177 29 LINE",
"177 428 LINE",
"377 428 LINE",
"377 29 LINE",
"312 16 LINE",
"312 0 LINE",
"550 0 LINE",
"550 16 LINE",
"458 29 LINE",
"458 428 LINE",
"559 428 LINE",
"569 456 LINE",
"458 456 LINE",
"458 503 LINE SMOOTH",
"458 577 OFFCURVE",
"464 619 OFFCURVE",
"476 645 CURVE SMOOTH",
"490 675 OFFCURVE",
"514 687 OFFCURVE",
"540 687 CURVE SMOOTH",
"568 687 OFFCURVE",
"577 673 OFFCURVE",
"583 642 CURVE SMOOTH",
"587 621 OFFCURVE",
"597 599 OFFCURVE",
"625 599 CURVE SMOOTH",
"650 599 OFFCURVE",
"667 616 OFFCURVE",
"667 641 CURVE SMOOTH",
"667 683 OFFCURVE",
"618 714 OFFCURVE",
"556 714 CURVE SMOOTH",
"499 714 OFFCURVE",
"442 687 OFFCURVE",
"409 644 CURVE",
"385 660 OFFCURVE",
"347 671 OFFCURVE",
"303 671 CURVE SMOOTH",
"210 671 OFFCURVE",
"133 628 OFFCURVE",
"108 562 CURVE SMOOTH",
"100 539 OFFCURVE",
"96 515 OFFCURVE",
"95 456 CURVE",
"30 456 LINE",
"20 428 LINE"
);
},
{
closed = 1;
nodes = (
"177 543 OFFCURVE",
"179 560 OFFCURVE",
"193 586 CURVE SMOOTH",
"213 624 OFFCURVE",
"246 642 OFFCURVE",
"280 642 CURVE SMOOTH",
"324 642 OFFCURVE",
"368 611 OFFCURVE",
"379 558 CURVE",
"378 533 OFFCURVE",
"377 501 OFFCURVE",
"377 456 CURVE",
"177 456 LINE SMOOTH"
);
}
);
width = 583;
},
{
layerId = "FA6D65B5-4623-4FAC-A199-3F662257AC29";
paths = (
{
closed = 1;
nodes = (
"100 415 LINE",
"100 47 LINE",
"27 30 LINE",
"27 0 LINE",
"322 0 LINE",
"322 30 LINE",
"233 47 LINE",
"233 415 LINE",
"427 415 LINE",
"427 47 LINE",
"353 30 LINE",
"353 0 LINE",
"666 0 LINE",
"666 30 LINE",
"560 47 LINE",
"560 415 LINE",
"664 415 LINE",
"676 456 LINE",
"560 456 LINE",
"560 503 LINE SMOOTH",
"560 562 OFFCURVE",
"561 604 OFFCURVE",
"570 630 CURVE SMOOTH",
"580 658 OFFCURVE",
"602 670 OFFCURVE",
"627 670 CURVE SMOOTH",
"654 670 OFFCURVE",
"666 658 OFFCURVE",
"674 625 CURVE SMOOTH",
"683 592 OFFCURVE",
"704 573 OFFCURVE",
"734 573 CURVE SMOOTH",
"770 573 OFFCURVE",
"794 596 OFFCURVE",
"794 630 CURVE SMOOTH",
"794 680 OFFCURVE",
"734 714 OFFCURVE",
"643 714 CURVE SMOOTH",
"574 714 OFFCURVE",
"513 691 OFFCURVE",
"474 652 CURVE",
"443 664 OFFCURVE",
"403 671 OFFCURVE",
"358 671 CURVE SMOOTH",
"239 671 OFFCURVE",
"148 624 OFFCURVE",
"114 544 CURVE SMOOTH",
"106 525 OFFCURVE",
"101 504 OFFCURVE",
"100 456 CURVE",
"24 456 LINE",
"12 415 LINE"
);
},
{
closed = 1;
nodes = (
"233 524 OFFCURVE",
"235 548 OFFCURVE",
"243 568 CURVE SMOOTH",
"258 605 OFFCURVE",
"294 625 OFFCURVE",
"333 625 CURVE SMOOTH",
"378 625 OFFCURVE",
"425 596 OFFCURVE",
"428 538 CURVE",
"427 517 OFFCURVE",
"427 490 OFFCURVE",
"427 456 CURVE",
"233 456 LINE"
);
}
);
width = 690;
}
);
leftKerningGroup = f;
rightKerningGroup = f;
unicode = FB00;
},
{
glyphname = f_f_b;
lastChange = "2018-10-23 21:24:40 +0000";
layers = (
{
layerId = master01;
paths = (
{
closed = 1;
nodes = (
"951 -9 OFFCURVE",
"1049 101 OFFCURVE",
"1049 247 CURVE SMOOTH",
"1049 376 OFFCURVE",
"972 464 OFFCURVE",
"859 464 CURVE SMOOTH",
"808 464 OFFCURVE",
"765 445 OFFCURVE",
"728 406 CURVE",
"728 667 LINE SMOOTH",
"728 694 OFFCURVE",
"662 714 OFFCURVE",
"584 714 CURVE SMOOTH",
"510 714 OFFCURVE",
"447 686 OFFCURVE",
"412 642 CURVE",
"388 660 OFFCURVE",
"349 671 OFFCURVE",
"303 671 CURVE SMOOTH",
"210 671 OFFCURVE",
"133 628 OFFCURVE",
"108 562 CURVE SMOOTH",
"100 539 OFFCURVE",
"96 515 OFFCURVE",
"95 456 CURVE",
"30 456 LINE",
"20 428 LINE",
"95 428 LINE",
"95 29 LINE",
"31 16 LINE",
"31 0 LINE",
"268 0 LINE",
"268 16 LINE",
"177 29 LINE",
"177 428 LINE",
"377 428 LINE",
"377 29 LINE",
"312 16 LINE",
"312 0 LINE",
"550 0 LINE",
"550 16 LINE",
"458 29 LINE",
"458 428 LINE",
"649 428 LINE",
"649 2 LINE",
"663 2 LINE",
"699 31 LINE",
"703 31 LINE",
"738 5 OFFCURVE",
"779 -9 OFFCURVE",
"822 -9 CURVE SMOOTH"
);
},
{
closed = 1;
nodes = (
"177 543 OFFCURVE",
"179 560 OFFCURVE",
"193 586 CURVE SMOOTH",
"212 624 OFFCURVE",
"239 642 OFFCURVE",
"279 642 CURVE SMOOTH",
"333 642 OFFCURVE",
"369 611 OFFCURVE",
"379 558 CURVE",
"378 536 OFFCURVE",
"377 503 OFFCURVE",
"377 456 CURVE",
"177 456 LINE"
);
},
{
closed = 1;
nodes = (
"458 503 LINE SMOOTH",
"458 586 OFFCURVE",
"460 603 OFFCURVE",
"474 629 CURVE SMOOTH",
"494 667 OFFCURVE",
"520 685 OFFCURVE",
"568 685 CURVE SMOOTH",
"613 685 OFFCURVE",
"649 653 OFFCURVE",
"649 610 CURVE SMOOTH",
"649 456 LINE",
"458 456 LINE"
);
},
{
closed = 1;
nodes = (
"765 21 OFFCURVE",
"728 64 OFFCURVE",
"728 129 CURVE SMOOTH",
"728 373 LINE",
"751 401 OFFCURVE",
"784 418 OFFCURVE",
"823 418 CURVE SMOOTH",
"906 418 OFFCURVE",
"957 344 OFFCURVE",
"957 223 CURVE SMOOTH",
"957 101 OFFCURVE",
"904 21 OFFCURVE",
"822 21 CURVE SMOOTH"
);
}
);
width = 1089;
},
{
layerId = "FA6D65B5-4623-4FAC-A199-3F662257AC29";
paths = (
{
closed = 1;
nodes = (
"1118 -9 OFFCURVE",
"1219 101 OFFCURVE",
"1219 247 CURVE SMOOTH",
"1219 376 OFFCURVE",
"1142 464 OFFCURVE",
"1029 464 CURVE SMOOTH",
"974 464 OFFCURVE",
"925 441 OFFCURVE",
"887 403 CURVE",
"887 625 LINE SMOOTH",
"887 678 OFFCURVE",
"810 713 OFFCURVE",
"698 713 CURVE SMOOTH",
"607 713 OFFCURVE",
"533 690 OFFCURVE",
"485 648 CURVE",
"453 662 OFFCURVE",
"406 671 OFFCURVE",
"351 671 CURVE SMOOTH",
"238 671 OFFCURVE",
"146 621 OFFCURVE",
"114 544 CURVE SMOOTH",
"106 525 OFFCURVE",
"101 503 OFFCURVE",
"100 456 CURVE",
"24 456 LINE",
"12 415 LINE",
"100 415 LINE",
"100 47 LINE",
"27 30 LINE",
"27 0 LINE",
"322 0 LINE",
"322 30 LINE",
"233 47 LINE",
"233 415 LINE",
"427 415 LINE",
"427 47 LINE",
"353 30 LINE",
"353 0 LINE",
"648 0 LINE",
"648 30 LINE",
"560 47 LINE",
"560 415 LINE",
"753 415 LINE",
"753 0 LINE",
"778 0 LINE",
"852 31 LINE",
"857 31 LINE",
"894 5 OFFCURVE",
"940 -9 OFFCURVE",
"986 -9 CURVE SMOOTH"
);
},
{
closed = 1;
nodes = (
"233 507 OFFCURVE",
"235 544 OFFCURVE",
"243 568 CURVE SMOOTH",
"259 609 OFFCURVE",
"296 625 OFFCURVE",
"335 625 CURVE SMOOTH",
"395 625 OFFCURVE",
"427 585 OFFCURVE",
"427 522 CURVE SMOOTH",
"427 456 LINE",
"233 456 LINE"
);
},
{
closed = 1;
nodes = (
"560 485 LINE SMOOTH",
"560 566 OFFCURVE",
"562 591 OFFCURVE",
"570 611 CURVE SMOOTH",
"585 646 OFFCURVE",
"622 667 OFFCURVE",
"669 667 CURVE SMOOTH",
"722 667 OFFCURVE",
"753 639 OFFCURVE",
"753 581 CURVE SMOOTH",
"753 456 LINE",
"560 456 LINE"
);
},
{
closed = 1;
nodes = (
"919 38 OFFCURVE",
"887 81 OFFCURVE",
"887 146 CURVE SMOOTH",
"887 347 LINE",
"907 378 OFFCURVE",
"936 397 OFFCURVE",
"970 397 CURVE SMOOTH",
"1036 397 OFFCURVE",
"1074 332 OFFCURVE",
"1074 223 CURVE SMOOTH",
"1074 112 OFFCURVE",
"1033 38 OFFCURVE",
"969 38 CURVE SMOOTH"
);
}
);
width = 1251;
}
);
leftKerningGroup = f;
rightKerningGroup = b;
},
